G04*
G04 #@! TF.GenerationSoftware,Altium Limited,Altium Designer,18.0.7 (293)*
G04*
G04 Layer_Color=12632256*
%FSLAX43Y43*%
%MOMM*%
G71*
G01*
G75*
%ADD41R,2.000X2.000*%
%ADD42C,2.000*%
%ADD43O,1.321X2.642*%
%ADD44C,1.524*%
%ADD45C,1.400*%
%ADD46O,2.642X1.321*%
%ADD47C,6.100*%
%ADD48C,1.500*%
%ADD49C,4.000*%
%ADD50O,2.000X1.000*%
%ADD51O,2.000X1.000*%
%ADD52R,2.000X2.000*%
%ADD53C,1.200*%
%ADD54R,1.500X1.500*%
%ADD55R,1.500X1.500*%
%ADD56C,2.286*%
%ADD57R,1.600X1.600*%
%ADD58C,1.600*%
%ADD59R,1.200X1.200*%
D41*
X8750Y55500D02*
D03*
D42*
X6210D02*
D03*
X3670D02*
D03*
X17259Y64750D02*
D03*
X12250D02*
D03*
X29009D02*
D03*
X24000D02*
D03*
X77491Y64778D02*
D03*
X82500D02*
D03*
X87509D02*
D03*
X72250Y36068D02*
D03*
Y33528D02*
D03*
X95250Y53528D02*
D03*
Y48519D02*
D03*
D43*
X20478Y28578D02*
D03*
Y38738D02*
D03*
X77000Y41028D02*
D03*
Y30868D02*
D03*
D44*
X27250Y38016D02*
D03*
Y35984D02*
D03*
X25000Y54750D02*
D03*
X27540D02*
D03*
X79000Y48920D02*
D03*
Y54000D02*
D03*
X17000Y54750D02*
D03*
X19540D02*
D03*
X49000Y31330D02*
D03*
Y26250D02*
D03*
D45*
X13250Y59330D02*
D03*
Y49170D02*
D03*
X89000Y45920D02*
D03*
Y56080D02*
D03*
X15958Y28528D02*
D03*
X5798D02*
D03*
X80000Y30948D02*
D03*
Y41108D02*
D03*
X83000Y31028D02*
D03*
Y41188D02*
D03*
X96750Y42410D02*
D03*
Y32250D02*
D03*
X2750Y29448D02*
D03*
Y39608D02*
D03*
X12830Y42750D02*
D03*
X2670D02*
D03*
X49250Y10670D02*
D03*
Y20830D02*
D03*
X83750Y17910D02*
D03*
Y7750D02*
D03*
X79000Y7920D02*
D03*
Y18080D02*
D03*
X7500Y19330D02*
D03*
Y9170D02*
D03*
D46*
X2800Y46650D02*
D03*
X12960D02*
D03*
D47*
X4750Y65028D02*
D03*
X5000Y5000D02*
D03*
X94750Y65028D02*
D03*
X95000Y5000D02*
D03*
D48*
X86000Y54750D02*
D03*
Y47750D02*
D03*
X86130Y34158D02*
D03*
Y36698D02*
D03*
Y39238D02*
D03*
Y41778D02*
D03*
X93750Y34158D02*
D03*
Y36698D02*
D03*
Y39238D02*
D03*
X24250Y42028D02*
D03*
X21710D02*
D03*
X19170D02*
D03*
X26790Y49648D02*
D03*
X24250D02*
D03*
X21710D02*
D03*
X19170D02*
D03*
X13687Y31718D02*
D03*
X11147D02*
D03*
X8607D02*
D03*
X6067D02*
D03*
X13687Y39338D02*
D03*
X11147D02*
D03*
X8607D02*
D03*
D49*
X33000Y56500D02*
D03*
X68930D02*
D03*
X33000Y46250D02*
D03*
X68930D02*
D03*
D50*
X24500Y25000D02*
D03*
Y26270D02*
D03*
D51*
Y27540D02*
D03*
D52*
X72250Y38608D02*
D03*
D53*
X72250Y48460D02*
D03*
Y53540D02*
D03*
X92540Y31028D02*
D03*
X87460D02*
D03*
X16878Y32988D02*
D03*
Y38068D02*
D03*
X28500Y9040D02*
D03*
Y3960D02*
D03*
X3000Y19540D02*
D03*
Y17000D02*
D03*
D54*
X93750Y41778D02*
D03*
D55*
X26790Y42028D02*
D03*
X6067Y39338D02*
D03*
D56*
X12920Y4000D02*
D03*
X18000D02*
D03*
X23080D02*
D03*
X44000D02*
D03*
X38920D02*
D03*
X33840D02*
D03*
X54920D02*
D03*
X60000D02*
D03*
X65080D02*
D03*
D57*
X75000Y16000D02*
D03*
Y7000D02*
D03*
D58*
X72460Y16000D02*
D03*
Y7000D02*
D03*
D59*
X3000Y14460D02*
D03*
M02*
