G04*
G04 #@! TF.GenerationSoftware,Altium Limited,Altium Designer,18.0.7 (293)*
G04*
G04 Layer_Color=128*
%FSLAX43Y43*%
%MOMM*%
G71*
G01*
G75*
%ADD67C,0.051*%
D67*
X8150Y55500D02*
X9350D01*
X8750Y54900D02*
Y56100D01*
X5610Y55500D02*
X6810D01*
X6210Y54900D02*
Y56100D01*
X3070Y55500D02*
X4270D01*
X3670Y54900D02*
Y56100D01*
X20071Y28578D02*
X20884D01*
X20478Y28172D02*
Y28984D01*
X20071Y38738D02*
X20884D01*
X20478Y38332D02*
Y39144D01*
X26869Y38016D02*
X27631D01*
X27250Y37635D02*
Y38397D01*
X26869Y35984D02*
X27631D01*
X27250Y35603D02*
Y36365D01*
X12825Y59330D02*
X13675D01*
X13250Y58905D02*
Y59755D01*
X12825Y49170D02*
X13675D01*
X13250Y48745D02*
Y49595D01*
X2394Y46650D02*
X3206D01*
X2800Y46244D02*
Y47056D01*
X12554Y46650D02*
X13366D01*
X12960Y46244D02*
Y47056D01*
X2950Y65028D02*
X6550D01*
X4750Y63228D02*
Y66828D01*
X16659Y64750D02*
X17859D01*
X17259Y64150D02*
Y65350D01*
X11650Y64750D02*
X12850D01*
X12250Y64150D02*
Y65350D01*
X28409Y64750D02*
X29609D01*
X29009Y64150D02*
Y65350D01*
X23400Y64750D02*
X24600D01*
X24000Y64150D02*
Y65350D01*
X24619Y54750D02*
X25381D01*
X25000Y54369D02*
Y55131D01*
X27159Y54750D02*
X27921D01*
X27540Y54369D02*
Y55131D01*
X78619Y48920D02*
X79381D01*
X79000Y48539D02*
Y49301D01*
X78619Y54000D02*
X79381D01*
X79000Y53619D02*
Y54381D01*
X16619Y54750D02*
X17381D01*
X17000Y54369D02*
Y55131D01*
X19159Y54750D02*
X19921D01*
X19540Y54369D02*
Y55131D01*
X48619Y31330D02*
X49381D01*
X49000Y30949D02*
Y31711D01*
X48619Y26250D02*
X49381D01*
X49000Y25869D02*
Y26631D01*
X88575Y45920D02*
X89425D01*
X89000Y45495D02*
Y46345D01*
X88575Y56080D02*
X89425D01*
X89000Y55655D02*
Y56505D01*
X85550Y54750D02*
X86450D01*
X86000Y54300D02*
Y55200D01*
X85550Y47750D02*
X86450D01*
X86000Y47300D02*
Y48200D01*
X15533Y28528D02*
X16383D01*
X15958Y28103D02*
Y28953D01*
X5373Y28528D02*
X6223D01*
X5798Y28103D02*
Y28953D01*
X32000Y56500D02*
X34000D01*
X33000Y55500D02*
Y57500D01*
X67930Y56500D02*
X69930D01*
X68930Y55500D02*
Y57500D01*
X32000Y46250D02*
X34000D01*
X33000Y45250D02*
Y47250D01*
X67930Y46250D02*
X69930D01*
X68930Y45250D02*
Y47250D01*
X79575Y30948D02*
X80425D01*
X80000Y30523D02*
Y31373D01*
X79575Y41108D02*
X80425D01*
X80000Y40683D02*
Y41533D01*
X82575Y31028D02*
X83425D01*
X83000Y30603D02*
Y31453D01*
X82575Y41188D02*
X83425D01*
X83000Y40763D02*
Y41613D01*
X24050Y25000D02*
X24950D01*
X24500Y24550D02*
Y25450D01*
X24050Y26270D02*
X24950D01*
X24500Y25820D02*
Y26720D01*
X24050Y27540D02*
X24950D01*
X24500Y27090D02*
Y27990D01*
X76891Y64778D02*
X78091D01*
X77491Y64178D02*
Y65378D01*
X81900Y64778D02*
X83100D01*
X82500Y64178D02*
Y65378D01*
X86909Y64778D02*
X88109D01*
X87509Y64178D02*
Y65378D01*
X71650Y38608D02*
X72850D01*
X72250Y38008D02*
Y39208D01*
X71650Y36068D02*
X72850D01*
X72250Y35468D02*
Y36668D01*
X71650Y33528D02*
X72850D01*
X72250Y32928D02*
Y34128D01*
X71900Y48460D02*
X72600D01*
X72250Y48110D02*
Y48810D01*
X71900Y53540D02*
X72600D01*
X72250Y53190D02*
Y53890D01*
X92190Y31028D02*
X92890D01*
X92540Y30678D02*
Y31378D01*
X87110Y31028D02*
X87810D01*
X87460Y30678D02*
Y31378D01*
X76594Y41028D02*
X77406D01*
X77000Y40622D02*
Y41434D01*
X76594Y30868D02*
X77406D01*
X77000Y30462D02*
Y31274D01*
X85680Y34158D02*
X86580D01*
X86130Y33708D02*
Y34608D01*
X85680Y36698D02*
X86580D01*
X86130Y36248D02*
Y37148D01*
X85680Y39238D02*
X86580D01*
X86130Y38788D02*
Y39688D01*
X85680Y41778D02*
X86580D01*
X86130Y41328D02*
Y42228D01*
X93300Y34158D02*
X94200D01*
X93750Y33708D02*
Y34608D01*
X93300Y36698D02*
X94200D01*
X93750Y36248D02*
Y37148D01*
X93300Y39238D02*
X94200D01*
X93750Y38788D02*
Y39688D01*
X93300Y41778D02*
X94200D01*
X93750Y41328D02*
Y42228D01*
X96325Y42410D02*
X97175D01*
X96750Y41985D02*
Y42835D01*
X96325Y32250D02*
X97175D01*
X96750Y31825D02*
Y32675D01*
X26340Y42028D02*
X27240D01*
X26790Y41578D02*
Y42478D01*
X23800Y42028D02*
X24700D01*
X24250Y41578D02*
Y42478D01*
X21260Y42028D02*
X22160D01*
X21710Y41578D02*
Y42478D01*
X18720Y42028D02*
X19620D01*
X19170Y41578D02*
Y42478D01*
X26340Y49648D02*
X27240D01*
X26790Y49198D02*
Y50098D01*
X23800Y49648D02*
X24700D01*
X24250Y49198D02*
Y50098D01*
X21260Y49648D02*
X22160D01*
X21710Y49198D02*
Y50098D01*
X18720Y49648D02*
X19620D01*
X19170Y49198D02*
Y50098D01*
X16528Y32988D02*
X17228D01*
X16878Y32638D02*
Y33338D01*
X16528Y38068D02*
X17228D01*
X16878Y37718D02*
Y38418D01*
X2325Y29448D02*
X3175D01*
X2750Y29023D02*
Y29873D01*
X2325Y39608D02*
X3175D01*
X2750Y39183D02*
Y40033D01*
X13237Y31718D02*
X14137D01*
X13687Y31268D02*
Y32168D01*
X10697Y31718D02*
X11597D01*
X11147Y31268D02*
Y32168D01*
X8157Y31718D02*
X9057D01*
X8607Y31268D02*
Y32168D01*
X5617Y31718D02*
X6517D01*
X6067Y31268D02*
Y32168D01*
X13237Y39338D02*
X14137D01*
X13687Y38888D02*
Y39788D01*
X10697Y39338D02*
X11597D01*
X11147Y38888D02*
Y39788D01*
X8157Y39338D02*
X9057D01*
X8607Y38888D02*
Y39788D01*
X5617Y39338D02*
X6517D01*
X6067Y38888D02*
Y39788D01*
X12405Y42750D02*
X13255D01*
X12830Y42325D02*
Y43175D01*
X2245Y42750D02*
X3095D01*
X2670Y42325D02*
Y43175D01*
X28150Y9040D02*
X28850D01*
X28500Y8690D02*
Y9390D01*
X28150Y3960D02*
X28850D01*
X28500Y3610D02*
Y4310D01*
X94650Y53528D02*
X95850D01*
X95250Y52928D02*
Y54128D01*
X94650Y48519D02*
X95850D01*
X95250Y47919D02*
Y49119D01*
X48825Y10670D02*
X49675D01*
X49250Y10245D02*
Y11095D01*
X48825Y20830D02*
X49675D01*
X49250Y20405D02*
Y21255D01*
X12158Y4000D02*
X13682D01*
X12920Y3238D02*
Y4762D01*
X17238Y4000D02*
X18762D01*
X18000Y3238D02*
Y4762D01*
X22318Y4000D02*
X23842D01*
X23080Y3238D02*
Y4762D01*
X43238Y4000D02*
X44762D01*
X44000Y3238D02*
Y4762D01*
X38158Y4000D02*
X39682D01*
X38920Y3238D02*
Y4762D01*
X33078Y4000D02*
X34602D01*
X33840Y3238D02*
Y4762D01*
X54158Y4000D02*
X55682D01*
X54920Y3238D02*
Y4762D01*
X59238Y4000D02*
X60762D01*
X60000Y3238D02*
Y4762D01*
X64318Y4000D02*
X65842D01*
X65080Y3238D02*
Y4762D01*
X74600Y16000D02*
X75400D01*
X75000Y15600D02*
Y16400D01*
X72060Y16000D02*
X72860D01*
X72460Y15600D02*
Y16400D01*
X72060Y7000D02*
X72860D01*
X72460Y6600D02*
Y7400D01*
X74600Y7000D02*
X75400D01*
X75000Y6600D02*
Y7400D01*
X83325Y17910D02*
X84175D01*
X83750Y17485D02*
Y18335D01*
X83325Y7750D02*
X84175D01*
X83750Y7325D02*
Y8175D01*
X78575Y7920D02*
X79425D01*
X79000Y7495D02*
Y8345D01*
X78575Y18080D02*
X79425D01*
X79000Y17655D02*
Y18505D01*
X7075Y19330D02*
X7925D01*
X7500Y18905D02*
Y19755D01*
X7075Y9170D02*
X7925D01*
X7500Y8745D02*
Y9595D01*
X3200Y5000D02*
X6800D01*
X5000Y3200D02*
Y6800D01*
X92950Y65028D02*
X96550D01*
X94750Y63228D02*
Y66828D01*
X93200Y5000D02*
X96800D01*
X95000Y3200D02*
Y6800D01*
X2650Y19540D02*
X3350D01*
X3000Y19190D02*
Y19890D01*
X2650Y17000D02*
X3350D01*
X3000Y16650D02*
Y17350D01*
X2650Y14460D02*
X3350D01*
X3000Y14110D02*
Y14810D01*
X32144Y22750D02*
X32856D01*
X32500Y22394D02*
Y23106D01*
X27394Y22750D02*
X28106D01*
X27750Y22394D02*
Y23106D01*
X80894Y20500D02*
X81606D01*
X81250Y20144D02*
Y20856D01*
X22894Y33000D02*
X23606D01*
X23250Y32644D02*
Y33356D01*
X29144Y50000D02*
X29856D01*
X29500Y49644D02*
Y50356D01*
X644Y27000D02*
X1356D01*
X1000Y26644D02*
Y27356D01*
X22894Y37000D02*
X23606D01*
X23250Y36644D02*
Y37356D01*
X57144Y40250D02*
X57856D01*
X57500Y39894D02*
Y40606D01*
X60394Y38500D02*
X61106D01*
X60750Y38144D02*
Y38856D01*
X60394Y33250D02*
X61106D01*
X60750Y32894D02*
Y33606D01*
X31750Y33778D02*
X34750D01*
X33250Y32278D02*
Y35278D01*
X65750Y67778D02*
X68750D01*
X67250Y66278D02*
Y69278D01*
M02*
