G04*
G04 #@! TF.GenerationSoftware,Altium Limited,Altium Designer,18.0.7 (293)*
G04*
G04 Layer_Color=2752767*
%FSLAX43Y43*%
%MOMM*%
G71*
G01*
G75*
%ADD67C,0.051*%
D67*
X8750Y55500D02*
X8919D01*
X8835D01*
Y56008D01*
X8750Y55923D01*
X9173Y55500D02*
Y55585D01*
X9258D01*
Y55500D01*
X9173D01*
X9935D02*
X9596D01*
X9935Y55839D01*
Y55923D01*
X9850Y56008D01*
X9681D01*
X9596Y55923D01*
X6210Y55500D02*
X6379D01*
X6295D01*
Y56008D01*
X6210Y55923D01*
X6633Y55500D02*
Y55585D01*
X6718D01*
Y55500D01*
X6633D01*
X7395D02*
X7056D01*
X7395Y55839D01*
Y55923D01*
X7310Y56008D01*
X7141D01*
X7056Y55923D01*
X3670Y55500D02*
X3839D01*
X3755D01*
Y56008D01*
X3670Y55923D01*
X4093Y55500D02*
Y55585D01*
X4178D01*
Y55500D01*
X4093D01*
X4855D02*
X4516D01*
X4855Y55839D01*
Y55923D01*
X4770Y56008D01*
X4601D01*
X4516Y55923D01*
X20478Y29001D02*
X20562Y29086D01*
X20731D01*
X20816Y29001D01*
Y28663D01*
X20731Y28578D01*
X20562D01*
X20478Y28663D01*
Y29001D01*
X20985Y28578D02*
Y28663D01*
X21070D01*
Y28578D01*
X20985D01*
X21409Y29001D02*
X21493Y29086D01*
X21662D01*
X21747Y29001D01*
Y28917D01*
X21662Y28832D01*
X21747Y28747D01*
Y28663D01*
X21662Y28578D01*
X21493D01*
X21409Y28663D01*
Y28747D01*
X21493Y28832D01*
X21409Y28917D01*
Y29001D01*
X21493Y28832D02*
X21662D01*
X21916Y28578D02*
X22086D01*
X22001D01*
Y29086D01*
X21916Y29001D01*
X22678Y28578D02*
X22340D01*
X22678Y28917D01*
Y29001D01*
X22594Y29086D01*
X22424D01*
X22340Y29001D01*
X22847D02*
X22932Y29086D01*
X23101D01*
X23186Y29001D01*
Y28917D01*
X23101Y28832D01*
X23186Y28747D01*
Y28663D01*
X23101Y28578D01*
X22932D01*
X22847Y28663D01*
Y28747D01*
X22932Y28832D01*
X22847Y28917D01*
Y29001D01*
X22932Y28832D02*
X23101D01*
X20478Y39161D02*
X20562Y39246D01*
X20731D01*
X20816Y39161D01*
Y38823D01*
X20731Y38738D01*
X20562D01*
X20478Y38823D01*
Y39161D01*
X20985Y38738D02*
Y38823D01*
X21070D01*
Y38738D01*
X20985D01*
X21409Y39161D02*
X21493Y39246D01*
X21662D01*
X21747Y39161D01*
Y39077D01*
X21662Y38992D01*
X21747Y38907D01*
Y38823D01*
X21662Y38738D01*
X21493D01*
X21409Y38823D01*
Y38907D01*
X21493Y38992D01*
X21409Y39077D01*
Y39161D01*
X21493Y38992D02*
X21662D01*
X21916Y38738D02*
X22086D01*
X22001D01*
Y39246D01*
X21916Y39161D01*
X22678Y38738D02*
X22340D01*
X22678Y39077D01*
Y39161D01*
X22594Y39246D01*
X22424D01*
X22340Y39161D01*
X22847D02*
X22932Y39246D01*
X23101D01*
X23186Y39161D01*
Y39077D01*
X23101Y38992D01*
X23186Y38907D01*
Y38823D01*
X23101Y38738D01*
X22932D01*
X22847Y38823D01*
Y38907D01*
X22932Y38992D01*
X22847Y39077D01*
Y39161D01*
X22932Y38992D02*
X23101D01*
X27250Y38439D02*
X27335Y38524D01*
X27504D01*
X27589Y38439D01*
Y38101D01*
X27504Y38016D01*
X27335D01*
X27250Y38101D01*
Y38439D01*
X27758Y38016D02*
Y38101D01*
X27842D01*
Y38016D01*
X27758D01*
X28181Y38524D02*
X28520D01*
Y38439D01*
X28181Y38101D01*
Y38016D01*
X29027Y38524D02*
X28858Y38439D01*
X28689Y38270D01*
Y38101D01*
X28774Y38016D01*
X28943D01*
X29027Y38101D01*
Y38185D01*
X28943Y38270D01*
X28689D01*
X29535Y38016D02*
X29197D01*
X29535Y38355D01*
Y38439D01*
X29451Y38524D01*
X29281D01*
X29197Y38439D01*
X27250Y36407D02*
X27335Y36492D01*
X27504D01*
X27589Y36407D01*
Y36069D01*
X27504Y35984D01*
X27335D01*
X27250Y36069D01*
Y36407D01*
X27758Y35984D02*
Y36069D01*
X27842D01*
Y35984D01*
X27758D01*
X28181Y36492D02*
X28520D01*
Y36407D01*
X28181Y36069D01*
Y35984D01*
X29027Y36492D02*
X28858Y36407D01*
X28689Y36238D01*
Y36069D01*
X28774Y35984D01*
X28943D01*
X29027Y36069D01*
Y36153D01*
X28943Y36238D01*
X28689D01*
X29535Y35984D02*
X29197D01*
X29535Y36323D01*
Y36407D01*
X29451Y36492D01*
X29281D01*
X29197Y36407D01*
X13250Y59753D02*
X13335Y59838D01*
X13504D01*
X13589Y59753D01*
Y59415D01*
X13504Y59330D01*
X13335D01*
X13250Y59415D01*
Y59753D01*
X13758Y59330D02*
Y59415D01*
X13842D01*
Y59330D01*
X13758D01*
X14181Y59753D02*
X14266Y59838D01*
X14435D01*
X14520Y59753D01*
Y59669D01*
X14435Y59584D01*
X14520Y59499D01*
Y59415D01*
X14435Y59330D01*
X14266D01*
X14181Y59415D01*
Y59499D01*
X14266Y59584D01*
X14181Y59669D01*
Y59753D01*
X14266Y59584D02*
X14435D01*
X15027Y59838D02*
X14689D01*
Y59584D01*
X14858Y59669D01*
X14943D01*
X15027Y59584D01*
Y59415D01*
X14943Y59330D01*
X14774D01*
X14689Y59415D01*
X13250Y49593D02*
X13335Y49678D01*
X13504D01*
X13589Y49593D01*
Y49255D01*
X13504Y49170D01*
X13335D01*
X13250Y49255D01*
Y49593D01*
X13758Y49170D02*
Y49255D01*
X13842D01*
Y49170D01*
X13758D01*
X14181Y49593D02*
X14266Y49678D01*
X14435D01*
X14520Y49593D01*
Y49509D01*
X14435Y49424D01*
X14520Y49339D01*
Y49255D01*
X14435Y49170D01*
X14266D01*
X14181Y49255D01*
Y49339D01*
X14266Y49424D01*
X14181Y49509D01*
Y49593D01*
X14266Y49424D02*
X14435D01*
X15027Y49678D02*
X14689D01*
Y49424D01*
X14858Y49509D01*
X14943D01*
X15027Y49424D01*
Y49255D01*
X14943Y49170D01*
X14774D01*
X14689Y49255D01*
X2800Y47073D02*
X2885Y47158D01*
X3054D01*
X3139Y47073D01*
Y46735D01*
X3054Y46650D01*
X2885D01*
X2800Y46735D01*
Y47073D01*
X3308Y46650D02*
Y46735D01*
X3392D01*
Y46650D01*
X3308D01*
X3731Y47073D02*
X3816Y47158D01*
X3985D01*
X4070Y47073D01*
Y46989D01*
X3985Y46904D01*
X4070Y46819D01*
Y46735D01*
X3985Y46650D01*
X3816D01*
X3731Y46735D01*
Y46819D01*
X3816Y46904D01*
X3731Y46989D01*
Y47073D01*
X3816Y46904D02*
X3985D01*
X4239Y46650D02*
X4408D01*
X4324D01*
Y47158D01*
X4239Y47073D01*
X5001Y46650D02*
X4662D01*
X5001Y46989D01*
Y47073D01*
X4916Y47158D01*
X4747D01*
X4662Y47073D01*
X5170D02*
X5255Y47158D01*
X5424D01*
X5508Y47073D01*
Y46989D01*
X5424Y46904D01*
X5508Y46819D01*
Y46735D01*
X5424Y46650D01*
X5255D01*
X5170Y46735D01*
Y46819D01*
X5255Y46904D01*
X5170Y46989D01*
Y47073D01*
X5255Y46904D02*
X5424D01*
X12960Y47073D02*
X13045Y47158D01*
X13214D01*
X13299Y47073D01*
Y46735D01*
X13214Y46650D01*
X13045D01*
X12960Y46735D01*
Y47073D01*
X13468Y46650D02*
Y46735D01*
X13552D01*
Y46650D01*
X13468D01*
X13891Y47073D02*
X13976Y47158D01*
X14145D01*
X14230Y47073D01*
Y46989D01*
X14145Y46904D01*
X14230Y46819D01*
Y46735D01*
X14145Y46650D01*
X13976D01*
X13891Y46735D01*
Y46819D01*
X13976Y46904D01*
X13891Y46989D01*
Y47073D01*
X13976Y46904D02*
X14145D01*
X14399Y46650D02*
X14568D01*
X14484D01*
Y47158D01*
X14399Y47073D01*
X15161Y46650D02*
X14822D01*
X15161Y46989D01*
Y47073D01*
X15076Y47158D01*
X14907D01*
X14822Y47073D01*
X15330D02*
X15415Y47158D01*
X15584D01*
X15668Y47073D01*
Y46989D01*
X15584Y46904D01*
X15668Y46819D01*
Y46735D01*
X15584Y46650D01*
X15415D01*
X15330Y46735D01*
Y46819D01*
X15415Y46904D01*
X15330Y46989D01*
Y47073D01*
X15415Y46904D02*
X15584D01*
X4750Y65451D02*
X4835Y65536D01*
X5004D01*
X5089Y65451D01*
Y65367D01*
X5004Y65282D01*
X4919D01*
X5004D01*
X5089Y65197D01*
Y65113D01*
X5004Y65028D01*
X4835D01*
X4750Y65113D01*
X5258Y65028D02*
Y65113D01*
X5342D01*
Y65028D01*
X5258D01*
X6020Y65536D02*
X5850Y65451D01*
X5681Y65282D01*
Y65113D01*
X5766Y65028D01*
X5935D01*
X6020Y65113D01*
Y65197D01*
X5935Y65282D01*
X5681D01*
X17259Y64750D02*
X17429D01*
X17344D01*
Y65258D01*
X17259Y65173D01*
X17683Y64750D02*
Y64835D01*
X17767D01*
Y64750D01*
X17683D01*
X18444D02*
X18106D01*
X18444Y65089D01*
Y65173D01*
X18360Y65258D01*
X18190D01*
X18106Y65173D01*
X12250Y64750D02*
X12419D01*
X12335D01*
Y65258D01*
X12250Y65173D01*
X12673Y64750D02*
Y64835D01*
X12758D01*
Y64750D01*
X12673D01*
X13435D02*
X13096D01*
X13435Y65089D01*
Y65173D01*
X13350Y65258D01*
X13181D01*
X13096Y65173D01*
X29009Y64750D02*
X29179D01*
X29094D01*
Y65258D01*
X29009Y65173D01*
X29433Y64750D02*
Y64835D01*
X29517D01*
Y64750D01*
X29433D01*
X30194D02*
X29856D01*
X30194Y65089D01*
Y65173D01*
X30110Y65258D01*
X29940D01*
X29856Y65173D01*
X24000Y64750D02*
X24169D01*
X24085D01*
Y65258D01*
X24000Y65173D01*
X24423Y64750D02*
Y64835D01*
X24508D01*
Y64750D01*
X24423D01*
X25185D02*
X24846D01*
X25185Y65089D01*
Y65173D01*
X25100Y65258D01*
X24931D01*
X24846Y65173D01*
X25000Y55173D02*
X25085Y55258D01*
X25254D01*
X25339Y55173D01*
Y54835D01*
X25254Y54750D01*
X25085D01*
X25000Y54835D01*
Y55173D01*
X25508Y54750D02*
Y54835D01*
X25592D01*
Y54750D01*
X25508D01*
X25931Y55258D02*
X26270D01*
Y55173D01*
X25931Y54835D01*
Y54750D01*
X26777Y55258D02*
X26608Y55173D01*
X26439Y55004D01*
Y54835D01*
X26524Y54750D01*
X26693D01*
X26777Y54835D01*
Y54919D01*
X26693Y55004D01*
X26439D01*
X27285Y54750D02*
X26947D01*
X27285Y55089D01*
Y55173D01*
X27201Y55258D01*
X27031D01*
X26947Y55173D01*
X27540D02*
X27625Y55258D01*
X27794D01*
X27879Y55173D01*
Y54835D01*
X27794Y54750D01*
X27625D01*
X27540Y54835D01*
Y55173D01*
X28048Y54750D02*
Y54835D01*
X28132D01*
Y54750D01*
X28048D01*
X28471Y55258D02*
X28810D01*
Y55173D01*
X28471Y54835D01*
Y54750D01*
X29317Y55258D02*
X29148Y55173D01*
X28979Y55004D01*
Y54835D01*
X29064Y54750D01*
X29233D01*
X29317Y54835D01*
Y54919D01*
X29233Y55004D01*
X28979D01*
X29825Y54750D02*
X29487D01*
X29825Y55089D01*
Y55173D01*
X29741Y55258D01*
X29571D01*
X29487Y55173D01*
X79000Y49343D02*
X79085Y49428D01*
X79254D01*
X79339Y49343D01*
Y49005D01*
X79254Y48920D01*
X79085D01*
X79000Y49005D01*
Y49343D01*
X79508Y48920D02*
Y49005D01*
X79592D01*
Y48920D01*
X79508D01*
X79931Y49428D02*
X80270D01*
Y49343D01*
X79931Y49005D01*
Y48920D01*
X80777Y49428D02*
X80608Y49343D01*
X80439Y49174D01*
Y49005D01*
X80524Y48920D01*
X80693D01*
X80777Y49005D01*
Y49089D01*
X80693Y49174D01*
X80439D01*
X81285Y48920D02*
X80947D01*
X81285Y49259D01*
Y49343D01*
X81201Y49428D01*
X81031D01*
X80947Y49343D01*
X79000Y54423D02*
X79085Y54508D01*
X79254D01*
X79339Y54423D01*
Y54085D01*
X79254Y54000D01*
X79085D01*
X79000Y54085D01*
Y54423D01*
X79508Y54000D02*
Y54085D01*
X79592D01*
Y54000D01*
X79508D01*
X79931Y54508D02*
X80270D01*
Y54423D01*
X79931Y54085D01*
Y54000D01*
X80777Y54508D02*
X80608Y54423D01*
X80439Y54254D01*
Y54085D01*
X80524Y54000D01*
X80693D01*
X80777Y54085D01*
Y54169D01*
X80693Y54254D01*
X80439D01*
X81285Y54000D02*
X80947D01*
X81285Y54339D01*
Y54423D01*
X81201Y54508D01*
X81031D01*
X80947Y54423D01*
X17000Y55173D02*
X17085Y55258D01*
X17254D01*
X17339Y55173D01*
Y54835D01*
X17254Y54750D01*
X17085D01*
X17000Y54835D01*
Y55173D01*
X17508Y54750D02*
Y54835D01*
X17592D01*
Y54750D01*
X17508D01*
X17931Y55258D02*
X18270D01*
Y55173D01*
X17931Y54835D01*
Y54750D01*
X18777Y55258D02*
X18608Y55173D01*
X18439Y55004D01*
Y54835D01*
X18524Y54750D01*
X18693D01*
X18777Y54835D01*
Y54919D01*
X18693Y55004D01*
X18439D01*
X19285Y54750D02*
X18947D01*
X19285Y55089D01*
Y55173D01*
X19201Y55258D01*
X19031D01*
X18947Y55173D01*
X19540D02*
X19625Y55258D01*
X19794D01*
X19879Y55173D01*
Y54835D01*
X19794Y54750D01*
X19625D01*
X19540Y54835D01*
Y55173D01*
X20048Y54750D02*
Y54835D01*
X20132D01*
Y54750D01*
X20048D01*
X20471Y55258D02*
X20810D01*
Y55173D01*
X20471Y54835D01*
Y54750D01*
X21317Y55258D02*
X21148Y55173D01*
X20979Y55004D01*
Y54835D01*
X21064Y54750D01*
X21233D01*
X21317Y54835D01*
Y54919D01*
X21233Y55004D01*
X20979D01*
X21825Y54750D02*
X21487D01*
X21825Y55089D01*
Y55173D01*
X21741Y55258D01*
X21571D01*
X21487Y55173D01*
X49000Y31753D02*
X49085Y31838D01*
X49254D01*
X49339Y31753D01*
Y31415D01*
X49254Y31330D01*
X49085D01*
X49000Y31415D01*
Y31753D01*
X49508Y31330D02*
Y31415D01*
X49592D01*
Y31330D01*
X49508D01*
X49931Y31838D02*
X50270D01*
Y31753D01*
X49931Y31415D01*
Y31330D01*
X50777Y31838D02*
X50608Y31753D01*
X50439Y31584D01*
Y31415D01*
X50524Y31330D01*
X50693D01*
X50777Y31415D01*
Y31499D01*
X50693Y31584D01*
X50439D01*
X51285Y31330D02*
X50947D01*
X51285Y31669D01*
Y31753D01*
X51201Y31838D01*
X51031D01*
X50947Y31753D01*
X49000Y26673D02*
X49085Y26758D01*
X49254D01*
X49339Y26673D01*
Y26335D01*
X49254Y26250D01*
X49085D01*
X49000Y26335D01*
Y26673D01*
X49508Y26250D02*
Y26335D01*
X49592D01*
Y26250D01*
X49508D01*
X49931Y26758D02*
X50270D01*
Y26673D01*
X49931Y26335D01*
Y26250D01*
X50777Y26758D02*
X50608Y26673D01*
X50439Y26504D01*
Y26335D01*
X50524Y26250D01*
X50693D01*
X50777Y26335D01*
Y26419D01*
X50693Y26504D01*
X50439D01*
X51285Y26250D02*
X50947D01*
X51285Y26589D01*
Y26673D01*
X51201Y26758D01*
X51031D01*
X50947Y26673D01*
X89000Y46343D02*
X89085Y46428D01*
X89254D01*
X89339Y46343D01*
Y46005D01*
X89254Y45920D01*
X89085D01*
X89000Y46005D01*
Y46343D01*
X89508Y45920D02*
Y46005D01*
X89592D01*
Y45920D01*
X89508D01*
X89931Y46343D02*
X90016Y46428D01*
X90185D01*
X90270Y46343D01*
Y46259D01*
X90185Y46174D01*
X90270Y46089D01*
Y46005D01*
X90185Y45920D01*
X90016D01*
X89931Y46005D01*
Y46089D01*
X90016Y46174D01*
X89931Y46259D01*
Y46343D01*
X90016Y46174D02*
X90185D01*
X90777Y46428D02*
X90439D01*
Y46174D01*
X90608Y46259D01*
X90693D01*
X90777Y46174D01*
Y46005D01*
X90693Y45920D01*
X90524D01*
X90439Y46005D01*
X89000Y56503D02*
X89085Y56588D01*
X89254D01*
X89339Y56503D01*
Y56165D01*
X89254Y56080D01*
X89085D01*
X89000Y56165D01*
Y56503D01*
X89508Y56080D02*
Y56165D01*
X89592D01*
Y56080D01*
X89508D01*
X89931Y56503D02*
X90016Y56588D01*
X90185D01*
X90270Y56503D01*
Y56419D01*
X90185Y56334D01*
X90270Y56249D01*
Y56165D01*
X90185Y56080D01*
X90016D01*
X89931Y56165D01*
Y56249D01*
X90016Y56334D01*
X89931Y56419D01*
Y56503D01*
X90016Y56334D02*
X90185D01*
X90777Y56588D02*
X90439D01*
Y56334D01*
X90608Y56419D01*
X90693D01*
X90777Y56334D01*
Y56165D01*
X90693Y56080D01*
X90524D01*
X90439Y56165D01*
X86000Y55173D02*
X86085Y55258D01*
X86254D01*
X86339Y55173D01*
Y54835D01*
X86254Y54750D01*
X86085D01*
X86000Y54835D01*
Y55173D01*
X86508Y54750D02*
Y54835D01*
X86592D01*
Y54750D01*
X86508D01*
X86931Y54835D02*
X87016Y54750D01*
X87185D01*
X87270Y54835D01*
Y55173D01*
X87185Y55258D01*
X87016D01*
X86931Y55173D01*
Y55089D01*
X87016Y55004D01*
X87270D01*
X86000Y48173D02*
X86085Y48258D01*
X86254D01*
X86339Y48173D01*
Y47835D01*
X86254Y47750D01*
X86085D01*
X86000Y47835D01*
Y48173D01*
X86508Y47750D02*
Y47835D01*
X86592D01*
Y47750D01*
X86508D01*
X86931Y47835D02*
X87016Y47750D01*
X87185D01*
X87270Y47835D01*
Y48173D01*
X87185Y48258D01*
X87016D01*
X86931Y48173D01*
Y48089D01*
X87016Y48004D01*
X87270D01*
X15958Y28951D02*
X16042Y29036D01*
X16211D01*
X16296Y28951D01*
Y28613D01*
X16211Y28528D01*
X16042D01*
X15958Y28613D01*
Y28951D01*
X16465Y28528D02*
Y28613D01*
X16550D01*
Y28528D01*
X16465D01*
X16889Y28951D02*
X16973Y29036D01*
X17142D01*
X17227Y28951D01*
Y28867D01*
X17142Y28782D01*
X17227Y28697D01*
Y28613D01*
X17142Y28528D01*
X16973D01*
X16889Y28613D01*
Y28697D01*
X16973Y28782D01*
X16889Y28867D01*
Y28951D01*
X16973Y28782D02*
X17142D01*
X17735Y29036D02*
X17396D01*
Y28782D01*
X17566Y28867D01*
X17650D01*
X17735Y28782D01*
Y28613D01*
X17650Y28528D01*
X17481D01*
X17396Y28613D01*
X5798Y28951D02*
X5882Y29036D01*
X6051D01*
X6136Y28951D01*
Y28613D01*
X6051Y28528D01*
X5882D01*
X5798Y28613D01*
Y28951D01*
X6305Y28528D02*
Y28613D01*
X6390D01*
Y28528D01*
X6305D01*
X6729Y28951D02*
X6813Y29036D01*
X6982D01*
X7067Y28951D01*
Y28867D01*
X6982Y28782D01*
X7067Y28697D01*
Y28613D01*
X6982Y28528D01*
X6813D01*
X6729Y28613D01*
Y28697D01*
X6813Y28782D01*
X6729Y28867D01*
Y28951D01*
X6813Y28782D02*
X6982D01*
X7575Y29036D02*
X7236D01*
Y28782D01*
X7406Y28867D01*
X7490D01*
X7575Y28782D01*
Y28613D01*
X7490Y28528D01*
X7321D01*
X7236Y28613D01*
X33339Y56500D02*
X33000D01*
X33339Y56839D01*
Y56923D01*
X33254Y57008D01*
X33085D01*
X33000Y56923D01*
X69269Y56500D02*
X68930D01*
X69269Y56839D01*
Y56923D01*
X69184Y57008D01*
X69015D01*
X68930Y56923D01*
X33339Y46250D02*
X33000D01*
X33339Y46589D01*
Y46673D01*
X33254Y46758D01*
X33085D01*
X33000Y46673D01*
X69269Y46250D02*
X68930D01*
X69269Y46589D01*
Y46673D01*
X69184Y46758D01*
X69015D01*
X68930Y46673D01*
X80000Y31371D02*
X80085Y31456D01*
X80254D01*
X80339Y31371D01*
Y31033D01*
X80254Y30948D01*
X80085D01*
X80000Y31033D01*
Y31371D01*
X80508Y30948D02*
Y31033D01*
X80592D01*
Y30948D01*
X80508D01*
X80931Y31371D02*
X81016Y31456D01*
X81185D01*
X81270Y31371D01*
Y31287D01*
X81185Y31202D01*
X81270Y31117D01*
Y31033D01*
X81185Y30948D01*
X81016D01*
X80931Y31033D01*
Y31117D01*
X81016Y31202D01*
X80931Y31287D01*
Y31371D01*
X81016Y31202D02*
X81185D01*
X81777Y31456D02*
X81439D01*
Y31202D01*
X81608Y31287D01*
X81693D01*
X81777Y31202D01*
Y31033D01*
X81693Y30948D01*
X81523D01*
X81439Y31033D01*
X80000Y41531D02*
X80085Y41616D01*
X80254D01*
X80339Y41531D01*
Y41193D01*
X80254Y41108D01*
X80085D01*
X80000Y41193D01*
Y41531D01*
X80508Y41108D02*
Y41193D01*
X80592D01*
Y41108D01*
X80508D01*
X80931Y41531D02*
X81016Y41616D01*
X81185D01*
X81270Y41531D01*
Y41447D01*
X81185Y41362D01*
X81270Y41277D01*
Y41193D01*
X81185Y41108D01*
X81016D01*
X80931Y41193D01*
Y41277D01*
X81016Y41362D01*
X80931Y41447D01*
Y41531D01*
X81016Y41362D02*
X81185D01*
X81777Y41616D02*
X81439D01*
Y41362D01*
X81608Y41447D01*
X81693D01*
X81777Y41362D01*
Y41193D01*
X81693Y41108D01*
X81523D01*
X81439Y41193D01*
X83000Y31451D02*
X83085Y31536D01*
X83254D01*
X83339Y31451D01*
Y31113D01*
X83254Y31028D01*
X83085D01*
X83000Y31113D01*
Y31451D01*
X83508Y31028D02*
Y31113D01*
X83592D01*
Y31028D01*
X83508D01*
X83931Y31451D02*
X84016Y31536D01*
X84185D01*
X84270Y31451D01*
Y31367D01*
X84185Y31282D01*
X84270Y31197D01*
Y31113D01*
X84185Y31028D01*
X84016D01*
X83931Y31113D01*
Y31197D01*
X84016Y31282D01*
X83931Y31367D01*
Y31451D01*
X84016Y31282D02*
X84185D01*
X84777Y31536D02*
X84439D01*
Y31282D01*
X84608Y31367D01*
X84693D01*
X84777Y31282D01*
Y31113D01*
X84693Y31028D01*
X84523D01*
X84439Y31113D01*
X83000Y41611D02*
X83085Y41696D01*
X83254D01*
X83339Y41611D01*
Y41273D01*
X83254Y41188D01*
X83085D01*
X83000Y41273D01*
Y41611D01*
X83508Y41188D02*
Y41273D01*
X83592D01*
Y41188D01*
X83508D01*
X83931Y41611D02*
X84016Y41696D01*
X84185D01*
X84270Y41611D01*
Y41527D01*
X84185Y41442D01*
X84270Y41357D01*
Y41273D01*
X84185Y41188D01*
X84016D01*
X83931Y41273D01*
Y41357D01*
X84016Y41442D01*
X83931Y41527D01*
Y41611D01*
X84016Y41442D02*
X84185D01*
X84777Y41696D02*
X84439D01*
Y41442D01*
X84608Y41527D01*
X84693D01*
X84777Y41442D01*
Y41273D01*
X84693Y41188D01*
X84523D01*
X84439Y41273D01*
X24500Y25423D02*
X24585Y25508D01*
X24754D01*
X24839Y25423D01*
Y25085D01*
X24754Y25000D01*
X24585D01*
X24500Y25085D01*
Y25423D01*
X25008Y25000D02*
Y25085D01*
X25092D01*
Y25000D01*
X25008D01*
X25431Y25085D02*
X25516Y25000D01*
X25685D01*
X25770Y25085D01*
Y25423D01*
X25685Y25508D01*
X25516D01*
X25431Y25423D01*
Y25339D01*
X25516Y25254D01*
X25770D01*
X24500Y26693D02*
X24585Y26778D01*
X24754D01*
X24839Y26693D01*
Y26355D01*
X24754Y26270D01*
X24585D01*
X24500Y26355D01*
Y26693D01*
X25008Y26270D02*
Y26355D01*
X25092D01*
Y26270D01*
X25008D01*
X25431Y26355D02*
X25516Y26270D01*
X25685D01*
X25770Y26355D01*
Y26693D01*
X25685Y26778D01*
X25516D01*
X25431Y26693D01*
Y26609D01*
X25516Y26524D01*
X25770D01*
X24500Y27963D02*
X24585Y28048D01*
X24754D01*
X24839Y27963D01*
Y27625D01*
X24754Y27540D01*
X24585D01*
X24500Y27625D01*
Y27963D01*
X25008Y27540D02*
Y27625D01*
X25092D01*
Y27540D01*
X25008D01*
X25431Y27625D02*
X25516Y27540D01*
X25685D01*
X25770Y27625D01*
Y27963D01*
X25685Y28048D01*
X25516D01*
X25431Y27963D01*
Y27879D01*
X25516Y27794D01*
X25770D01*
X77491Y64778D02*
X77660D01*
X77575D01*
Y65286D01*
X77491Y65201D01*
X77914Y64778D02*
Y64863D01*
X77998D01*
Y64778D01*
X77914D01*
X78676D02*
X78337D01*
X78676Y65117D01*
Y65201D01*
X78591Y65286D01*
X78422D01*
X78337Y65201D01*
X82500Y64778D02*
X82669D01*
X82585D01*
Y65286D01*
X82500Y65201D01*
X82923Y64778D02*
Y64863D01*
X83008D01*
Y64778D01*
X82923D01*
X83685D02*
X83346D01*
X83685Y65117D01*
Y65201D01*
X83600Y65286D01*
X83431D01*
X83346Y65201D01*
X87509Y64778D02*
X87679D01*
X87594D01*
Y65286D01*
X87509Y65201D01*
X87933Y64778D02*
Y64863D01*
X88017D01*
Y64778D01*
X87933D01*
X88694D02*
X88356D01*
X88694Y65117D01*
Y65201D01*
X88610Y65286D01*
X88440D01*
X88356Y65201D01*
X72250Y38608D02*
X72419D01*
X72335D01*
Y39116D01*
X72250Y39031D01*
X72673Y38608D02*
Y38693D01*
X72758D01*
Y38608D01*
X72673D01*
X73435D02*
X73096D01*
X73435Y38947D01*
Y39031D01*
X73350Y39116D01*
X73181D01*
X73096Y39031D01*
X72250Y36068D02*
X72419D01*
X72335D01*
Y36576D01*
X72250Y36491D01*
X72673Y36068D02*
Y36153D01*
X72758D01*
Y36068D01*
X72673D01*
X73435D02*
X73096D01*
X73435Y36407D01*
Y36491D01*
X73350Y36576D01*
X73181D01*
X73096Y36491D01*
X72250Y33528D02*
X72419D01*
X72335D01*
Y34036D01*
X72250Y33951D01*
X72673Y33528D02*
Y33613D01*
X72758D01*
Y33528D01*
X72673D01*
X73435D02*
X73096D01*
X73435Y33867D01*
Y33951D01*
X73350Y34036D01*
X73181D01*
X73096Y33951D01*
X72250Y48883D02*
X72335Y48968D01*
X72504D01*
X72589Y48883D01*
Y48545D01*
X72504Y48460D01*
X72335D01*
X72250Y48545D01*
Y48883D01*
X72758Y48460D02*
Y48545D01*
X72842D01*
Y48460D01*
X72758D01*
X73181Y48968D02*
X73520D01*
Y48883D01*
X73181Y48545D01*
Y48460D01*
X72250Y53963D02*
X72335Y54048D01*
X72504D01*
X72589Y53963D01*
Y53625D01*
X72504Y53540D01*
X72335D01*
X72250Y53625D01*
Y53963D01*
X72758Y53540D02*
Y53625D01*
X72842D01*
Y53540D01*
X72758D01*
X73181Y54048D02*
X73520D01*
Y53963D01*
X73181Y53625D01*
Y53540D01*
X92540Y31451D02*
X92625Y31536D01*
X92794D01*
X92878Y31451D01*
Y31113D01*
X92794Y31028D01*
X92625D01*
X92540Y31113D01*
Y31451D01*
X93048Y31028D02*
Y31113D01*
X93132D01*
Y31028D01*
X93048D01*
X93471Y31536D02*
X93810D01*
Y31451D01*
X93471Y31113D01*
Y31028D01*
X87460Y31451D02*
X87545Y31536D01*
X87714D01*
X87798Y31451D01*
Y31113D01*
X87714Y31028D01*
X87545D01*
X87460Y31113D01*
Y31451D01*
X87968Y31028D02*
Y31113D01*
X88052D01*
Y31028D01*
X87968D01*
X88391Y31536D02*
X88730D01*
Y31451D01*
X88391Y31113D01*
Y31028D01*
X77000Y41451D02*
X77085Y41536D01*
X77254D01*
X77339Y41451D01*
Y41113D01*
X77254Y41028D01*
X77085D01*
X77000Y41113D01*
Y41451D01*
X77508Y41028D02*
Y41113D01*
X77592D01*
Y41028D01*
X77508D01*
X77931Y41451D02*
X78016Y41536D01*
X78185D01*
X78270Y41451D01*
Y41367D01*
X78185Y41282D01*
X78270Y41197D01*
Y41113D01*
X78185Y41028D01*
X78016D01*
X77931Y41113D01*
Y41197D01*
X78016Y41282D01*
X77931Y41367D01*
Y41451D01*
X78016Y41282D02*
X78185D01*
X78439Y41028D02*
X78608D01*
X78524D01*
Y41536D01*
X78439Y41451D01*
X79201Y41028D02*
X78862D01*
X79201Y41367D01*
Y41451D01*
X79116Y41536D01*
X78947D01*
X78862Y41451D01*
X79370D02*
X79455Y41536D01*
X79624D01*
X79708Y41451D01*
Y41367D01*
X79624Y41282D01*
X79708Y41197D01*
Y41113D01*
X79624Y41028D01*
X79455D01*
X79370Y41113D01*
Y41197D01*
X79455Y41282D01*
X79370Y41367D01*
Y41451D01*
X79455Y41282D02*
X79624D01*
X77000Y31291D02*
X77085Y31376D01*
X77254D01*
X77339Y31291D01*
Y30953D01*
X77254Y30868D01*
X77085D01*
X77000Y30953D01*
Y31291D01*
X77508Y30868D02*
Y30953D01*
X77592D01*
Y30868D01*
X77508D01*
X77931Y31291D02*
X78016Y31376D01*
X78185D01*
X78270Y31291D01*
Y31207D01*
X78185Y31122D01*
X78270Y31037D01*
Y30953D01*
X78185Y30868D01*
X78016D01*
X77931Y30953D01*
Y31037D01*
X78016Y31122D01*
X77931Y31207D01*
Y31291D01*
X78016Y31122D02*
X78185D01*
X78439Y30868D02*
X78608D01*
X78524D01*
Y31376D01*
X78439Y31291D01*
X79201Y30868D02*
X78862D01*
X79201Y31207D01*
Y31291D01*
X79116Y31376D01*
X78947D01*
X78862Y31291D01*
X79370D02*
X79455Y31376D01*
X79624D01*
X79708Y31291D01*
Y31207D01*
X79624Y31122D01*
X79708Y31037D01*
Y30953D01*
X79624Y30868D01*
X79455D01*
X79370Y30953D01*
Y31037D01*
X79455Y31122D01*
X79370Y31207D01*
Y31291D01*
X79455Y31122D02*
X79624D01*
X86130Y34581D02*
X86215Y34666D01*
X86384D01*
X86469Y34581D01*
Y34243D01*
X86384Y34158D01*
X86215D01*
X86130Y34243D01*
Y34581D01*
X86638Y34158D02*
Y34243D01*
X86722D01*
Y34158D01*
X86638D01*
X87061Y34243D02*
X87146Y34158D01*
X87315D01*
X87400Y34243D01*
Y34581D01*
X87315Y34666D01*
X87146D01*
X87061Y34581D01*
Y34497D01*
X87146Y34412D01*
X87400D01*
X86130Y37121D02*
X86215Y37206D01*
X86384D01*
X86469Y37121D01*
Y36783D01*
X86384Y36698D01*
X86215D01*
X86130Y36783D01*
Y37121D01*
X86638Y36698D02*
Y36783D01*
X86722D01*
Y36698D01*
X86638D01*
X87061Y36783D02*
X87146Y36698D01*
X87315D01*
X87400Y36783D01*
Y37121D01*
X87315Y37206D01*
X87146D01*
X87061Y37121D01*
Y37037D01*
X87146Y36952D01*
X87400D01*
X86130Y39661D02*
X86215Y39746D01*
X86384D01*
X86469Y39661D01*
Y39323D01*
X86384Y39238D01*
X86215D01*
X86130Y39323D01*
Y39661D01*
X86638Y39238D02*
Y39323D01*
X86722D01*
Y39238D01*
X86638D01*
X87061Y39323D02*
X87146Y39238D01*
X87315D01*
X87400Y39323D01*
Y39661D01*
X87315Y39746D01*
X87146D01*
X87061Y39661D01*
Y39577D01*
X87146Y39492D01*
X87400D01*
X86130Y42201D02*
X86215Y42286D01*
X86384D01*
X86469Y42201D01*
Y41863D01*
X86384Y41778D01*
X86215D01*
X86130Y41863D01*
Y42201D01*
X86638Y41778D02*
Y41863D01*
X86722D01*
Y41778D01*
X86638D01*
X87061Y41863D02*
X87146Y41778D01*
X87315D01*
X87400Y41863D01*
Y42201D01*
X87315Y42286D01*
X87146D01*
X87061Y42201D01*
Y42117D01*
X87146Y42032D01*
X87400D01*
X93750Y34581D02*
X93835Y34666D01*
X94004D01*
X94089Y34581D01*
Y34243D01*
X94004Y34158D01*
X93835D01*
X93750Y34243D01*
Y34581D01*
X94258Y34158D02*
Y34243D01*
X94342D01*
Y34158D01*
X94258D01*
X94681Y34243D02*
X94766Y34158D01*
X94935D01*
X95020Y34243D01*
Y34581D01*
X94935Y34666D01*
X94766D01*
X94681Y34581D01*
Y34497D01*
X94766Y34412D01*
X95020D01*
X93750Y37121D02*
X93835Y37206D01*
X94004D01*
X94089Y37121D01*
Y36783D01*
X94004Y36698D01*
X93835D01*
X93750Y36783D01*
Y37121D01*
X94258Y36698D02*
Y36783D01*
X94342D01*
Y36698D01*
X94258D01*
X94681Y36783D02*
X94766Y36698D01*
X94935D01*
X95020Y36783D01*
Y37121D01*
X94935Y37206D01*
X94766D01*
X94681Y37121D01*
Y37037D01*
X94766Y36952D01*
X95020D01*
X93750Y39661D02*
X93835Y39746D01*
X94004D01*
X94089Y39661D01*
Y39323D01*
X94004Y39238D01*
X93835D01*
X93750Y39323D01*
Y39661D01*
X94258Y39238D02*
Y39323D01*
X94342D01*
Y39238D01*
X94258D01*
X94681Y39323D02*
X94766Y39238D01*
X94935D01*
X95020Y39323D01*
Y39661D01*
X94935Y39746D01*
X94766D01*
X94681Y39661D01*
Y39577D01*
X94766Y39492D01*
X95020D01*
X93750Y42201D02*
X93835Y42286D01*
X94004D01*
X94089Y42201D01*
Y41863D01*
X94004Y41778D01*
X93835D01*
X93750Y41863D01*
Y42201D01*
X94258Y41778D02*
Y41863D01*
X94342D01*
Y41778D01*
X94258D01*
X94681Y41863D02*
X94766Y41778D01*
X94935D01*
X95020Y41863D01*
Y42201D01*
X94935Y42286D01*
X94766D01*
X94681Y42201D01*
Y42117D01*
X94766Y42032D01*
X95020D01*
X96750Y42833D02*
X96835Y42918D01*
X97004D01*
X97089Y42833D01*
Y42495D01*
X97004Y42410D01*
X96835D01*
X96750Y42495D01*
Y42833D01*
X97258Y42410D02*
Y42495D01*
X97342D01*
Y42410D01*
X97258D01*
X97681Y42833D02*
X97766Y42918D01*
X97935D01*
X98020Y42833D01*
Y42749D01*
X97935Y42664D01*
X98020Y42579D01*
Y42495D01*
X97935Y42410D01*
X97766D01*
X97681Y42495D01*
Y42579D01*
X97766Y42664D01*
X97681Y42749D01*
Y42833D01*
X97766Y42664D02*
X97935D01*
X98527Y42918D02*
X98189D01*
Y42664D01*
X98358Y42749D01*
X98443D01*
X98527Y42664D01*
Y42495D01*
X98443Y42410D01*
X98274D01*
X98189Y42495D01*
X96750Y32673D02*
X96835Y32758D01*
X97004D01*
X97089Y32673D01*
Y32335D01*
X97004Y32250D01*
X96835D01*
X96750Y32335D01*
Y32673D01*
X97258Y32250D02*
Y32335D01*
X97342D01*
Y32250D01*
X97258D01*
X97681Y32673D02*
X97766Y32758D01*
X97935D01*
X98020Y32673D01*
Y32589D01*
X97935Y32504D01*
X98020Y32419D01*
Y32335D01*
X97935Y32250D01*
X97766D01*
X97681Y32335D01*
Y32419D01*
X97766Y32504D01*
X97681Y32589D01*
Y32673D01*
X97766Y32504D02*
X97935D01*
X98527Y32758D02*
X98189D01*
Y32504D01*
X98358Y32589D01*
X98443D01*
X98527Y32504D01*
Y32335D01*
X98443Y32250D01*
X98274D01*
X98189Y32335D01*
X26790Y42451D02*
X26875Y42536D01*
X27044D01*
X27129Y42451D01*
Y42113D01*
X27044Y42028D01*
X26875D01*
X26790Y42113D01*
Y42451D01*
X27298Y42028D02*
Y42113D01*
X27382D01*
Y42028D01*
X27298D01*
X27721Y42113D02*
X27806Y42028D01*
X27975D01*
X28060Y42113D01*
Y42451D01*
X27975Y42536D01*
X27806D01*
X27721Y42451D01*
Y42367D01*
X27806Y42282D01*
X28060D01*
X24250Y42451D02*
X24335Y42536D01*
X24504D01*
X24589Y42451D01*
Y42113D01*
X24504Y42028D01*
X24335D01*
X24250Y42113D01*
Y42451D01*
X24758Y42028D02*
Y42113D01*
X24842D01*
Y42028D01*
X24758D01*
X25181Y42113D02*
X25266Y42028D01*
X25435D01*
X25520Y42113D01*
Y42451D01*
X25435Y42536D01*
X25266D01*
X25181Y42451D01*
Y42367D01*
X25266Y42282D01*
X25520D01*
X21710Y42451D02*
X21795Y42536D01*
X21964D01*
X22049Y42451D01*
Y42113D01*
X21964Y42028D01*
X21795D01*
X21710Y42113D01*
Y42451D01*
X22218Y42028D02*
Y42113D01*
X22302D01*
Y42028D01*
X22218D01*
X22641Y42113D02*
X22726Y42028D01*
X22895D01*
X22980Y42113D01*
Y42451D01*
X22895Y42536D01*
X22726D01*
X22641Y42451D01*
Y42367D01*
X22726Y42282D01*
X22980D01*
X19170Y42451D02*
X19255Y42536D01*
X19424D01*
X19509Y42451D01*
Y42113D01*
X19424Y42028D01*
X19255D01*
X19170Y42113D01*
Y42451D01*
X19678Y42028D02*
Y42113D01*
X19762D01*
Y42028D01*
X19678D01*
X20101Y42113D02*
X20186Y42028D01*
X20355D01*
X20440Y42113D01*
Y42451D01*
X20355Y42536D01*
X20186D01*
X20101Y42451D01*
Y42367D01*
X20186Y42282D01*
X20440D01*
X26790Y50071D02*
X26875Y50156D01*
X27044D01*
X27129Y50071D01*
Y49733D01*
X27044Y49648D01*
X26875D01*
X26790Y49733D01*
Y50071D01*
X27298Y49648D02*
Y49733D01*
X27382D01*
Y49648D01*
X27298D01*
X27721Y49733D02*
X27806Y49648D01*
X27975D01*
X28060Y49733D01*
Y50071D01*
X27975Y50156D01*
X27806D01*
X27721Y50071D01*
Y49987D01*
X27806Y49902D01*
X28060D01*
X24250Y50071D02*
X24335Y50156D01*
X24504D01*
X24589Y50071D01*
Y49733D01*
X24504Y49648D01*
X24335D01*
X24250Y49733D01*
Y50071D01*
X24758Y49648D02*
Y49733D01*
X24842D01*
Y49648D01*
X24758D01*
X25181Y49733D02*
X25266Y49648D01*
X25435D01*
X25520Y49733D01*
Y50071D01*
X25435Y50156D01*
X25266D01*
X25181Y50071D01*
Y49987D01*
X25266Y49902D01*
X25520D01*
X21710Y50071D02*
X21795Y50156D01*
X21964D01*
X22049Y50071D01*
Y49733D01*
X21964Y49648D01*
X21795D01*
X21710Y49733D01*
Y50071D01*
X22218Y49648D02*
Y49733D01*
X22302D01*
Y49648D01*
X22218D01*
X22641Y49733D02*
X22726Y49648D01*
X22895D01*
X22980Y49733D01*
Y50071D01*
X22895Y50156D01*
X22726D01*
X22641Y50071D01*
Y49987D01*
X22726Y49902D01*
X22980D01*
X19170Y50071D02*
X19255Y50156D01*
X19424D01*
X19509Y50071D01*
Y49733D01*
X19424Y49648D01*
X19255D01*
X19170Y49733D01*
Y50071D01*
X19678Y49648D02*
Y49733D01*
X19762D01*
Y49648D01*
X19678D01*
X20101Y49733D02*
X20186Y49648D01*
X20355D01*
X20440Y49733D01*
Y50071D01*
X20355Y50156D01*
X20186D01*
X20101Y50071D01*
Y49987D01*
X20186Y49902D01*
X20440D01*
X16878Y33411D02*
X16962Y33496D01*
X17131D01*
X17216Y33411D01*
Y33073D01*
X17131Y32988D01*
X16962D01*
X16878Y33073D01*
Y33411D01*
X17385Y32988D02*
Y33073D01*
X17470D01*
Y32988D01*
X17385D01*
X17809Y33496D02*
X18147D01*
Y33411D01*
X17809Y33073D01*
Y32988D01*
X16878Y38491D02*
X16962Y38576D01*
X17131D01*
X17216Y38491D01*
Y38153D01*
X17131Y38068D01*
X16962D01*
X16878Y38153D01*
Y38491D01*
X17385Y38068D02*
Y38153D01*
X17470D01*
Y38068D01*
X17385D01*
X17809Y38576D02*
X18147D01*
Y38491D01*
X17809Y38153D01*
Y38068D01*
X2750Y29871D02*
X2835Y29956D01*
X3004D01*
X3089Y29871D01*
Y29533D01*
X3004Y29448D01*
X2835D01*
X2750Y29533D01*
Y29871D01*
X3258Y29448D02*
Y29533D01*
X3342D01*
Y29448D01*
X3258D01*
X3681Y29871D02*
X3766Y29956D01*
X3935D01*
X4020Y29871D01*
Y29787D01*
X3935Y29702D01*
X4020Y29617D01*
Y29533D01*
X3935Y29448D01*
X3766D01*
X3681Y29533D01*
Y29617D01*
X3766Y29702D01*
X3681Y29787D01*
Y29871D01*
X3766Y29702D02*
X3935D01*
X4527Y29956D02*
X4189D01*
Y29702D01*
X4358Y29787D01*
X4443D01*
X4527Y29702D01*
Y29533D01*
X4443Y29448D01*
X4273D01*
X4189Y29533D01*
X2750Y40031D02*
X2835Y40116D01*
X3004D01*
X3089Y40031D01*
Y39693D01*
X3004Y39608D01*
X2835D01*
X2750Y39693D01*
Y40031D01*
X3258Y39608D02*
Y39693D01*
X3342D01*
Y39608D01*
X3258D01*
X3681Y40031D02*
X3766Y40116D01*
X3935D01*
X4020Y40031D01*
Y39947D01*
X3935Y39862D01*
X4020Y39777D01*
Y39693D01*
X3935Y39608D01*
X3766D01*
X3681Y39693D01*
Y39777D01*
X3766Y39862D01*
X3681Y39947D01*
Y40031D01*
X3766Y39862D02*
X3935D01*
X4527Y40116D02*
X4189D01*
Y39862D01*
X4358Y39947D01*
X4443D01*
X4527Y39862D01*
Y39693D01*
X4443Y39608D01*
X4273D01*
X4189Y39693D01*
X13687Y32141D02*
X13772Y32226D01*
X13941D01*
X14026Y32141D01*
Y31803D01*
X13941Y31718D01*
X13772D01*
X13687Y31803D01*
Y32141D01*
X14195Y31718D02*
Y31803D01*
X14280D01*
Y31718D01*
X14195D01*
X14618Y31803D02*
X14703Y31718D01*
X14872D01*
X14957Y31803D01*
Y32141D01*
X14872Y32226D01*
X14703D01*
X14618Y32141D01*
Y32056D01*
X14703Y31972D01*
X14957D01*
X11147Y32141D02*
X11232Y32226D01*
X11401D01*
X11486Y32141D01*
Y31803D01*
X11401Y31718D01*
X11232D01*
X11147Y31803D01*
Y32141D01*
X11655Y31718D02*
Y31803D01*
X11740D01*
Y31718D01*
X11655D01*
X12078Y31803D02*
X12163Y31718D01*
X12332D01*
X12417Y31803D01*
Y32141D01*
X12332Y32226D01*
X12163D01*
X12078Y32141D01*
Y32056D01*
X12163Y31972D01*
X12417D01*
X8607Y32141D02*
X8692Y32226D01*
X8861D01*
X8946Y32141D01*
Y31803D01*
X8861Y31718D01*
X8692D01*
X8607Y31803D01*
Y32141D01*
X9115Y31718D02*
Y31803D01*
X9200D01*
Y31718D01*
X9115D01*
X9538Y31803D02*
X9623Y31718D01*
X9792D01*
X9877Y31803D01*
Y32141D01*
X9792Y32226D01*
X9623D01*
X9538Y32141D01*
Y32056D01*
X9623Y31972D01*
X9877D01*
X6067Y32141D02*
X6152Y32226D01*
X6321D01*
X6406Y32141D01*
Y31803D01*
X6321Y31718D01*
X6152D01*
X6067Y31803D01*
Y32141D01*
X6575Y31718D02*
Y31803D01*
X6660D01*
Y31718D01*
X6575D01*
X6998Y31803D02*
X7083Y31718D01*
X7252D01*
X7337Y31803D01*
Y32141D01*
X7252Y32226D01*
X7083D01*
X6998Y32141D01*
Y32056D01*
X7083Y31972D01*
X7337D01*
X13687Y39761D02*
X13772Y39846D01*
X13941D01*
X14026Y39761D01*
Y39423D01*
X13941Y39338D01*
X13772D01*
X13687Y39423D01*
Y39761D01*
X14195Y39338D02*
Y39423D01*
X14280D01*
Y39338D01*
X14195D01*
X14618Y39423D02*
X14703Y39338D01*
X14872D01*
X14957Y39423D01*
Y39761D01*
X14872Y39846D01*
X14703D01*
X14618Y39761D01*
Y39676D01*
X14703Y39592D01*
X14957D01*
X11147Y39761D02*
X11232Y39846D01*
X11401D01*
X11486Y39761D01*
Y39423D01*
X11401Y39338D01*
X11232D01*
X11147Y39423D01*
Y39761D01*
X11655Y39338D02*
Y39423D01*
X11740D01*
Y39338D01*
X11655D01*
X12078Y39423D02*
X12163Y39338D01*
X12332D01*
X12417Y39423D01*
Y39761D01*
X12332Y39846D01*
X12163D01*
X12078Y39761D01*
Y39676D01*
X12163Y39592D01*
X12417D01*
X8607Y39761D02*
X8692Y39846D01*
X8861D01*
X8946Y39761D01*
Y39423D01*
X8861Y39338D01*
X8692D01*
X8607Y39423D01*
Y39761D01*
X9115Y39338D02*
Y39423D01*
X9200D01*
Y39338D01*
X9115D01*
X9538Y39423D02*
X9623Y39338D01*
X9792D01*
X9877Y39423D01*
Y39761D01*
X9792Y39846D01*
X9623D01*
X9538Y39761D01*
Y39676D01*
X9623Y39592D01*
X9877D01*
X6067Y39761D02*
X6152Y39846D01*
X6321D01*
X6406Y39761D01*
Y39423D01*
X6321Y39338D01*
X6152D01*
X6067Y39423D01*
Y39761D01*
X6575Y39338D02*
Y39423D01*
X6660D01*
Y39338D01*
X6575D01*
X6998Y39423D02*
X7083Y39338D01*
X7252D01*
X7337Y39423D01*
Y39761D01*
X7252Y39846D01*
X7083D01*
X6998Y39761D01*
Y39676D01*
X7083Y39592D01*
X7337D01*
X12830Y43173D02*
X12915Y43258D01*
X13084D01*
X13169Y43173D01*
Y42835D01*
X13084Y42750D01*
X12915D01*
X12830Y42835D01*
Y43173D01*
X13338Y42750D02*
Y42835D01*
X13422D01*
Y42750D01*
X13338D01*
X13761Y43173D02*
X13846Y43258D01*
X14015D01*
X14100Y43173D01*
Y43089D01*
X14015Y43004D01*
X14100Y42919D01*
Y42835D01*
X14015Y42750D01*
X13846D01*
X13761Y42835D01*
Y42919D01*
X13846Y43004D01*
X13761Y43089D01*
Y43173D01*
X13846Y43004D02*
X14015D01*
X14607Y43258D02*
X14269D01*
Y43004D01*
X14438Y43089D01*
X14523D01*
X14607Y43004D01*
Y42835D01*
X14523Y42750D01*
X14354D01*
X14269Y42835D01*
X2670Y43173D02*
X2755Y43258D01*
X2924D01*
X3009Y43173D01*
Y42835D01*
X2924Y42750D01*
X2755D01*
X2670Y42835D01*
Y43173D01*
X3178Y42750D02*
Y42835D01*
X3262D01*
Y42750D01*
X3178D01*
X3601Y43173D02*
X3686Y43258D01*
X3855D01*
X3940Y43173D01*
Y43089D01*
X3855Y43004D01*
X3940Y42919D01*
Y42835D01*
X3855Y42750D01*
X3686D01*
X3601Y42835D01*
Y42919D01*
X3686Y43004D01*
X3601Y43089D01*
Y43173D01*
X3686Y43004D02*
X3855D01*
X4447Y43258D02*
X4109D01*
Y43004D01*
X4278Y43089D01*
X4363D01*
X4447Y43004D01*
Y42835D01*
X4363Y42750D01*
X4194D01*
X4109Y42835D01*
X28500Y9463D02*
X28585Y9548D01*
X28754D01*
X28839Y9463D01*
Y9125D01*
X28754Y9040D01*
X28585D01*
X28500Y9125D01*
Y9463D01*
X29008Y9040D02*
Y9125D01*
X29092D01*
Y9040D01*
X29008D01*
X29431Y9548D02*
X29770D01*
Y9463D01*
X29431Y9125D01*
Y9040D01*
X28500Y4383D02*
X28585Y4468D01*
X28754D01*
X28839Y4383D01*
Y4045D01*
X28754Y3960D01*
X28585D01*
X28500Y4045D01*
Y4383D01*
X29008Y3960D02*
Y4045D01*
X29092D01*
Y3960D01*
X29008D01*
X29431Y4468D02*
X29770D01*
Y4383D01*
X29431Y4045D01*
Y3960D01*
X95250Y53528D02*
X95419D01*
X95335D01*
Y54036D01*
X95250Y53951D01*
X95673Y53528D02*
Y53613D01*
X95758D01*
Y53528D01*
X95673D01*
X96435D02*
X96096D01*
X96435Y53867D01*
Y53951D01*
X96350Y54036D01*
X96181D01*
X96096Y53951D01*
X95250Y48519D02*
X95419D01*
X95335D01*
Y49026D01*
X95250Y48942D01*
X95673Y48519D02*
Y48603D01*
X95758D01*
Y48519D01*
X95673D01*
X96435D02*
X96096D01*
X96435Y48857D01*
Y48942D01*
X96350Y49026D01*
X96181D01*
X96096Y48942D01*
X49250Y11093D02*
X49335Y11178D01*
X49504D01*
X49589Y11093D01*
Y10755D01*
X49504Y10670D01*
X49335D01*
X49250Y10755D01*
Y11093D01*
X49758Y10670D02*
Y10755D01*
X49842D01*
Y10670D01*
X49758D01*
X50181Y11093D02*
X50266Y11178D01*
X50435D01*
X50520Y11093D01*
Y11009D01*
X50435Y10924D01*
X50520Y10839D01*
Y10755D01*
X50435Y10670D01*
X50266D01*
X50181Y10755D01*
Y10839D01*
X50266Y10924D01*
X50181Y11009D01*
Y11093D01*
X50266Y10924D02*
X50435D01*
X51027Y11178D02*
X50689D01*
Y10924D01*
X50858Y11009D01*
X50943D01*
X51027Y10924D01*
Y10755D01*
X50943Y10670D01*
X50774D01*
X50689Y10755D01*
X49250Y21253D02*
X49335Y21338D01*
X49504D01*
X49589Y21253D01*
Y20915D01*
X49504Y20830D01*
X49335D01*
X49250Y20915D01*
Y21253D01*
X49758Y20830D02*
Y20915D01*
X49842D01*
Y20830D01*
X49758D01*
X50181Y21253D02*
X50266Y21338D01*
X50435D01*
X50520Y21253D01*
Y21169D01*
X50435Y21084D01*
X50520Y20999D01*
Y20915D01*
X50435Y20830D01*
X50266D01*
X50181Y20915D01*
Y20999D01*
X50266Y21084D01*
X50181Y21169D01*
Y21253D01*
X50266Y21084D02*
X50435D01*
X51027Y21338D02*
X50689D01*
Y21084D01*
X50858Y21169D01*
X50943D01*
X51027Y21084D01*
Y20915D01*
X50943Y20830D01*
X50774D01*
X50689Y20915D01*
X12920Y4000D02*
X13089D01*
X13005D01*
Y4508D01*
X12920Y4423D01*
X13343Y4000D02*
Y4085D01*
X13428D01*
Y4000D01*
X13343D01*
X14105Y4508D02*
X13766D01*
Y4254D01*
X13936Y4339D01*
X14020D01*
X14105Y4254D01*
Y4085D01*
X14020Y4000D01*
X13851D01*
X13766Y4085D01*
X14613Y4000D02*
X14274D01*
X14613Y4339D01*
Y4423D01*
X14528Y4508D01*
X14359D01*
X14274Y4423D01*
X15036Y4000D02*
Y4508D01*
X14782Y4254D01*
X15121D01*
X18000Y4000D02*
X18169D01*
X18085D01*
Y4508D01*
X18000Y4423D01*
X18423Y4000D02*
Y4085D01*
X18508D01*
Y4000D01*
X18423D01*
X19185Y4508D02*
X18846D01*
Y4254D01*
X19016Y4339D01*
X19100D01*
X19185Y4254D01*
Y4085D01*
X19100Y4000D01*
X18931D01*
X18846Y4085D01*
X19693Y4000D02*
X19354D01*
X19693Y4339D01*
Y4423D01*
X19608Y4508D01*
X19439D01*
X19354Y4423D01*
X20116Y4000D02*
Y4508D01*
X19862Y4254D01*
X20201D01*
X23080Y4000D02*
X23249D01*
X23165D01*
Y4508D01*
X23080Y4423D01*
X23503Y4000D02*
Y4085D01*
X23588D01*
Y4000D01*
X23503D01*
X24265Y4508D02*
X23926D01*
Y4254D01*
X24096Y4339D01*
X24180D01*
X24265Y4254D01*
Y4085D01*
X24180Y4000D01*
X24011D01*
X23926Y4085D01*
X24773Y4000D02*
X24434D01*
X24773Y4339D01*
Y4423D01*
X24688Y4508D01*
X24519D01*
X24434Y4423D01*
X25196Y4000D02*
Y4508D01*
X24942Y4254D01*
X25281D01*
X44000Y4000D02*
X44169D01*
X44085D01*
Y4508D01*
X44000Y4423D01*
X44423Y4000D02*
Y4085D01*
X44508D01*
Y4000D01*
X44423D01*
X45185Y4508D02*
X44846D01*
Y4254D01*
X45016Y4339D01*
X45100D01*
X45185Y4254D01*
Y4085D01*
X45100Y4000D01*
X44931D01*
X44846Y4085D01*
X45693Y4000D02*
X45354D01*
X45693Y4339D01*
Y4423D01*
X45608Y4508D01*
X45439D01*
X45354Y4423D01*
X46116Y4000D02*
Y4508D01*
X45862Y4254D01*
X46201D01*
X38920Y4000D02*
X39089D01*
X39005D01*
Y4508D01*
X38920Y4423D01*
X39343Y4000D02*
Y4085D01*
X39428D01*
Y4000D01*
X39343D01*
X40105Y4508D02*
X39766D01*
Y4254D01*
X39936Y4339D01*
X40020D01*
X40105Y4254D01*
Y4085D01*
X40020Y4000D01*
X39851D01*
X39766Y4085D01*
X40613Y4000D02*
X40274D01*
X40613Y4339D01*
Y4423D01*
X40528Y4508D01*
X40359D01*
X40274Y4423D01*
X41036Y4000D02*
Y4508D01*
X40782Y4254D01*
X41121D01*
X33840Y4000D02*
X34009D01*
X33925D01*
Y4508D01*
X33840Y4423D01*
X34263Y4000D02*
Y4085D01*
X34348D01*
Y4000D01*
X34263D01*
X35025Y4508D02*
X34686D01*
Y4254D01*
X34856Y4339D01*
X34940D01*
X35025Y4254D01*
Y4085D01*
X34940Y4000D01*
X34771D01*
X34686Y4085D01*
X35533Y4000D02*
X35194D01*
X35533Y4339D01*
Y4423D01*
X35448Y4508D01*
X35279D01*
X35194Y4423D01*
X35956Y4000D02*
Y4508D01*
X35702Y4254D01*
X36041D01*
X54920Y4000D02*
X55089D01*
X55005D01*
Y4508D01*
X54920Y4423D01*
X55343Y4000D02*
Y4085D01*
X55428D01*
Y4000D01*
X55343D01*
X56105Y4508D02*
X55766D01*
Y4254D01*
X55936Y4339D01*
X56020D01*
X56105Y4254D01*
Y4085D01*
X56020Y4000D01*
X55851D01*
X55766Y4085D01*
X56613Y4000D02*
X56274D01*
X56613Y4339D01*
Y4423D01*
X56528Y4508D01*
X56359D01*
X56274Y4423D01*
X57036Y4000D02*
Y4508D01*
X56782Y4254D01*
X57121D01*
X60000Y4000D02*
X60169D01*
X60085D01*
Y4508D01*
X60000Y4423D01*
X60423Y4000D02*
Y4085D01*
X60508D01*
Y4000D01*
X60423D01*
X61185Y4508D02*
X60846D01*
Y4254D01*
X61016Y4339D01*
X61100D01*
X61185Y4254D01*
Y4085D01*
X61100Y4000D01*
X60931D01*
X60846Y4085D01*
X61693Y4000D02*
X61354D01*
X61693Y4339D01*
Y4423D01*
X61608Y4508D01*
X61439D01*
X61354Y4423D01*
X62116Y4000D02*
Y4508D01*
X61862Y4254D01*
X62201D01*
X65080Y4000D02*
X65249D01*
X65165D01*
Y4508D01*
X65080Y4423D01*
X65503Y4000D02*
Y4085D01*
X65588D01*
Y4000D01*
X65503D01*
X66265Y4508D02*
X65926D01*
Y4254D01*
X66096Y4339D01*
X66180D01*
X66265Y4254D01*
Y4085D01*
X66180Y4000D01*
X66011D01*
X65926Y4085D01*
X66773Y4000D02*
X66434D01*
X66773Y4339D01*
Y4423D01*
X66688Y4508D01*
X66519D01*
X66434Y4423D01*
X67196Y4000D02*
Y4508D01*
X66942Y4254D01*
X67281D01*
X75000Y16423D02*
X75085Y16508D01*
X75254D01*
X75339Y16423D01*
Y16085D01*
X75254Y16000D01*
X75085D01*
X75000Y16085D01*
Y16423D01*
X75508Y16000D02*
Y16085D01*
X75592D01*
Y16000D01*
X75508D01*
X75931Y16423D02*
X76016Y16508D01*
X76185D01*
X76270Y16423D01*
Y16339D01*
X76185Y16254D01*
X76270Y16169D01*
Y16085D01*
X76185Y16000D01*
X76016D01*
X75931Y16085D01*
Y16169D01*
X76016Y16254D01*
X75931Y16339D01*
Y16423D01*
X76016Y16254D02*
X76185D01*
X72460Y16423D02*
X72545Y16508D01*
X72714D01*
X72799Y16423D01*
Y16085D01*
X72714Y16000D01*
X72545D01*
X72460Y16085D01*
Y16423D01*
X72968Y16000D02*
Y16085D01*
X73052D01*
Y16000D01*
X72968D01*
X73391Y16423D02*
X73476Y16508D01*
X73645D01*
X73730Y16423D01*
Y16339D01*
X73645Y16254D01*
X73730Y16169D01*
Y16085D01*
X73645Y16000D01*
X73476D01*
X73391Y16085D01*
Y16169D01*
X73476Y16254D01*
X73391Y16339D01*
Y16423D01*
X73476Y16254D02*
X73645D01*
X72460Y7423D02*
X72545Y7508D01*
X72714D01*
X72799Y7423D01*
Y7085D01*
X72714Y7000D01*
X72545D01*
X72460Y7085D01*
Y7423D01*
X72968Y7000D02*
Y7085D01*
X73052D01*
Y7000D01*
X72968D01*
X73391Y7423D02*
X73476Y7508D01*
X73645D01*
X73730Y7423D01*
Y7339D01*
X73645Y7254D01*
X73730Y7169D01*
Y7085D01*
X73645Y7000D01*
X73476D01*
X73391Y7085D01*
Y7169D01*
X73476Y7254D01*
X73391Y7339D01*
Y7423D01*
X73476Y7254D02*
X73645D01*
X75000Y7423D02*
X75085Y7508D01*
X75254D01*
X75339Y7423D01*
Y7085D01*
X75254Y7000D01*
X75085D01*
X75000Y7085D01*
Y7423D01*
X75508Y7000D02*
Y7085D01*
X75592D01*
Y7000D01*
X75508D01*
X75931Y7423D02*
X76016Y7508D01*
X76185D01*
X76270Y7423D01*
Y7339D01*
X76185Y7254D01*
X76270Y7169D01*
Y7085D01*
X76185Y7000D01*
X76016D01*
X75931Y7085D01*
Y7169D01*
X76016Y7254D01*
X75931Y7339D01*
Y7423D01*
X76016Y7254D02*
X76185D01*
X83750Y18333D02*
X83835Y18418D01*
X84004D01*
X84089Y18333D01*
Y17995D01*
X84004Y17910D01*
X83835D01*
X83750Y17995D01*
Y18333D01*
X84258Y17910D02*
Y17995D01*
X84342D01*
Y17910D01*
X84258D01*
X84681Y18333D02*
X84766Y18418D01*
X84935D01*
X85020Y18333D01*
Y18249D01*
X84935Y18164D01*
X85020Y18079D01*
Y17995D01*
X84935Y17910D01*
X84766D01*
X84681Y17995D01*
Y18079D01*
X84766Y18164D01*
X84681Y18249D01*
Y18333D01*
X84766Y18164D02*
X84935D01*
X85527Y18418D02*
X85189D01*
Y18164D01*
X85358Y18249D01*
X85443D01*
X85527Y18164D01*
Y17995D01*
X85443Y17910D01*
X85274D01*
X85189Y17995D01*
X83750Y8173D02*
X83835Y8258D01*
X84004D01*
X84089Y8173D01*
Y7835D01*
X84004Y7750D01*
X83835D01*
X83750Y7835D01*
Y8173D01*
X84258Y7750D02*
Y7835D01*
X84342D01*
Y7750D01*
X84258D01*
X84681Y8173D02*
X84766Y8258D01*
X84935D01*
X85020Y8173D01*
Y8089D01*
X84935Y8004D01*
X85020Y7919D01*
Y7835D01*
X84935Y7750D01*
X84766D01*
X84681Y7835D01*
Y7919D01*
X84766Y8004D01*
X84681Y8089D01*
Y8173D01*
X84766Y8004D02*
X84935D01*
X85527Y8258D02*
X85189D01*
Y8004D01*
X85358Y8089D01*
X85443D01*
X85527Y8004D01*
Y7835D01*
X85443Y7750D01*
X85274D01*
X85189Y7835D01*
X79000Y8343D02*
X79085Y8428D01*
X79254D01*
X79339Y8343D01*
Y8005D01*
X79254Y7920D01*
X79085D01*
X79000Y8005D01*
Y8343D01*
X79508Y7920D02*
Y8005D01*
X79592D01*
Y7920D01*
X79508D01*
X79931Y8343D02*
X80016Y8428D01*
X80185D01*
X80270Y8343D01*
Y8259D01*
X80185Y8174D01*
X80270Y8089D01*
Y8005D01*
X80185Y7920D01*
X80016D01*
X79931Y8005D01*
Y8089D01*
X80016Y8174D01*
X79931Y8259D01*
Y8343D01*
X80016Y8174D02*
X80185D01*
X80777Y8428D02*
X80439D01*
Y8174D01*
X80608Y8259D01*
X80693D01*
X80777Y8174D01*
Y8005D01*
X80693Y7920D01*
X80524D01*
X80439Y8005D01*
X79000Y18503D02*
X79085Y18588D01*
X79254D01*
X79339Y18503D01*
Y18165D01*
X79254Y18080D01*
X79085D01*
X79000Y18165D01*
Y18503D01*
X79508Y18080D02*
Y18165D01*
X79592D01*
Y18080D01*
X79508D01*
X79931Y18503D02*
X80016Y18588D01*
X80185D01*
X80270Y18503D01*
Y18419D01*
X80185Y18334D01*
X80270Y18249D01*
Y18165D01*
X80185Y18080D01*
X80016D01*
X79931Y18165D01*
Y18249D01*
X80016Y18334D01*
X79931Y18419D01*
Y18503D01*
X80016Y18334D02*
X80185D01*
X80777Y18588D02*
X80439D01*
Y18334D01*
X80608Y18419D01*
X80693D01*
X80777Y18334D01*
Y18165D01*
X80693Y18080D01*
X80524D01*
X80439Y18165D01*
X7500Y19753D02*
X7585Y19838D01*
X7754D01*
X7839Y19753D01*
Y19415D01*
X7754Y19330D01*
X7585D01*
X7500Y19415D01*
Y19753D01*
X8008Y19330D02*
Y19415D01*
X8092D01*
Y19330D01*
X8008D01*
X8431Y19753D02*
X8516Y19838D01*
X8685D01*
X8770Y19753D01*
Y19669D01*
X8685Y19584D01*
X8770Y19499D01*
Y19415D01*
X8685Y19330D01*
X8516D01*
X8431Y19415D01*
Y19499D01*
X8516Y19584D01*
X8431Y19669D01*
Y19753D01*
X8516Y19584D02*
X8685D01*
X9277Y19838D02*
X8939D01*
Y19584D01*
X9108Y19669D01*
X9193D01*
X9277Y19584D01*
Y19415D01*
X9193Y19330D01*
X9024D01*
X8939Y19415D01*
X7500Y9593D02*
X7585Y9678D01*
X7754D01*
X7839Y9593D01*
Y9255D01*
X7754Y9170D01*
X7585D01*
X7500Y9255D01*
Y9593D01*
X8008Y9170D02*
Y9255D01*
X8092D01*
Y9170D01*
X8008D01*
X8431Y9593D02*
X8516Y9678D01*
X8685D01*
X8770Y9593D01*
Y9509D01*
X8685Y9424D01*
X8770Y9339D01*
Y9255D01*
X8685Y9170D01*
X8516D01*
X8431Y9255D01*
Y9339D01*
X8516Y9424D01*
X8431Y9509D01*
Y9593D01*
X8516Y9424D02*
X8685D01*
X9277Y9678D02*
X8939D01*
Y9424D01*
X9108Y9509D01*
X9193D01*
X9277Y9424D01*
Y9255D01*
X9193Y9170D01*
X9024D01*
X8939Y9255D01*
X5000Y5423D02*
X5085Y5508D01*
X5254D01*
X5339Y5423D01*
Y5339D01*
X5254Y5254D01*
X5169D01*
X5254D01*
X5339Y5169D01*
Y5085D01*
X5254Y5000D01*
X5085D01*
X5000Y5085D01*
X5508Y5000D02*
Y5085D01*
X5592D01*
Y5000D01*
X5508D01*
X6270Y5508D02*
X6100Y5423D01*
X5931Y5254D01*
Y5085D01*
X6016Y5000D01*
X6185D01*
X6270Y5085D01*
Y5169D01*
X6185Y5254D01*
X5931D01*
X94750Y65451D02*
X94835Y65536D01*
X95004D01*
X95089Y65451D01*
Y65367D01*
X95004Y65282D01*
X94919D01*
X95004D01*
X95089Y65197D01*
Y65113D01*
X95004Y65028D01*
X94835D01*
X94750Y65113D01*
X95258Y65028D02*
Y65113D01*
X95342D01*
Y65028D01*
X95258D01*
X96020Y65536D02*
X95850Y65451D01*
X95681Y65282D01*
Y65113D01*
X95766Y65028D01*
X95935D01*
X96020Y65113D01*
Y65197D01*
X95935Y65282D01*
X95681D01*
X95000Y5423D02*
X95085Y5508D01*
X95254D01*
X95339Y5423D01*
Y5339D01*
X95254Y5254D01*
X95169D01*
X95254D01*
X95339Y5169D01*
Y5085D01*
X95254Y5000D01*
X95085D01*
X95000Y5085D01*
X95508Y5000D02*
Y5085D01*
X95592D01*
Y5000D01*
X95508D01*
X96270Y5508D02*
X96100Y5423D01*
X95931Y5254D01*
Y5085D01*
X96016Y5000D01*
X96185D01*
X96270Y5085D01*
Y5169D01*
X96185Y5254D01*
X95931D01*
X3000Y19963D02*
X3085Y20048D01*
X3254D01*
X3339Y19963D01*
Y19625D01*
X3254Y19540D01*
X3085D01*
X3000Y19625D01*
Y19963D01*
X3508Y19540D02*
Y19625D01*
X3592D01*
Y19540D01*
X3508D01*
X3931Y20048D02*
X4270D01*
Y19963D01*
X3931Y19625D01*
Y19540D01*
X3000Y17423D02*
X3085Y17508D01*
X3254D01*
X3339Y17423D01*
Y17085D01*
X3254Y17000D01*
X3085D01*
X3000Y17085D01*
Y17423D01*
X3508Y17000D02*
Y17085D01*
X3592D01*
Y17000D01*
X3508D01*
X3931Y17508D02*
X4270D01*
Y17423D01*
X3931Y17085D01*
Y17000D01*
X3000Y14883D02*
X3085Y14968D01*
X3254D01*
X3339Y14883D01*
Y14545D01*
X3254Y14460D01*
X3085D01*
X3000Y14545D01*
Y14883D01*
X3508Y14460D02*
Y14545D01*
X3592D01*
Y14460D01*
X3508D01*
X3931Y14968D02*
X4270D01*
Y14883D01*
X3931Y14545D01*
Y14460D01*
X32500Y23173D02*
X32585Y23258D01*
X32754D01*
X32839Y23173D01*
Y22835D01*
X32754Y22750D01*
X32585D01*
X32500Y22835D01*
Y23173D01*
X33008Y22750D02*
Y22835D01*
X33092D01*
Y22750D01*
X33008D01*
X33431Y23258D02*
X33770D01*
Y23173D01*
X33431Y22835D01*
Y22750D01*
X33939D02*
X34108D01*
X34024D01*
Y23258D01*
X33939Y23173D01*
X34362Y22750D02*
X34531D01*
X34447D01*
Y23258D01*
X34362Y23173D01*
X35124Y22750D02*
X34785D01*
X35124Y23089D01*
Y23173D01*
X35039Y23258D01*
X34870D01*
X34785Y23173D01*
X27750D02*
X27835Y23258D01*
X28004D01*
X28089Y23173D01*
Y22835D01*
X28004Y22750D01*
X27835D01*
X27750Y22835D01*
Y23173D01*
X28258Y22750D02*
Y22835D01*
X28342D01*
Y22750D01*
X28258D01*
X28681Y23258D02*
X29020D01*
Y23173D01*
X28681Y22835D01*
Y22750D01*
X29189D02*
X29358D01*
X29274D01*
Y23258D01*
X29189Y23173D01*
X29612Y22750D02*
X29781D01*
X29697D01*
Y23258D01*
X29612Y23173D01*
X30374Y22750D02*
X30035D01*
X30374Y23089D01*
Y23173D01*
X30289Y23258D01*
X30120D01*
X30035Y23173D01*
X81250Y20923D02*
X81335Y21008D01*
X81504D01*
X81589Y20923D01*
Y20585D01*
X81504Y20500D01*
X81335D01*
X81250Y20585D01*
Y20923D01*
X81758Y20500D02*
Y20585D01*
X81842D01*
Y20500D01*
X81758D01*
X82181Y21008D02*
X82520D01*
Y20923D01*
X82181Y20585D01*
Y20500D01*
X82689D02*
X82858D01*
X82774D01*
Y21008D01*
X82689Y20923D01*
X83112Y20500D02*
X83281D01*
X83197D01*
Y21008D01*
X83112Y20923D01*
X83874Y20500D02*
X83535D01*
X83874Y20839D01*
Y20923D01*
X83789Y21008D01*
X83620D01*
X83535Y20923D01*
X23250Y33423D02*
X23335Y33508D01*
X23504D01*
X23589Y33423D01*
Y33085D01*
X23504Y33000D01*
X23335D01*
X23250Y33085D01*
Y33423D01*
X23758Y33000D02*
Y33085D01*
X23842D01*
Y33000D01*
X23758D01*
X24181Y33508D02*
X24520D01*
Y33423D01*
X24181Y33085D01*
Y33000D01*
X24689D02*
X24858D01*
X24774D01*
Y33508D01*
X24689Y33423D01*
X25112Y33000D02*
X25281D01*
X25197D01*
Y33508D01*
X25112Y33423D01*
X25874Y33000D02*
X25535D01*
X25874Y33339D01*
Y33423D01*
X25789Y33508D01*
X25620D01*
X25535Y33423D01*
X29500Y50423D02*
X29585Y50508D01*
X29754D01*
X29839Y50423D01*
Y50085D01*
X29754Y50000D01*
X29585D01*
X29500Y50085D01*
Y50423D01*
X30008Y50000D02*
Y50085D01*
X30092D01*
Y50000D01*
X30008D01*
X30431Y50508D02*
X30770D01*
Y50423D01*
X30431Y50085D01*
Y50000D01*
X30939D02*
X31108D01*
X31024D01*
Y50508D01*
X30939Y50423D01*
X31362Y50000D02*
X31531D01*
X31447D01*
Y50508D01*
X31362Y50423D01*
X32124Y50000D02*
X31785D01*
X32124Y50339D01*
Y50423D01*
X32039Y50508D01*
X31870D01*
X31785Y50423D01*
X1000Y27423D02*
X1085Y27508D01*
X1254D01*
X1339Y27423D01*
Y27085D01*
X1254Y27000D01*
X1085D01*
X1000Y27085D01*
Y27423D01*
X1508Y27000D02*
Y27085D01*
X1592D01*
Y27000D01*
X1508D01*
X1931Y27508D02*
X2270D01*
Y27423D01*
X1931Y27085D01*
Y27000D01*
X2439D02*
X2608D01*
X2524D01*
Y27508D01*
X2439Y27423D01*
X2862Y27000D02*
X3031D01*
X2947D01*
Y27508D01*
X2862Y27423D01*
X3624Y27000D02*
X3285D01*
X3624Y27339D01*
Y27423D01*
X3539Y27508D01*
X3370D01*
X3285Y27423D01*
X23250Y37423D02*
X23335Y37508D01*
X23504D01*
X23589Y37423D01*
Y37085D01*
X23504Y37000D01*
X23335D01*
X23250Y37085D01*
Y37423D01*
X23758Y37000D02*
Y37085D01*
X23842D01*
Y37000D01*
X23758D01*
X24181Y37508D02*
X24520D01*
Y37423D01*
X24181Y37085D01*
Y37000D01*
X24689D02*
X24858D01*
X24774D01*
Y37508D01*
X24689Y37423D01*
X25112Y37000D02*
X25281D01*
X25197D01*
Y37508D01*
X25112Y37423D01*
X25874Y37000D02*
X25535D01*
X25874Y37339D01*
Y37423D01*
X25789Y37508D01*
X25620D01*
X25535Y37423D01*
X57500Y40673D02*
X57585Y40758D01*
X57754D01*
X57839Y40673D01*
Y40335D01*
X57754Y40250D01*
X57585D01*
X57500Y40335D01*
Y40673D01*
X58008Y40250D02*
Y40335D01*
X58092D01*
Y40250D01*
X58008D01*
X58431Y40758D02*
X58770D01*
Y40673D01*
X58431Y40335D01*
Y40250D01*
X58939D02*
X59108D01*
X59024D01*
Y40758D01*
X58939Y40673D01*
X59362Y40250D02*
X59531D01*
X59447D01*
Y40758D01*
X59362Y40673D01*
X60124Y40250D02*
X59785D01*
X60124Y40589D01*
Y40673D01*
X60039Y40758D01*
X59870D01*
X59785Y40673D01*
X60750Y38923D02*
X60835Y39008D01*
X61004D01*
X61089Y38923D01*
Y38585D01*
X61004Y38500D01*
X60835D01*
X60750Y38585D01*
Y38923D01*
X61258Y38500D02*
Y38585D01*
X61342D01*
Y38500D01*
X61258D01*
X61681Y39008D02*
X62020D01*
Y38923D01*
X61681Y38585D01*
Y38500D01*
X62189D02*
X62358D01*
X62274D01*
Y39008D01*
X62189Y38923D01*
X62612Y38500D02*
X62781D01*
X62697D01*
Y39008D01*
X62612Y38923D01*
X63374Y38500D02*
X63035D01*
X63374Y38839D01*
Y38923D01*
X63289Y39008D01*
X63120D01*
X63035Y38923D01*
X60750Y33673D02*
X60835Y33758D01*
X61004D01*
X61089Y33673D01*
Y33335D01*
X61004Y33250D01*
X60835D01*
X60750Y33335D01*
Y33673D01*
X61258Y33250D02*
Y33335D01*
X61342D01*
Y33250D01*
X61258D01*
X61681Y33758D02*
X62020D01*
Y33673D01*
X61681Y33335D01*
Y33250D01*
X62189D02*
X62358D01*
X62274D01*
Y33758D01*
X62189Y33673D01*
X62612Y33250D02*
X62781D01*
X62697D01*
Y33758D01*
X62612Y33673D01*
X63374Y33250D02*
X63035D01*
X63374Y33589D01*
Y33673D01*
X63289Y33758D01*
X63120D01*
X63035Y33673D01*
X33250Y34201D02*
X33335Y34286D01*
X33504D01*
X33589Y34201D01*
Y34117D01*
X33504Y34032D01*
X33419D01*
X33504D01*
X33589Y33947D01*
Y33863D01*
X33504Y33778D01*
X33335D01*
X33250Y33863D01*
X67250Y68201D02*
X67335Y68286D01*
X67504D01*
X67589Y68201D01*
Y68117D01*
X67504Y68032D01*
X67419D01*
X67504D01*
X67589Y67947D01*
Y67863D01*
X67504Y67778D01*
X67335D01*
X67250Y67863D01*
M02*
