G04*
G04 #@! TF.GenerationSoftware,Altium Limited,Altium Designer,18.0.7 (293)*
G04*
G04 Layer_Physical_Order=1*
G04 Layer_Color=255*
%FSLAX43Y43*%
%MOMM*%
G71*
G01*
G75*
%ADD13R,3.810X2.286*%
%ADD14R,2.286X3.810*%
%ADD38C,3.000*%
%ADD39C,0.500*%
%ADD40C,1.000*%
%ADD41R,2.000X2.000*%
%ADD42C,2.000*%
%ADD43O,1.321X2.642*%
%ADD44C,1.524*%
%ADD45C,1.400*%
%ADD46O,2.642X1.321*%
%ADD47C,6.100*%
%ADD48C,1.500*%
%ADD49C,4.000*%
%ADD50O,2.000X1.000*%
%ADD51O,2.000X1.000*%
%ADD52R,2.000X2.000*%
%ADD53C,1.200*%
%ADD54R,1.500X1.500*%
%ADD55R,1.500X1.500*%
%ADD56C,2.286*%
%ADD57R,1.600X1.600*%
%ADD58C,1.600*%
%ADD59R,1.200X1.200*%
%ADD60C,1.270*%
%ADD61C,3.000*%
G36*
X30990Y59927D02*
Y57534D01*
X30985Y57526D01*
X30874Y57256D01*
X25750D01*
X25554Y57231D01*
X25372Y57155D01*
X25215Y57035D01*
X25215Y57035D01*
X24465Y56285D01*
X24345Y56128D01*
X24269Y55946D01*
X24244Y55750D01*
Y55506D01*
X20223D01*
X20052Y55637D01*
X19805Y55740D01*
X19592Y55768D01*
X18075Y57285D01*
X17918Y57405D01*
X17736Y57481D01*
X17540Y57506D01*
X15750D01*
X15750Y57506D01*
X15554Y57481D01*
X15372Y57405D01*
X15215Y57285D01*
X14465Y56535D01*
X14345Y56378D01*
X14269Y56196D01*
X14244Y56000D01*
Y50314D01*
X14129Y50260D01*
X14032Y50340D01*
X13788Y50470D01*
X13524Y50550D01*
X13250Y50577D01*
X12976Y50550D01*
X12948Y50541D01*
X9807Y53683D01*
X9856Y53800D01*
X10450D01*
Y57200D01*
X7050D01*
X6966Y57292D01*
Y57647D01*
X9563Y60244D01*
X12040D01*
X12094Y60129D01*
X12080Y60112D01*
X11950Y59868D01*
X11870Y59604D01*
X11843Y59330D01*
X11870Y59056D01*
X11950Y58792D01*
X12080Y58548D01*
X12255Y58335D01*
X12468Y58160D01*
X12712Y58030D01*
X12976Y57950D01*
X13250Y57923D01*
X13524Y57950D01*
X13788Y58030D01*
X14032Y58160D01*
X14245Y58335D01*
X14420Y58548D01*
X14550Y58792D01*
X14630Y59056D01*
X14657Y59330D01*
X14630Y59604D01*
X14550Y59868D01*
X14420Y60112D01*
X14406Y60129D01*
X14460Y60244D01*
X15750D01*
X15946Y60269D01*
X16128Y60345D01*
X16285Y60465D01*
X16320Y60500D01*
X27750D01*
Y62421D01*
X28123Y62794D01*
X30990Y59927D01*
D02*
G37*
G36*
X25127Y53742D02*
X25265Y53760D01*
X25512Y53863D01*
X25725Y54025D01*
X25887Y54238D01*
X25944Y54374D01*
X26083Y54377D01*
X26110Y54318D01*
X26059Y54196D01*
X26034Y54000D01*
Y50888D01*
X25981Y50859D01*
X25760Y50678D01*
X25595Y50477D01*
X25520Y50466D01*
X25445Y50477D01*
X25280Y50678D01*
X25059Y50859D01*
X24808Y50994D01*
X24534Y51077D01*
X24250Y51105D01*
X23966Y51077D01*
X23692Y50994D01*
X23441Y50859D01*
X23220Y50678D01*
X23055Y50477D01*
X22980Y50466D01*
X22905Y50477D01*
X22740Y50678D01*
X22519Y50859D01*
X22268Y50994D01*
X21994Y51077D01*
X21710Y51105D01*
X21426Y51077D01*
X21152Y50994D01*
X20901Y50859D01*
X20680Y50678D01*
X20515Y50477D01*
X20440Y50466D01*
X20365Y50477D01*
X20200Y50678D01*
X19979Y50859D01*
X19728Y50994D01*
X19454Y51077D01*
X19170Y51105D01*
X18886Y51077D01*
X18828Y51060D01*
X17756Y52131D01*
Y53497D01*
X17816Y53529D01*
X18039Y53711D01*
X18221Y53934D01*
X18357Y54188D01*
X18433Y54437D01*
X18513Y54454D01*
X18566Y54448D01*
X18653Y54238D01*
X18815Y54025D01*
X19028Y53863D01*
X19275Y53760D01*
X19413Y53742D01*
Y54750D01*
X19667D01*
Y53742D01*
X19805Y53760D01*
X20052Y53863D01*
X20223Y53994D01*
X24317D01*
X24488Y53863D01*
X24735Y53760D01*
X24873Y53742D01*
Y54750D01*
X25127D01*
Y53742D01*
D02*
G37*
G36*
X23055Y48819D02*
X23220Y48618D01*
X23441Y48437D01*
X23692Y48302D01*
X23966Y48219D01*
X24250Y48191D01*
X24534Y48219D01*
X24808Y48302D01*
X25059Y48437D01*
X25280Y48618D01*
X25445Y48819D01*
X25520Y48830D01*
X25595Y48819D01*
X25760Y48618D01*
X25981Y48437D01*
X26034Y48408D01*
Y47710D01*
X26059Y47514D01*
X26135Y47332D01*
X26255Y47175D01*
X33715Y39715D01*
X33715Y39715D01*
X33872Y39595D01*
X34054Y39519D01*
X34250Y39494D01*
X34250Y39494D01*
X35750D01*
Y39256D01*
X33563D01*
X26285Y46535D01*
X26128Y46655D01*
X25946Y46731D01*
X25750Y46756D01*
X22313D01*
X20374Y48695D01*
X20404Y48778D01*
X20542Y48786D01*
X20680Y48618D01*
X20901Y48437D01*
X21152Y48302D01*
X21426Y48219D01*
X21710Y48191D01*
X21994Y48219D01*
X22268Y48302D01*
X22519Y48437D01*
X22740Y48618D01*
X22905Y48819D01*
X22980Y48830D01*
X23055Y48819D01*
D02*
G37*
G36*
X5313Y60383D02*
X3465Y58535D01*
X3345Y58378D01*
X3269Y58196D01*
X3244Y58000D01*
Y57147D01*
X3016Y57078D01*
X2721Y56920D01*
X2462Y56708D01*
X2250Y56449D01*
X2092Y56154D01*
X1995Y55833D01*
X1962Y55500D01*
X1995Y55167D01*
X2092Y54846D01*
X2250Y54551D01*
X2462Y54292D01*
X2721Y54080D01*
X3016Y53922D01*
X3337Y53825D01*
X3670Y53792D01*
X4003Y53825D01*
X4324Y53922D01*
X4619Y54080D01*
X4878Y54292D01*
X5090Y54551D01*
X5145Y54654D01*
X5272Y54666D01*
X5319Y54609D01*
X5510Y54452D01*
X5728Y54336D01*
X5964Y54264D01*
X6083Y54252D01*
Y55500D01*
X6337D01*
Y54252D01*
X6456Y54264D01*
X6692Y54336D01*
X6910Y54452D01*
X6935Y54473D01*
X7050Y54419D01*
Y53800D01*
X7994D01*
Y53670D01*
X8019Y53474D01*
X8095Y53292D01*
X8215Y53135D01*
X11306Y50044D01*
X11258Y49926D01*
X5320D01*
X5124Y49901D01*
X4942Y49825D01*
X4785Y49705D01*
X4785Y49705D01*
X3097Y48017D01*
X2140D01*
X1873Y47991D01*
X1616Y47913D01*
X1380Y47787D01*
X1173Y47617D01*
X1127Y47561D01*
X1000Y47606D01*
Y60500D01*
X5264D01*
X5313Y60383D01*
D02*
G37*
G36*
X12080Y48388D02*
X12255Y48175D01*
X12468Y48000D01*
X12712Y47870D01*
X12976Y47790D01*
X13250Y47763D01*
X13524Y47790D01*
X13788Y47870D01*
X14032Y48000D01*
X14129Y48080D01*
X14244Y48026D01*
Y47563D01*
X14108Y47428D01*
X14082Y47449D01*
X13859Y47541D01*
X13620Y47572D01*
X13087D01*
Y46650D01*
Y45728D01*
X13620D01*
X13859Y45759D01*
X14082Y45851D01*
X14137Y45894D01*
X18537D01*
X20954Y43477D01*
Y42691D01*
X20833Y42534D01*
X20732Y42290D01*
X20730Y42277D01*
X20602Y42279D01*
X20599Y42312D01*
X20516Y42586D01*
X20381Y42837D01*
X20200Y43058D01*
X19979Y43239D01*
X19728Y43374D01*
X19454Y43457D01*
X19170Y43485D01*
X18886Y43457D01*
X18612Y43374D01*
X18361Y43239D01*
X18140Y43058D01*
X17959Y42837D01*
X17824Y42586D01*
X17741Y42312D01*
X17713Y42028D01*
X17741Y41744D01*
X17786Y41595D01*
X17769Y41554D01*
X17744Y41358D01*
Y39188D01*
X17629Y39133D01*
X17603Y39154D01*
X17377Y39275D01*
X17132Y39349D01*
X16878Y39374D01*
X16623Y39349D01*
X16378Y39275D01*
X16152Y39154D01*
X15954Y38992D01*
X15791Y38794D01*
X15671Y38568D01*
X15596Y38323D01*
X15571Y38068D01*
X15592Y37853D01*
X15496Y37756D01*
X13720D01*
X13713Y37883D01*
X13972Y37909D01*
X14245Y37992D01*
X14497Y38126D01*
X14718Y38308D01*
X14899Y38528D01*
X15034Y38780D01*
X15116Y39054D01*
X15144Y39338D01*
X15116Y39622D01*
X15034Y39896D01*
X14899Y40147D01*
X14718Y40368D01*
X14497Y40549D01*
X14245Y40684D01*
X13972Y40767D01*
X13687Y40795D01*
X13403Y40767D01*
X13130Y40684D01*
X12878Y40549D01*
X12657Y40368D01*
X12492Y40167D01*
X12417Y40156D01*
X12343Y40167D01*
X12178Y40368D01*
X11957Y40549D01*
X11904Y40578D01*
Y41535D01*
X12031Y41595D01*
X12048Y41580D01*
X12292Y41450D01*
X12556Y41370D01*
X12830Y41343D01*
X13104Y41370D01*
X13368Y41450D01*
X13612Y41580D01*
X13825Y41755D01*
X14000Y41968D01*
X14130Y42212D01*
X14210Y42476D01*
X14237Y42750D01*
X14210Y43024D01*
X14130Y43288D01*
X14000Y43532D01*
X13825Y43745D01*
X13612Y43920D01*
X13368Y44050D01*
X13104Y44130D01*
X12830Y44157D01*
X12556Y44130D01*
X12292Y44050D01*
X12048Y43920D01*
X11835Y43745D01*
X11660Y43532D01*
X11530Y43288D01*
X11450Y43024D01*
X11423Y42750D01*
X11442Y42557D01*
X11320Y42500D01*
X8785Y45035D01*
X8628Y45155D01*
X8446Y45231D01*
X8250Y45256D01*
X3990D01*
X3972Y45383D01*
X3984Y45387D01*
X4220Y45513D01*
X4427Y45683D01*
X4597Y45891D01*
X4723Y46127D01*
X4801Y46383D01*
X4827Y46650D01*
X4801Y46917D01*
X4723Y47173D01*
X4608Y47388D01*
X5633Y48414D01*
X12067D01*
X12080Y48388D01*
D02*
G37*
G36*
X35750Y41006D02*
X34563D01*
X27546Y48023D01*
Y48408D01*
X27599Y48437D01*
X27820Y48618D01*
X28001Y48839D01*
X28030Y48892D01*
X29148D01*
X29344Y48917D01*
X29526Y48993D01*
X29683Y49113D01*
X29699Y49130D01*
X29732Y49134D01*
X29948Y49223D01*
X30134Y49366D01*
X30277Y49552D01*
X30366Y49768D01*
X30397Y50000D01*
X30366Y50232D01*
X30277Y50448D01*
X30134Y50634D01*
X29948Y50777D01*
X29732Y50866D01*
X29500Y50897D01*
X29268Y50866D01*
X29052Y50777D01*
X28866Y50634D01*
X28723Y50448D01*
X28705Y50404D01*
X28030D01*
X28001Y50457D01*
X27820Y50678D01*
X27599Y50859D01*
X27546Y50888D01*
Y53282D01*
X27827Y53309D01*
X28102Y53393D01*
X28356Y53529D01*
X28579Y53711D01*
X28761Y53934D01*
X28897Y54188D01*
X28981Y54463D01*
X29009Y54750D01*
X28981Y55037D01*
X28897Y55312D01*
X28761Y55566D01*
X28710Y55629D01*
X28764Y55744D01*
X30874D01*
X30985Y55474D01*
X30990Y55466D01*
Y47284D01*
X30985Y47276D01*
X30850Y46949D01*
X30767Y46604D01*
X30749Y46377D01*
X35251D01*
X35233Y46604D01*
X35150Y46949D01*
X35015Y47276D01*
X35010Y47284D01*
Y55466D01*
X35015Y55474D01*
X35150Y55801D01*
X35233Y56146D01*
X35251Y56373D01*
X33000D01*
Y56627D01*
X35251D01*
X35233Y56854D01*
X35150Y57199D01*
X35015Y57526D01*
X35010Y57534D01*
Y60759D01*
X34971Y61152D01*
X34857Y61528D01*
X34671Y61876D01*
X34421Y62180D01*
X30719Y65883D01*
X30767Y66000D01*
X35750Y66000D01*
Y41006D01*
D02*
G37*
G36*
X15961Y53711D02*
X16184Y53529D01*
X16244Y53497D01*
Y51818D01*
X16269Y51622D01*
X16345Y51440D01*
X16465Y51283D01*
X17758Y49990D01*
X17741Y49932D01*
X17713Y49648D01*
X17741Y49364D01*
X17824Y49090D01*
X17959Y48839D01*
X18140Y48618D01*
X18361Y48437D01*
X18612Y48302D01*
X18635Y48295D01*
X21465Y45465D01*
X21465Y45465D01*
X21622Y45345D01*
X21804Y45269D01*
X22000Y45244D01*
X25437D01*
X27085Y43595D01*
X27036Y43478D01*
X25340D01*
Y43174D01*
X25213Y43113D01*
X25059Y43239D01*
X24808Y43374D01*
X24534Y43457D01*
X24250Y43485D01*
X23966Y43457D01*
X23692Y43374D01*
X23441Y43239D01*
X23220Y43058D01*
X23039Y42837D01*
X22904Y42586D01*
X22821Y42312D01*
X22818Y42279D01*
X22690Y42277D01*
X22688Y42290D01*
X22587Y42534D01*
X22466Y42691D01*
Y43790D01*
X22441Y43986D01*
X22365Y44168D01*
X22245Y44325D01*
X19385Y47185D01*
X19228Y47305D01*
X19046Y47381D01*
X18850Y47406D01*
X15756D01*
Y53760D01*
X15883Y53806D01*
X15961Y53711D01*
D02*
G37*
G36*
X10391Y41289D02*
Y40578D01*
X10338Y40549D01*
X10117Y40368D01*
X9952Y40167D01*
X9877Y40156D01*
X9803Y40167D01*
X9638Y40368D01*
X9417Y40549D01*
X9336Y40592D01*
X9263Y40771D01*
X9142Y40927D01*
X6785Y43285D01*
X6628Y43405D01*
X6446Y43481D01*
X6250Y43506D01*
X3853D01*
X3840Y43532D01*
X3760Y43629D01*
X3814Y43744D01*
X7937D01*
X10391Y41289D01*
D02*
G37*
G36*
X22818Y41777D02*
X22821Y41744D01*
X22904Y41470D01*
X23039Y41219D01*
X23220Y40998D01*
X23441Y40817D01*
X23544Y40761D01*
X23595Y40638D01*
X23715Y40481D01*
X25829Y38367D01*
X25809Y38303D01*
X25781Y38016D01*
X25809Y37729D01*
X25893Y37454D01*
X26029Y37200D01*
X26192Y37000D01*
X26029Y36800D01*
X25893Y36546D01*
X25809Y36271D01*
X25783Y36006D01*
X23487D01*
X23479Y36133D01*
X23482Y36134D01*
X23698Y36223D01*
X23884Y36366D01*
X24027Y36552D01*
X24116Y36768D01*
X24130Y36873D01*
X22370D01*
X22384Y36768D01*
X22473Y36552D01*
X22616Y36366D01*
X22802Y36223D01*
X23018Y36134D01*
X23021Y36133D01*
X23013Y36006D01*
X21063D01*
X20484Y36586D01*
X20533Y36716D01*
X20744Y36737D01*
X21001Y36815D01*
X21237Y36941D01*
X21444Y37111D01*
X21614Y37318D01*
X21740Y37554D01*
X21818Y37811D01*
X21844Y38078D01*
Y39170D01*
X21962Y39218D01*
X22494Y38687D01*
Y37474D01*
X22473Y37448D01*
X22384Y37232D01*
X22370Y37127D01*
X24130D01*
X24116Y37232D01*
X24027Y37448D01*
X24006Y37474D01*
Y39000D01*
X24006Y39000D01*
X23981Y39196D01*
X23905Y39378D01*
X23785Y39535D01*
X23785Y39535D01*
X22466Y40853D01*
Y41365D01*
X22587Y41522D01*
X22688Y41766D01*
X22690Y41779D01*
X22818Y41777D01*
D02*
G37*
G36*
X32715Y37965D02*
X32715Y37965D01*
X32872Y37845D01*
X33054Y37769D01*
X33250Y37744D01*
X33250Y37744D01*
X35750D01*
Y32086D01*
X34076D01*
X34044Y32213D01*
X34229Y32313D01*
X34496Y32532D01*
X34715Y32799D01*
X34878Y33104D01*
X34979Y33434D01*
X35012Y33778D01*
X34979Y34122D01*
X34878Y34452D01*
X34715Y34757D01*
X34496Y35024D01*
X34229Y35243D01*
X33924Y35406D01*
X33594Y35507D01*
X33250Y35540D01*
X32906Y35507D01*
X32576Y35406D01*
X32271Y35243D01*
X32004Y35024D01*
X31785Y34757D01*
X31622Y34452D01*
X31521Y34122D01*
X31488Y33778D01*
X31521Y33434D01*
X31622Y33104D01*
X31785Y32799D01*
X32004Y32532D01*
X32271Y32313D01*
X32456Y32213D01*
X32424Y32086D01*
X25233D01*
X24120Y33199D01*
X24116Y33232D01*
X24027Y33448D01*
X23884Y33634D01*
X23698Y33777D01*
X23482Y33866D01*
X23377Y33880D01*
Y33000D01*
X23250D01*
Y32873D01*
X22370D01*
X22384Y32768D01*
X22473Y32552D01*
X22616Y32366D01*
X22802Y32223D01*
X23018Y32134D01*
X23051Y32130D01*
X24385Y30795D01*
X24542Y30675D01*
X24724Y30599D01*
X24920Y30574D01*
X35750D01*
Y29000D01*
X24570Y29000D01*
X17785Y35785D01*
X17785Y35785D01*
X17628Y35905D01*
X17446Y35981D01*
X17250Y36006D01*
X12140D01*
X11944Y35981D01*
X11761Y35905D01*
X11605Y35785D01*
X11605Y35785D01*
X8949Y33129D01*
X8892Y33147D01*
X8607Y33175D01*
X8414Y33156D01*
X3506Y38063D01*
Y38425D01*
X3532Y38438D01*
X3745Y38613D01*
X3920Y38826D01*
X4050Y39070D01*
X4130Y39334D01*
X4157Y39608D01*
X4130Y39882D01*
X4050Y40146D01*
X3920Y40390D01*
X3745Y40603D01*
X3532Y40778D01*
X3288Y40908D01*
X3024Y40988D01*
X2750Y41015D01*
X2476Y40988D01*
X2212Y40908D01*
X1968Y40778D01*
X1871Y40698D01*
X1756Y40752D01*
Y41540D01*
X1871Y41594D01*
X1888Y41580D01*
X2132Y41450D01*
X2396Y41370D01*
X2670Y41343D01*
X2944Y41370D01*
X3208Y41450D01*
X3452Y41580D01*
X3665Y41755D01*
X3840Y41968D01*
X3853Y41994D01*
X5937D01*
X7025Y40905D01*
X6976Y40788D01*
X4617D01*
Y37888D01*
X7517D01*
Y38192D01*
X7644Y38252D01*
X7798Y38126D01*
X8050Y37992D01*
X8323Y37909D01*
X8607Y37881D01*
X8892Y37909D01*
X8949Y37926D01*
X10410Y36465D01*
X10567Y36345D01*
X10750Y36269D01*
X10945Y36244D01*
X15809D01*
X16005Y36269D01*
X16188Y36345D01*
X16344Y36465D01*
X16662Y36783D01*
X16878Y36762D01*
X17132Y36787D01*
X17377Y36861D01*
X17603Y36982D01*
X17724Y37081D01*
X17740Y37087D01*
X17890Y37063D01*
X17892Y37060D01*
X17965Y36965D01*
X20215Y34715D01*
X20215Y34715D01*
X20372Y34595D01*
X20554Y34519D01*
X20750Y34494D01*
X20750Y34494D01*
X26516D01*
X26712Y34519D01*
X26851Y34577D01*
X26963Y34543D01*
X27250Y34515D01*
X27537Y34543D01*
X27812Y34627D01*
X28066Y34763D01*
X28289Y34945D01*
X28471Y35168D01*
X28607Y35422D01*
X28691Y35697D01*
X28719Y35984D01*
X28691Y36271D01*
X28607Y36546D01*
X28471Y36800D01*
X28308Y37000D01*
X28471Y37200D01*
X28607Y37454D01*
X28691Y37729D01*
X28719Y38016D01*
X28691Y38303D01*
X28607Y38578D01*
X28471Y38832D01*
X28289Y39055D01*
X28066Y39237D01*
X27812Y39373D01*
X27537Y39457D01*
X27250Y39485D01*
X26963Y39457D01*
X26899Y39437D01*
X25875Y40461D01*
X25924Y40578D01*
X28240D01*
Y42274D01*
X28357Y42323D01*
X32715Y37965D01*
D02*
G37*
G36*
X1968Y38438D02*
X1994Y38425D01*
Y37750D01*
X2019Y37554D01*
X2095Y37372D01*
X2215Y37215D01*
X6142Y33288D01*
X6088Y33173D01*
X6067Y33175D01*
X5783Y33147D01*
X5510Y33064D01*
X5258Y32929D01*
X5037Y32748D01*
X4856Y32527D01*
X4721Y32276D01*
X4638Y32002D01*
X4610Y31718D01*
X4638Y31434D01*
X4721Y31160D01*
X4856Y30908D01*
X5037Y30688D01*
X5258Y30506D01*
X5510Y30372D01*
X5783Y30289D01*
X6067Y30261D01*
X6352Y30289D01*
X6625Y30372D01*
X6877Y30506D01*
X7098Y30688D01*
X7263Y30889D01*
X7337Y30900D01*
X7412Y30889D01*
X7577Y30688D01*
X7798Y30506D01*
X8050Y30372D01*
X8323Y30289D01*
X8607Y30261D01*
X8892Y30289D01*
X9165Y30372D01*
X9417Y30506D01*
X9638Y30688D01*
X9803Y30889D01*
X9877Y30900D01*
X9952Y30889D01*
X10117Y30688D01*
X10338Y30506D01*
X10590Y30372D01*
X10863Y30289D01*
X11147Y30261D01*
X11432Y30289D01*
X11705Y30372D01*
X11957Y30506D01*
X12178Y30688D01*
X12343Y30889D01*
X12417Y30900D01*
X12492Y30889D01*
X12657Y30688D01*
X12878Y30506D01*
X13130Y30372D01*
X13403Y30289D01*
X13687Y30261D01*
X13972Y30289D01*
X14245Y30372D01*
X14497Y30506D01*
X14718Y30688D01*
X14899Y30908D01*
X15034Y31160D01*
X15116Y31434D01*
X15144Y31718D01*
X15116Y32002D01*
X15034Y32276D01*
X14899Y32527D01*
X14718Y32748D01*
X14573Y32867D01*
X14619Y32994D01*
X15566D01*
X15571Y32988D01*
X15596Y32733D01*
X15671Y32488D01*
X15791Y32262D01*
X15954Y32064D01*
X16121Y31927D01*
Y30013D01*
X16027Y29928D01*
X15958Y29935D01*
X15683Y29908D01*
X15419Y29828D01*
X15176Y29698D01*
X14963Y29523D01*
X14788Y29310D01*
X14658Y29066D01*
X14638Y29000D01*
X7117Y29000D01*
X7097Y29066D01*
X6967Y29310D01*
X6792Y29523D01*
X6579Y29698D01*
X6336Y29828D01*
X6072Y29908D01*
X5798Y29935D01*
X5523Y29908D01*
X5259Y29828D01*
X5016Y29698D01*
X4803Y29523D01*
X4628Y29310D01*
X4614Y29284D01*
X4235D01*
X4150Y29379D01*
X4157Y29448D01*
X4130Y29722D01*
X4050Y29986D01*
X3920Y30230D01*
X3745Y30443D01*
X3532Y30618D01*
X3288Y30748D01*
X3024Y30828D01*
X2750Y30855D01*
X2476Y30828D01*
X2212Y30748D01*
X1968Y30618D01*
X1871Y30538D01*
X1756Y30592D01*
Y38464D01*
X1871Y38518D01*
X1968Y38438D01*
D02*
G37*
G36*
X20721Y30709D02*
X20664Y30587D01*
X20478Y30605D01*
X20211Y30579D01*
X19954Y30501D01*
X19718Y30375D01*
X19511Y30205D01*
X19341Y29998D01*
X19215Y29762D01*
X19137Y29505D01*
X19115Y29284D01*
X17709D01*
X17625Y29380D01*
X17634Y29448D01*
X17634Y29448D01*
Y31927D01*
X17801Y32064D01*
X17964Y32262D01*
X18084Y32488D01*
X18159Y32733D01*
X18184Y32988D01*
X18175Y33075D01*
X18297Y33133D01*
X20721Y30709D01*
D02*
G37*
G36*
X55072Y25057D02*
X55120Y24940D01*
X50760Y20580D01*
X50638Y20637D01*
X50657Y20830D01*
X50630Y21104D01*
X50550Y21368D01*
X50420Y21612D01*
X50245Y21825D01*
X50032Y22000D01*
X50006Y22013D01*
Y24988D01*
X50096Y25077D01*
X55072Y25057D01*
D02*
G37*
G36*
X48115Y25085D02*
X48184Y25029D01*
X48438Y24893D01*
X48494Y24876D01*
Y22013D01*
X48468Y22000D01*
X48255Y21825D01*
X48080Y21612D01*
X47950Y21368D01*
X47870Y21104D01*
X47843Y20830D01*
X47870Y20556D01*
X47922Y20383D01*
X47828Y20256D01*
X47063D01*
X42329Y24991D01*
X42378Y25108D01*
X48115Y25085D01*
D02*
G37*
G36*
X22718Y25186D02*
X22803Y25092D01*
X22794Y25000D01*
X22817Y24765D01*
X22886Y24539D01*
X22997Y24330D01*
X23147Y24147D01*
X23330Y23997D01*
X23539Y23886D01*
X23765Y23817D01*
X24000Y23794D01*
X25000D01*
X25235Y23817D01*
X25461Y23886D01*
X25670Y23997D01*
X25853Y24147D01*
X25932Y24244D01*
X37277D01*
Y19595D01*
X40563D01*
Y24244D01*
X40937D01*
X46215Y18965D01*
X46215Y18965D01*
X46372Y18845D01*
X46554Y18769D01*
X46750Y18744D01*
X50750D01*
X50946Y18769D01*
X51128Y18845D01*
X51285Y18965D01*
X57368Y25048D01*
X69500Y25000D01*
X70500Y24000D01*
Y15720D01*
X70405Y15643D01*
X70373Y15643D01*
X65595D01*
Y12357D01*
X70373D01*
X70405Y12357D01*
X70500Y12280D01*
Y3000D01*
X66759D01*
X66693Y3109D01*
X66791Y3291D01*
X66896Y3639D01*
X66932Y4000D01*
X66896Y4361D01*
X66791Y4709D01*
X66620Y5029D01*
X66390Y5310D01*
X66109Y5540D01*
X65789Y5711D01*
X65441Y5816D01*
X65080Y5852D01*
X64719Y5816D01*
X64371Y5711D01*
X64051Y5540D01*
X63770Y5310D01*
X63540Y5029D01*
X63369Y4709D01*
X63264Y4361D01*
X63228Y4000D01*
X63264Y3639D01*
X63369Y3291D01*
X63467Y3109D01*
X63401Y3000D01*
X61679D01*
X61613Y3109D01*
X61711Y3291D01*
X61816Y3639D01*
X61852Y4000D01*
X61816Y4361D01*
X61711Y4709D01*
X61540Y5029D01*
X61310Y5310D01*
X61029Y5540D01*
X60709Y5711D01*
X60361Y5816D01*
X60000Y5852D01*
X59639Y5816D01*
X59291Y5711D01*
X58971Y5540D01*
X58690Y5310D01*
X58460Y5029D01*
X58289Y4709D01*
X58184Y4361D01*
X58148Y4000D01*
X58184Y3639D01*
X58289Y3291D01*
X58387Y3109D01*
X58321Y3000D01*
X56599D01*
X56533Y3109D01*
X56631Y3291D01*
X56736Y3639D01*
X56772Y4000D01*
X56736Y4361D01*
X56631Y4709D01*
X56460Y5029D01*
X56229Y5310D01*
X55949Y5540D01*
X55629Y5711D01*
X55281Y5816D01*
X54920Y5852D01*
X54559Y5816D01*
X54211Y5711D01*
X53891Y5540D01*
X53610Y5310D01*
X53380Y5029D01*
X53209Y4709D01*
X53104Y4361D01*
X53068Y4000D01*
X53104Y3639D01*
X53193Y3343D01*
X52850Y3000D01*
X45679D01*
X45613Y3109D01*
X45685Y3244D01*
X46080D01*
X46276Y3269D01*
X46458Y3345D01*
X46615Y3465D01*
X49785Y6635D01*
X49905Y6792D01*
X49981Y6974D01*
X49994Y7072D01*
X50006Y7170D01*
X50006Y7170D01*
Y9487D01*
X50032Y9500D01*
X50245Y9675D01*
X50420Y9888D01*
X50550Y10132D01*
X50630Y10396D01*
X50657Y10670D01*
X50630Y10944D01*
X50550Y11208D01*
X50420Y11452D01*
X50245Y11665D01*
X50032Y11840D01*
X49788Y11970D01*
X49524Y12050D01*
X49250Y12077D01*
X48976Y12050D01*
X48712Y11970D01*
X48468Y11840D01*
X48255Y11665D01*
X48080Y11452D01*
X47950Y11208D01*
X47870Y10944D01*
X47843Y10670D01*
X47870Y10396D01*
X47950Y10132D01*
X48080Y9888D01*
X48255Y9675D01*
X48468Y9500D01*
X48494Y9487D01*
Y7483D01*
X45800Y4790D01*
X45660Y4805D01*
X45540Y5029D01*
X45310Y5310D01*
X45029Y5540D01*
X44709Y5711D01*
X44361Y5816D01*
X44000Y5852D01*
X43639Y5816D01*
X43291Y5711D01*
X42971Y5540D01*
X42690Y5310D01*
X42460Y5029D01*
X42289Y4709D01*
X42184Y4361D01*
X42148Y4000D01*
X42184Y3639D01*
X42289Y3291D01*
X42387Y3109D01*
X42321Y3000D01*
X40599D01*
X40533Y3109D01*
X40631Y3291D01*
X40736Y3639D01*
X40772Y4000D01*
X40736Y4361D01*
X40631Y4709D01*
X40460Y5029D01*
X40230Y5310D01*
X39949Y5540D01*
X39629Y5711D01*
X39281Y5816D01*
X38920Y5852D01*
X38559Y5816D01*
X38211Y5711D01*
X37891Y5540D01*
X37611Y5310D01*
X37380Y5029D01*
X37209Y4709D01*
X37104Y4361D01*
X37068Y4000D01*
X37104Y3639D01*
X37209Y3291D01*
X37307Y3109D01*
X37241Y3000D01*
X35519D01*
X35453Y3109D01*
X35551Y3291D01*
X35656Y3639D01*
X35692Y4000D01*
X35656Y4361D01*
X35551Y4709D01*
X35380Y5029D01*
X35150Y5310D01*
X34869Y5540D01*
X34549Y5711D01*
X34201Y5816D01*
X33840Y5852D01*
X33479Y5816D01*
X33131Y5711D01*
X32811Y5540D01*
X32530Y5310D01*
X32300Y5029D01*
X32129Y4709D01*
X32024Y4361D01*
X31988Y4000D01*
X32024Y3639D01*
X32129Y3291D01*
X32227Y3109D01*
X32161Y3000D01*
X30530D01*
X29785Y3745D01*
X29806Y3960D01*
X29781Y4215D01*
X29707Y4460D01*
X29586Y4686D01*
X29424Y4884D01*
X29226Y5046D01*
X29000Y5167D01*
X28755Y5241D01*
X28500Y5266D01*
X28245Y5241D01*
X28000Y5167D01*
X27774Y5046D01*
X27576Y4884D01*
X27414Y4686D01*
X27293Y4460D01*
X27219Y4215D01*
X27194Y3960D01*
X27219Y3705D01*
X27293Y3460D01*
X27414Y3234D01*
X27502Y3127D01*
X27442Y3000D01*
X24759D01*
X24693Y3109D01*
X24791Y3291D01*
X24896Y3639D01*
X24932Y4000D01*
X24896Y4361D01*
X24791Y4709D01*
X24620Y5029D01*
X24389Y5310D01*
X24109Y5540D01*
X23789Y5711D01*
X23441Y5816D01*
X23080Y5852D01*
X22719Y5816D01*
X22371Y5711D01*
X22051Y5540D01*
X21770Y5310D01*
X21540Y5029D01*
X21369Y4709D01*
X21264Y4361D01*
X21228Y4000D01*
X21264Y3639D01*
X21353Y3343D01*
X21010Y3000D01*
X19679D01*
X19613Y3109D01*
X19711Y3291D01*
X19816Y3639D01*
X19852Y4000D01*
X19816Y4361D01*
X19711Y4709D01*
X19540Y5029D01*
X19309Y5310D01*
X19029Y5540D01*
X18709Y5711D01*
X18361Y5816D01*
X18000Y5852D01*
X17639Y5816D01*
X17291Y5711D01*
X16971Y5540D01*
X16690Y5310D01*
X16460Y5029D01*
X16289Y4709D01*
X16271Y4649D01*
X16139Y4650D01*
X16035Y4785D01*
X16035Y4785D01*
X8580Y12240D01*
X8629Y12357D01*
X12405D01*
Y15643D01*
X7595D01*
Y13391D01*
X7478Y13342D01*
X6750Y14070D01*
X6750Y18020D01*
X6859Y18085D01*
X6962Y18030D01*
X7226Y17950D01*
X7500Y17923D01*
X7774Y17950D01*
X8038Y18030D01*
X8282Y18160D01*
X8495Y18335D01*
X8670Y18548D01*
X8800Y18792D01*
X8880Y19056D01*
X8907Y19330D01*
X8880Y19604D01*
X8800Y19868D01*
X8670Y20112D01*
X8495Y20325D01*
X8282Y20500D01*
X8038Y20630D01*
X7774Y20710D01*
X7500Y20737D01*
X7226Y20710D01*
X6962Y20630D01*
X6859Y20575D01*
X6750Y20640D01*
X6750Y25160D01*
X6840Y25250D01*
X22718Y25186D01*
D02*
G37*
%LPC*%
G36*
X12833Y47572D02*
X12300D01*
X12061Y47541D01*
X11838Y47449D01*
X11647Y47302D01*
X11501Y47111D01*
X11409Y46889D01*
X11394Y46777D01*
X12833D01*
Y47572D01*
D02*
G37*
G36*
Y46523D02*
X11394D01*
X11409Y46411D01*
X11501Y46189D01*
X11647Y45998D01*
X11838Y45851D01*
X12061Y45759D01*
X12300Y45728D01*
X12833D01*
Y46523D01*
D02*
G37*
G36*
X35251Y46123D02*
X33127D01*
Y43999D01*
X33354Y44017D01*
X33699Y44100D01*
X34026Y44235D01*
X34329Y44421D01*
X34599Y44651D01*
X34829Y44921D01*
X35015Y45224D01*
X35150Y45551D01*
X35233Y45896D01*
X35251Y46123D01*
D02*
G37*
G36*
X32873D02*
X30749D01*
X30767Y45896D01*
X30850Y45551D01*
X30985Y45224D01*
X31171Y44921D01*
X31401Y44651D01*
X31671Y44421D01*
X31974Y44235D01*
X32301Y44100D01*
X32646Y44017D01*
X32873Y43999D01*
Y46123D01*
D02*
G37*
G36*
X23123Y33880D02*
X23018Y33866D01*
X22802Y33777D01*
X22616Y33634D01*
X22473Y33448D01*
X22384Y33232D01*
X22370Y33127D01*
X23123D01*
Y33880D01*
D02*
G37*
G36*
X32500Y23647D02*
X32268Y23616D01*
X32052Y23527D01*
X32026Y23506D01*
X28224D01*
X28198Y23527D01*
X27982Y23616D01*
X27750Y23647D01*
X27518Y23616D01*
X27302Y23527D01*
X27116Y23384D01*
X26973Y23198D01*
X26884Y22982D01*
X26853Y22750D01*
X26884Y22518D01*
X26973Y22302D01*
X27116Y22116D01*
X27302Y21973D01*
X27518Y21884D01*
X27750Y21853D01*
X27982Y21884D01*
X28198Y21973D01*
X28224Y21994D01*
X32026D01*
X32052Y21973D01*
X32268Y21884D01*
X32500Y21853D01*
X32732Y21884D01*
X32948Y21973D01*
X33134Y22116D01*
X33277Y22302D01*
X33366Y22518D01*
X33397Y22750D01*
X33366Y22982D01*
X33277Y23198D01*
X33134Y23384D01*
X32948Y23527D01*
X32732Y23616D01*
X32500Y23647D01*
D02*
G37*
G36*
X61643Y24405D02*
X58357D01*
Y19595D01*
X61643D01*
Y24405D01*
D02*
G37*
G36*
X19643D02*
X16357D01*
Y19595D01*
X19643D01*
Y24405D01*
D02*
G37*
G36*
X54405Y15643D02*
X49595D01*
Y12357D01*
X54405D01*
Y15643D01*
D02*
G37*
G36*
X49325D02*
X44515D01*
Y12357D01*
X49325D01*
Y15643D01*
D02*
G37*
G36*
X28515Y15643D02*
X28405D01*
X28388Y15643D01*
X23595D01*
Y12357D01*
X28388D01*
X28405Y12357D01*
X28515D01*
X28532Y12357D01*
X33325D01*
Y15643D01*
X28532D01*
X28515Y15643D01*
D02*
G37*
G36*
X28500Y10346D02*
X28245Y10321D01*
X28000Y10247D01*
X27774Y10126D01*
X27576Y9964D01*
X27414Y9766D01*
X27293Y9540D01*
X27219Y9295D01*
X27194Y9040D01*
X27219Y8785D01*
X27293Y8540D01*
X27414Y8314D01*
X27576Y8116D01*
X27774Y7954D01*
X28000Y7833D01*
X28245Y7759D01*
X28500Y7734D01*
X28755Y7759D01*
X29000Y7833D01*
X29226Y7954D01*
X29424Y8116D01*
X29586Y8314D01*
X29707Y8540D01*
X29781Y8785D01*
X29806Y9040D01*
X29781Y9295D01*
X29707Y9540D01*
X29586Y9766D01*
X29424Y9964D01*
X29226Y10126D01*
X29000Y10247D01*
X28755Y10321D01*
X28500Y10346D01*
D02*
G37*
%LPD*%
D13*
X10000Y14000D02*
D03*
X26000D02*
D03*
X46920D02*
D03*
X30920D02*
D03*
X52000D02*
D03*
X68000D02*
D03*
D14*
X18000Y22000D02*
D03*
X38920D02*
D03*
X60000D02*
D03*
D38*
X76713Y64000D02*
X77491Y64778D01*
X62750Y64000D02*
X76713D01*
X58500Y68250D02*
X62750Y64000D01*
X72250Y48460D02*
X78540D01*
X71750D02*
X72250D01*
X29009Y64750D02*
X33000Y60759D01*
Y56500D02*
Y60759D01*
X27500Y68250D02*
X58500D01*
X24000Y64750D02*
X27500Y68250D01*
X87509Y57571D02*
Y64778D01*
Y57571D02*
X89000Y56080D01*
X68930Y46250D02*
Y56500D01*
X86000Y54750D02*
X87330Y56080D01*
X89000D01*
X91552Y53528D01*
X95250D01*
X92651Y45920D02*
X95250Y48519D01*
X89000Y45920D02*
X92651D01*
X86000Y47750D02*
X87830Y45920D01*
X89000D01*
X84830Y48920D02*
X86000Y47750D01*
X79000Y48920D02*
X84830D01*
X78540Y48460D02*
X79000Y48920D01*
X69540Y46250D02*
X71750Y48460D01*
X68930Y46250D02*
X69540D01*
X33000D02*
Y56500D01*
D39*
X16878Y29448D02*
Y32988D01*
X15958Y28528D02*
X16878Y29448D01*
X17250Y35250D02*
Y35250D01*
Y35250D02*
X24500Y28000D01*
X12140Y35250D02*
X17250D01*
X24500Y27540D02*
Y28000D01*
X8607Y31718D02*
X12140Y35250D01*
X65500Y30500D02*
X71750Y24250D01*
X61750Y30500D02*
X65500D01*
X50750Y19500D02*
X61750Y30500D01*
X57818Y36068D02*
X64182D01*
X49000Y27250D02*
X57818Y36068D01*
X49000Y26250D02*
Y27250D01*
X27750Y22750D02*
X32500D01*
X81250Y20500D02*
X88000D01*
X98750Y31250D01*
Y33000D01*
X96750Y35000D02*
X98750Y33000D01*
X96750Y35000D02*
Y38250D01*
X49250Y7170D02*
Y10670D01*
X46080Y4000D02*
X49250Y7170D01*
X46750Y19500D02*
X50750D01*
X49000Y26250D02*
X49250Y26000D01*
Y20830D02*
Y26000D01*
X41250Y25000D02*
X46750Y19500D01*
X24500Y25000D02*
X41250D01*
X23250Y33000D02*
X24920Y31330D01*
X49000D01*
X15000Y56000D02*
X15750Y56750D01*
X15000Y47250D02*
Y56000D01*
X14400Y46650D02*
X15000Y47250D01*
X14400Y46650D02*
X18850D01*
X12960D02*
X14400D01*
X15750Y56750D02*
X17540D01*
X19540Y54750D01*
X26790Y49648D02*
X29148D01*
X29500Y50000D01*
X8056Y26270D02*
X24500D01*
X5798Y28528D02*
X8056Y26270D01*
X23250Y37000D02*
Y39000D01*
X21710Y40540D02*
X23250Y39000D01*
X21710Y40540D02*
Y42028D01*
X34250Y40250D02*
X57500D01*
X26790Y47710D02*
X34250Y40250D01*
X26790Y47710D02*
Y49648D01*
X33250Y38500D02*
X60750D01*
X25750Y46000D02*
X33250Y38500D01*
X22000Y46000D02*
X25750D01*
X79000Y18080D02*
Y22500D01*
X77250Y24250D02*
X79000Y22500D01*
X71750Y24250D02*
X77250D01*
X95000Y30500D02*
Y32908D01*
X90250Y25750D02*
X95000Y30500D01*
X72250Y25750D02*
X90250D01*
X64750Y33250D02*
X72250Y25750D01*
X60750Y33250D02*
X64750D01*
X64182Y36068D02*
X72250D01*
X64182D02*
X73250Y27000D01*
X78500Y28250D02*
X80000Y29750D01*
X74250Y28250D02*
X78500D01*
X72250Y30250D02*
X74250Y28250D01*
X90500Y28500D02*
Y35500D01*
X89000Y27000D02*
X90500Y28500D01*
X73250Y27000D02*
X89000D01*
X16250Y1500D02*
X20580D01*
X15500Y2250D02*
X16250Y1500D01*
X15500Y2250D02*
Y4250D01*
X20580Y1500D02*
X23080Y4000D01*
X6000Y13750D02*
X15500Y4250D01*
X3710Y13750D02*
X6000D01*
X2250Y44500D02*
X8250D01*
X1000Y43250D02*
X2250Y44500D01*
X1000Y27250D02*
Y43250D01*
X19170Y48830D02*
X22000Y46000D01*
X19170Y48830D02*
Y49648D01*
X93750Y34158D02*
X95000Y32908D01*
X68472Y41028D02*
X77000D01*
X64500Y45000D02*
X68472Y41028D01*
X64500Y45000D02*
Y57750D01*
X66000Y59250D01*
X73750D01*
X79000Y54000D01*
X86762Y39238D02*
X90500Y35500D01*
X86130Y39238D02*
X86762D01*
X92488D02*
X93750D01*
X91262D02*
X92488D01*
X86500Y44000D02*
X91262Y39238D01*
X83250Y44000D02*
X86500D01*
X80358Y41108D02*
X83250Y44000D01*
X80000Y41108D02*
X80358D01*
X79920Y41028D02*
X80000Y41108D01*
X77000Y41028D02*
X79920D01*
X4000Y58000D02*
X10750Y64750D01*
X4000Y55830D02*
Y58000D01*
X10750Y64750D02*
X12250D01*
X47500Y27750D02*
X49000Y26250D01*
X24710Y27750D02*
X47500D01*
X24500Y27540D02*
X24710Y27750D01*
X11147Y39338D02*
Y41603D01*
X8250Y44500D02*
X11147Y41603D01*
X8750Y53670D02*
Y55500D01*
Y53670D02*
X13250Y49170D01*
X25000Y55750D02*
X25750Y56500D01*
X33000D01*
X25000Y54750D02*
Y55750D01*
X83000Y31028D02*
X87460D01*
X80000Y29750D02*
Y30948D01*
X72250Y30250D02*
Y33528D01*
X77000Y35188D02*
Y35750D01*
Y35188D02*
X83000Y41188D01*
X77000Y30868D02*
Y35188D01*
X3670Y55500D02*
X4000Y55830D01*
X18850Y46650D02*
X21710Y43790D01*
X6250Y42750D02*
X8607Y40393D01*
Y39338D02*
Y40393D01*
X5320Y49170D02*
X13250D01*
X2800Y46650D02*
X5320Y49170D01*
X9250Y61000D02*
X15750D01*
X6210Y57960D02*
X9250Y61000D01*
X6210Y55500D02*
Y57960D01*
X17259Y64750D02*
X20009Y62000D01*
X26259D01*
X29009Y64750D01*
X38920Y4000D02*
X39000Y4080D01*
X52170Y1250D02*
X54920Y4000D01*
X31210Y1250D02*
X52170D01*
X28500Y3960D02*
X31210Y1250D01*
X44000Y4000D02*
X46080D01*
X96750Y38250D02*
Y42410D01*
X95198Y36698D02*
X96750Y38250D01*
X93750Y36698D02*
X95198D01*
X91750Y38500D02*
X92488Y39238D01*
X91750Y32500D02*
Y38500D01*
Y32500D02*
X92540Y31710D01*
Y31028D02*
Y31710D01*
X86130Y36698D02*
X87552D01*
X89000Y35250D01*
Y34000D02*
Y35250D01*
X87460Y32460D02*
X89000Y34000D01*
X87460Y31028D02*
Y32460D01*
X74142Y38608D02*
X77000Y35750D01*
X72250Y38608D02*
X74142D01*
X26516Y35250D02*
X27250Y35984D01*
X20750Y35250D02*
X26516D01*
X18500Y37500D02*
X20750Y35250D01*
X18500Y41358D02*
X19170Y42028D01*
X18500Y37500D02*
Y41358D01*
X24250Y41016D02*
X27250Y38016D01*
X24250Y41016D02*
Y42028D01*
X8607Y39338D02*
X10945Y37000D01*
X15809D01*
X16878Y38068D01*
X16116Y33750D02*
X16878Y32988D01*
X13180Y33750D02*
X16116D01*
X11147Y31718D02*
X13180Y33750D01*
X20428Y28528D02*
X20478Y28578D01*
X15958Y28528D02*
X20428D01*
X3000Y14460D02*
X3710Y13750D01*
X7500Y9170D02*
X12670Y4000D01*
X12920D01*
X3670Y28528D02*
X5798D01*
X2750Y29448D02*
X3670Y28528D01*
X2750Y37750D02*
Y39608D01*
Y37750D02*
X8607Y31893D01*
Y31718D02*
Y31893D01*
X2670Y42750D02*
X6250D01*
X17259Y62509D02*
Y64750D01*
X15750Y61000D02*
X17259Y62509D01*
X21710Y42028D02*
Y43790D01*
X26790Y54000D02*
X27540Y54750D01*
X26790Y49648D02*
Y54000D01*
X17000Y51818D02*
X19170Y49648D01*
X17000Y51818D02*
Y54750D01*
X19540D02*
X25000D01*
D40*
X72250Y53540D02*
X72710Y54000D01*
X79000D01*
X79750Y54750D01*
X86000D01*
D41*
X8750Y55500D02*
D03*
D42*
X6210D02*
D03*
X3670D02*
D03*
X17259Y64750D02*
D03*
X12250D02*
D03*
X29009D02*
D03*
X24000D02*
D03*
X77491Y64778D02*
D03*
X82500D02*
D03*
X87509D02*
D03*
X72250Y36068D02*
D03*
Y33528D02*
D03*
X95250Y53528D02*
D03*
Y48519D02*
D03*
D43*
X20478Y28578D02*
D03*
Y38738D02*
D03*
X77000Y41028D02*
D03*
Y30868D02*
D03*
D44*
X27250Y38016D02*
D03*
Y35984D02*
D03*
X25000Y54750D02*
D03*
X27540D02*
D03*
X79000Y48920D02*
D03*
Y54000D02*
D03*
X17000Y54750D02*
D03*
X19540D02*
D03*
X49000Y31330D02*
D03*
Y26250D02*
D03*
D45*
X13250Y59330D02*
D03*
Y49170D02*
D03*
X89000Y45920D02*
D03*
Y56080D02*
D03*
X15958Y28528D02*
D03*
X5798D02*
D03*
X80000Y30948D02*
D03*
Y41108D02*
D03*
X83000Y31028D02*
D03*
Y41188D02*
D03*
X96750Y42410D02*
D03*
Y32250D02*
D03*
X2750Y29448D02*
D03*
Y39608D02*
D03*
X12830Y42750D02*
D03*
X2670D02*
D03*
X49250Y10670D02*
D03*
Y20830D02*
D03*
X83750Y17910D02*
D03*
Y7750D02*
D03*
X79000Y7920D02*
D03*
Y18080D02*
D03*
X7500Y19330D02*
D03*
Y9170D02*
D03*
D46*
X2800Y46650D02*
D03*
X12960D02*
D03*
D47*
X4750Y65028D02*
D03*
X5000Y5000D02*
D03*
X94750Y65028D02*
D03*
X95000Y5000D02*
D03*
D48*
X86000Y54750D02*
D03*
Y47750D02*
D03*
X86130Y34158D02*
D03*
Y36698D02*
D03*
Y39238D02*
D03*
Y41778D02*
D03*
X93750Y34158D02*
D03*
Y36698D02*
D03*
Y39238D02*
D03*
X24250Y42028D02*
D03*
X21710D02*
D03*
X19170D02*
D03*
X26790Y49648D02*
D03*
X24250D02*
D03*
X21710D02*
D03*
X19170D02*
D03*
X13687Y31718D02*
D03*
X11147D02*
D03*
X8607D02*
D03*
X6067D02*
D03*
X13687Y39338D02*
D03*
X11147D02*
D03*
X8607D02*
D03*
D49*
X33000Y56500D02*
D03*
X68930D02*
D03*
X33000Y46250D02*
D03*
X68930D02*
D03*
D50*
X24500Y25000D02*
D03*
Y26270D02*
D03*
D51*
Y27540D02*
D03*
D52*
X72250Y38608D02*
D03*
D53*
X72250Y48460D02*
D03*
Y53540D02*
D03*
X92540Y31028D02*
D03*
X87460D02*
D03*
X16878Y32988D02*
D03*
Y38068D02*
D03*
X28500Y9040D02*
D03*
Y3960D02*
D03*
X3000Y19540D02*
D03*
Y17000D02*
D03*
D54*
X93750Y41778D02*
D03*
D55*
X26790Y42028D02*
D03*
X6067Y39338D02*
D03*
D56*
X12920Y4000D02*
D03*
X18000D02*
D03*
X23080D02*
D03*
X44000D02*
D03*
X38920D02*
D03*
X33840D02*
D03*
X54920D02*
D03*
X60000D02*
D03*
X65080D02*
D03*
D57*
X75000Y16000D02*
D03*
Y7000D02*
D03*
D58*
X72460Y16000D02*
D03*
Y7000D02*
D03*
D59*
X3000Y14460D02*
D03*
D60*
X32500Y22750D02*
D03*
X27750D02*
D03*
X81250Y20500D02*
D03*
X23250Y33000D02*
D03*
X29500Y50000D02*
D03*
X1000Y27000D02*
D03*
X23250Y37000D02*
D03*
X57500Y40250D02*
D03*
X60750Y38500D02*
D03*
Y33250D02*
D03*
D61*
X33250Y33778D02*
D03*
X67250Y67778D02*
D03*
M02*
