M48
;Layer_Color=9474304
;FILE_FORMAT=4:3
METRIC,LZ
;TYPE=PLATED
T1F00S00C0.700
T2F00S00C0.711
T3F00S00C0.762
T4F00S00C0.800
T5F00S00C0.813
T6F00S00C0.850
T7F00S00C0.900
T8F00S00C1.200
T9F00S00C1.524
T10F00S00C2.000
T11F00S00C3.000
T12F00S00C3.600
%
T01
X00285Y000396
Y000904
X008746Y0031028
X009254
X007225Y004846
Y005354
X0016878Y0038068
Y0032988
X0003Y001954
Y0017
Y001446
T02
X006075Y003325
Y00385
X00575Y004025
X008125Y00205
X00325Y002275
X002775
X002325Y0033
Y0037
X00295Y005
X0001Y0027
T03
X0079Y004892
X0049Y003133
Y002625
X002725Y0035984
Y0038016
X002754Y005475
X0025
X001954
X0017
X0079Y0054
T04
X007246Y0007
X0075
Y0016
X007246
T05
X0077Y0030868
Y0041028
X0020478Y0038738
Y0028578
X001296Y004665
X00028
T06
X00075Y000917
X004925Y001067
X0079Y000792
X008375Y000775
X009675Y003225
Y004241
X0089Y004592
X0083Y0041188
X008Y0041108
Y0030948
X0083Y0031028
X008375Y001791
X0079Y001808
X004925Y002083
X0015958Y0028528
X0005798
X000275Y0029448
Y0039608
X000267Y004275
X001283
X001325Y004917
X00075Y001933
X001325Y005933
X0089Y005608
T07
X009375Y0034158
Y0036698
Y0039238
Y0041778
X008613
Y0039238
Y0036698
Y0034158
X0086Y004775
X002679Y0049648
X002425
X002171
X001917
Y0042028
X002171
X002425
X002679
X00245Y002754
Y002627
Y0025
X0013687Y0031718
X0011147
X0008607
X0006067
Y0039338
X0008607
X0011147
X0013687
X0086Y005475
T08
X009525Y0048519
Y0053528
X007225Y0038608
Y0036068
Y0033528
X000875Y00555
X000621
X000367
X001225Y006475
X0017259
X0024
X0029009
X0077491Y0064778
X00825
X0087509
T09
X001292Y0004
X0018
X002308
X003384
X003892
X0044
X005492
X006
X006508
T10
X006893Y004625
X0033
Y00565
X006893
T11
X003325Y0033778
X006725Y0067778
T12
X0005Y0005
X0095
X000475Y0065028
X009475
M30
