G04*
G04 #@! TF.GenerationSoftware,Altium Limited,Altium Designer,18.0.7 (293)*
G04*
G04 Layer_Color=8388736*
%FSLAX43Y43*%
%MOMM*%
G71*
G01*
G75*
%ADD15R,4.013X2.489*%
%ADD16R,2.489X4.013*%
%ADD17R,2.203X2.203*%
%ADD18C,2.203*%
%ADD19O,1.524X2.845*%
%ADD20C,1.727*%
%ADD21C,1.603*%
%ADD22O,2.845X1.524*%
%ADD23C,6.303*%
%ADD24C,1.703*%
%ADD25C,4.203*%
%ADD26O,2.203X1.203*%
%ADD27O,2.203X1.203*%
%ADD28R,2.203X2.203*%
%ADD29C,1.403*%
%ADD30R,1.703X1.703*%
%ADD31R,1.703X1.703*%
%ADD32C,2.489*%
%ADD33R,1.803X1.803*%
%ADD34C,1.803*%
%ADD35R,1.403X1.403*%
%ADD36C,1.473*%
%ADD37C,3.203*%
D15*
X10000Y14000D02*
D03*
X26000D02*
D03*
X46920D02*
D03*
X30920D02*
D03*
X52000D02*
D03*
X68000D02*
D03*
D16*
X18000Y22000D02*
D03*
X38920D02*
D03*
X60000D02*
D03*
D17*
X8750Y55500D02*
D03*
D18*
X6210D02*
D03*
X3670D02*
D03*
X17259Y64750D02*
D03*
X12250D02*
D03*
X29009D02*
D03*
X24000D02*
D03*
X77491Y64778D02*
D03*
X82500D02*
D03*
X87509D02*
D03*
X72250Y36068D02*
D03*
Y33528D02*
D03*
X95250Y53528D02*
D03*
Y48519D02*
D03*
D19*
X20478Y28578D02*
D03*
Y38738D02*
D03*
X77000Y41028D02*
D03*
Y30868D02*
D03*
D20*
X27250Y38016D02*
D03*
Y35984D02*
D03*
X25000Y54750D02*
D03*
X27540D02*
D03*
X79000Y48920D02*
D03*
Y54000D02*
D03*
X17000Y54750D02*
D03*
X19540D02*
D03*
X49000Y31330D02*
D03*
Y26250D02*
D03*
D21*
X13250Y59330D02*
D03*
Y49170D02*
D03*
X89000Y45920D02*
D03*
Y56080D02*
D03*
X15958Y28528D02*
D03*
X5798D02*
D03*
X80000Y30948D02*
D03*
Y41108D02*
D03*
X83000Y31028D02*
D03*
Y41188D02*
D03*
X96750Y42410D02*
D03*
Y32250D02*
D03*
X2750Y29448D02*
D03*
Y39608D02*
D03*
X12830Y42750D02*
D03*
X2670D02*
D03*
X49250Y10670D02*
D03*
Y20830D02*
D03*
X83750Y17910D02*
D03*
Y7750D02*
D03*
X79000Y7920D02*
D03*
Y18080D02*
D03*
X7500Y19330D02*
D03*
Y9170D02*
D03*
D22*
X2800Y46650D02*
D03*
X12960D02*
D03*
D23*
X4750Y65028D02*
D03*
X5000Y5000D02*
D03*
X94750Y65028D02*
D03*
X95000Y5000D02*
D03*
D24*
X86000Y54750D02*
D03*
Y47750D02*
D03*
X86130Y34158D02*
D03*
Y36698D02*
D03*
Y39238D02*
D03*
Y41778D02*
D03*
X93750Y34158D02*
D03*
Y36698D02*
D03*
Y39238D02*
D03*
X24250Y42028D02*
D03*
X21710D02*
D03*
X19170D02*
D03*
X26790Y49648D02*
D03*
X24250D02*
D03*
X21710D02*
D03*
X19170D02*
D03*
X13687Y31718D02*
D03*
X11147D02*
D03*
X8607D02*
D03*
X6067D02*
D03*
X13687Y39338D02*
D03*
X11147D02*
D03*
X8607D02*
D03*
D25*
X33000Y56500D02*
D03*
X68930D02*
D03*
X33000Y46250D02*
D03*
X68930D02*
D03*
D26*
X24500Y25000D02*
D03*
Y26270D02*
D03*
D27*
Y27540D02*
D03*
D28*
X72250Y38608D02*
D03*
D29*
X72250Y48460D02*
D03*
Y53540D02*
D03*
X92540Y31028D02*
D03*
X87460D02*
D03*
X16878Y32988D02*
D03*
Y38068D02*
D03*
X28500Y9040D02*
D03*
Y3960D02*
D03*
X3000Y19540D02*
D03*
Y17000D02*
D03*
D30*
X93750Y41778D02*
D03*
D31*
X26790Y42028D02*
D03*
X6067Y39338D02*
D03*
D32*
X12920Y4000D02*
D03*
X18000D02*
D03*
X23080D02*
D03*
X44000D02*
D03*
X38920D02*
D03*
X33840D02*
D03*
X54920D02*
D03*
X60000D02*
D03*
X65080D02*
D03*
D33*
X75000Y16000D02*
D03*
Y7000D02*
D03*
D34*
X72460Y16000D02*
D03*
Y7000D02*
D03*
D35*
X3000Y14460D02*
D03*
D36*
X32500Y22750D02*
D03*
X27750D02*
D03*
X81250Y20500D02*
D03*
X23250Y33000D02*
D03*
X29500Y50000D02*
D03*
X1000Y27000D02*
D03*
X23250Y37000D02*
D03*
X57500Y40250D02*
D03*
X60750Y38500D02*
D03*
Y33250D02*
D03*
D37*
X33250Y33778D02*
D03*
X67250Y67778D02*
D03*
M02*
