G04*
G04 #@! TF.GenerationSoftware,Altium Limited,Altium Designer,18.0.7 (293)*
G04*
G04 Layer_Color=32896*
%FSLAX43Y43*%
%MOMM*%
G71*
G01*
G75*
%ADD10C,0.203*%
%ADD11C,0.254*%
%ADD12C,0.200*%
%ADD62C,0.250*%
%ADD63C,0.152*%
%ADD64C,0.600*%
%ADD65C,0.100*%
G36*
X12071Y46396D02*
X10166D01*
Y46904D01*
X12071D01*
Y46396D01*
D02*
G37*
G36*
X5594D02*
X3689D01*
Y46904D01*
X5594D01*
Y46396D01*
D02*
G37*
G36*
X6483Y45634D02*
X5975D01*
Y47666D01*
X6483D01*
Y45634D01*
D02*
G37*
G36*
X77254Y38234D02*
X76746D01*
Y40139D01*
X77254D01*
Y38234D01*
D02*
G37*
G36*
X20732Y35944D02*
X20224D01*
Y37849D01*
X20732D01*
Y35944D01*
D02*
G37*
G36*
X78016Y34043D02*
X75984D01*
Y34551D01*
X78016D01*
Y34043D01*
D02*
G37*
G36*
X77254Y31757D02*
X76746D01*
Y33662D01*
X77254D01*
Y31757D01*
D02*
G37*
G36*
X21494Y31753D02*
X19462D01*
Y32261D01*
X21494D01*
Y31753D01*
D02*
G37*
G36*
X20732Y29467D02*
X20224D01*
Y31372D01*
X20732D01*
Y29467D01*
D02*
G37*
D10*
X29750Y37000D02*
G03*
X29750Y37000I-2500J0D01*
G01*
X29420Y54750D02*
G03*
X29420Y54750I-3150J0D01*
G01*
X84000Y51460D02*
G03*
X84000Y51460I-5000J0D01*
G01*
X21420Y54750D02*
G03*
X21420Y54750I-3150J0D01*
G01*
X54000Y28790D02*
G03*
X54000Y28790I-5000J0D01*
G01*
X89305Y43118D02*
G03*
X90575Y43118I635J0D01*
G01*
X28130Y46473D02*
G03*
X28130Y45203I0J-635D01*
G01*
X4727Y34893D02*
G03*
X4727Y36163I0J635D01*
G01*
X72250Y49349D02*
Y50746D01*
X71742D02*
X72758D01*
X71742Y51254D02*
X72758D01*
X72250D02*
Y52651D01*
X71234Y47444D02*
X73266D01*
Y54556D01*
X71234D02*
X73266D01*
X71234Y47444D02*
Y54556D01*
X90254Y31028D02*
X91651D01*
X90254Y30520D02*
Y31536D01*
X89746Y30520D02*
Y31536D01*
X88349Y31028D02*
X89746D01*
X93556Y30012D02*
Y32044D01*
X86444D02*
X93556D01*
X86444Y30012D02*
Y32044D01*
Y30012D02*
X93556D01*
X87290Y43118D02*
X89305D01*
X87290Y32818D02*
Y43118D01*
Y32818D02*
X92590D01*
X90575Y43118D02*
X92590D01*
Y32818D02*
Y43118D01*
X17830Y43188D02*
X28130D01*
Y45203D01*
X17830Y43188D02*
Y48488D01*
X28130D01*
Y46473D02*
Y48488D01*
X16878Y33877D02*
Y35274D01*
X16369D02*
X17385D01*
X16369Y35782D02*
X17385D01*
X16878D02*
Y37179D01*
X15861Y31972D02*
X17893D01*
Y39084D01*
X15861D02*
X17893D01*
X15861Y31972D02*
Y39084D01*
X4727Y32878D02*
Y34893D01*
Y32878D02*
X15027D01*
Y38178D01*
X4727Y36163D02*
Y38178D01*
X15027D01*
X28500Y6754D02*
Y8151D01*
X27992Y6754D02*
X29008D01*
X27992Y6246D02*
X29008D01*
X28500Y4849D02*
Y6246D01*
X27484Y10056D02*
X29516D01*
X27484Y2944D02*
Y10056D01*
Y2944D02*
X29516D01*
Y10056D01*
X27388Y40800D02*
Y39784D01*
X26880Y40292D02*
X27896D01*
X30770Y54712D02*
X29754D01*
X30262Y55220D02*
Y54204D01*
X79000Y57810D02*
Y56794D01*
X78492Y57302D02*
X79508D01*
X22770Y54712D02*
X21754D01*
X22262Y55220D02*
Y54204D01*
X49000Y22440D02*
Y23456D01*
X49508Y22948D02*
X48492D01*
X90456Y35393D02*
X89440D01*
Y36070D01*
X90456Y37086D02*
Y36409D01*
X89948D01*
Y36747D01*
Y36409D01*
X89440D01*
X90286Y37424D02*
X90456Y37594D01*
Y37932D01*
X90286Y38101D01*
X90117D01*
X89948Y37932D01*
Y37763D01*
Y37932D01*
X89779Y38101D01*
X89609D01*
X89440Y37932D01*
Y37594D01*
X89609Y37424D01*
X90456Y39117D02*
Y38440D01*
X89948D01*
X90117Y38778D01*
Y38948D01*
X89948Y39117D01*
X89609D01*
X89440Y38948D01*
Y38609D01*
X89609Y38440D01*
X90456Y40133D02*
X90286Y39794D01*
X89948Y39456D01*
X89609D01*
X89440Y39625D01*
Y39963D01*
X89609Y40133D01*
X89779D01*
X89948Y39963D01*
Y39456D01*
X19280Y45272D02*
X19618D01*
X19449D01*
Y46288D01*
X19280D01*
X19618D01*
X20803Y45442D02*
X20634Y45272D01*
X20296D01*
X20126Y45442D01*
Y46119D01*
X20296Y46288D01*
X20634D01*
X20803Y46119D01*
X21142Y45272D02*
Y46288D01*
X21819D01*
X22158Y45272D02*
X22835D01*
Y45442D01*
X22158Y46119D01*
Y46288D01*
X23850Y45272D02*
X23512Y45442D01*
X23173Y45780D01*
Y46119D01*
X23343Y46288D01*
X23681D01*
X23850Y46119D01*
Y45949D01*
X23681Y45780D01*
X23173D01*
X24866Y45272D02*
X24528Y45442D01*
X24189Y45780D01*
Y46119D01*
X24358Y46288D01*
X24697D01*
X24866Y46119D01*
Y45949D01*
X24697Y45780D01*
X24189D01*
X25205Y45442D02*
X25374Y45272D01*
X25713D01*
X25882Y45442D01*
Y46119D01*
X25713Y46288D01*
X25374D01*
X25205Y46119D01*
Y45442D01*
X12453Y36044D02*
Y35028D01*
X11775D01*
X10760Y36044D02*
X11437D01*
Y35536D01*
X11098D01*
X11437D01*
Y35028D01*
X10421Y35874D02*
X10252Y36044D01*
X9913D01*
X9744Y35874D01*
Y35705D01*
X9913Y35536D01*
X10083D01*
X9913D01*
X9744Y35367D01*
Y35197D01*
X9913Y35028D01*
X10252D01*
X10421Y35197D01*
X8728Y36044D02*
X9405D01*
Y35536D01*
X9067Y35705D01*
X8898D01*
X8728Y35536D01*
Y35197D01*
X8898Y35028D01*
X9236D01*
X9405Y35197D01*
X7713Y36044D02*
X8051Y35874D01*
X8390Y35536D01*
Y35197D01*
X8221Y35028D01*
X7882D01*
X7713Y35197D01*
Y35367D01*
X7882Y35536D01*
X8390D01*
D11*
X18841Y64750D02*
G03*
X18841Y64750I-1581J0D01*
G01*
X13841D02*
G03*
X13841Y64750I-1581J0D01*
G01*
X30591D02*
G03*
X30591Y64750I-1581J0D01*
G01*
X25591D02*
G03*
X25591Y64750I-1581J0D01*
G01*
X22564Y25000D02*
G03*
X22564Y25000I-164J0D01*
G01*
X79072Y64778D02*
G03*
X79072Y64778I-1581J0D01*
G01*
X84081D02*
G03*
X84081Y64778I-1581J0D01*
G01*
X89081D02*
G03*
X89081Y64778I-1581J0D01*
G01*
X96831Y53519D02*
G03*
X96831Y53519I-1581J0D01*
G01*
Y48519D02*
G03*
X96831Y48519I-1581J0D01*
G01*
X13250Y57250D02*
Y58250D01*
X12750Y56750D02*
X13250Y57250D01*
X13750Y55750D02*
Y55750D01*
X12750Y54750D02*
X13750Y55750D01*
X12750Y54750D02*
X13750Y53750D01*
Y53750D02*
Y53750D01*
X12750Y52750D02*
X13750Y53750D01*
X12750Y52750D02*
Y52750D01*
Y52750D02*
X13750Y51750D01*
X13250Y51250D02*
X13750Y51750D01*
X13250Y50250D02*
Y51250D01*
X12750Y56750D02*
X13050Y56450D01*
X13150Y56350D01*
X13350Y56150D02*
X13750Y55750D01*
X13350Y56150D02*
Y56150D01*
X13150Y56350D02*
X13350Y56150D01*
X89000Y47000D02*
Y48000D01*
X89500Y48500D01*
X88500Y49500D02*
Y49500D01*
X89500Y50500D01*
X88500Y51500D02*
X89500Y50500D01*
X88500Y51500D02*
Y51500D01*
X89500Y52500D01*
Y52500D01*
X88500Y53500D02*
X89500Y52500D01*
X88500Y53500D02*
X89000Y54000D01*
Y55000D01*
X89200Y48800D02*
X89500Y48500D01*
X89100Y48900D02*
X89200Y48800D01*
X88500Y49500D02*
X88900Y49100D01*
Y49100D02*
Y49100D01*
Y49100D02*
X89100Y48900D01*
X13878Y28528D02*
X14878D01*
X13378Y29028D02*
X13878Y28528D01*
X12377Y28028D02*
X12378D01*
X11378Y29028D02*
X12377Y28028D01*
X10378D02*
X11378Y29028D01*
X10378Y28028D02*
X10378D01*
X9378Y29028D02*
X10378Y28028D01*
X9377Y29028D02*
X9378D01*
X8378Y28028D02*
X9377Y29028D01*
X7878Y28528D02*
X8378Y28028D01*
X6878Y28528D02*
X7878D01*
X13078Y28728D02*
X13378Y29028D01*
X12978Y28628D02*
X13078Y28728D01*
X12378Y28028D02*
X12778Y28428D01*
X12778D01*
X12978Y28628D01*
X80000Y32028D02*
Y33028D01*
X80500Y33528D01*
X79500Y34528D02*
Y34528D01*
X80500Y35528D01*
X79500Y36528D02*
X80500Y35528D01*
X79500Y36528D02*
Y36528D01*
X80500Y37528D01*
Y37528D01*
X79500Y38528D02*
X80500Y37528D01*
X79500Y38528D02*
X80000Y39028D01*
Y40028D01*
X80200Y33828D02*
X80500Y33528D01*
X80100Y33928D02*
X80200Y33828D01*
X79500Y34528D02*
X79900Y34128D01*
Y34128D02*
Y34128D01*
Y34128D02*
X80100Y33928D01*
X83000Y32108D02*
Y33108D01*
X83500Y33608D01*
X82500Y34608D02*
Y34608D01*
X83500Y35608D01*
X82500Y36608D02*
X83500Y35608D01*
X82500Y36608D02*
Y36608D01*
X83500Y37608D01*
Y37608D01*
X82500Y38608D02*
X83500Y37608D01*
X82500Y38608D02*
X83000Y39108D01*
Y40108D01*
X83200Y33908D02*
X83500Y33608D01*
X83100Y34008D02*
X83200Y33908D01*
X82500Y34608D02*
X82900Y34208D01*
Y34208D02*
Y34208D01*
Y34208D02*
X83100Y34008D01*
X96650Y35430D02*
X96850Y35230D01*
X96650Y35430D02*
Y35430D01*
X96250Y35830D02*
X96650Y35430D01*
X96850Y35230D02*
X96950Y35130D01*
X97250Y34830D01*
X96750Y40330D02*
Y41330D01*
X96250Y39830D02*
X96750Y40330D01*
X96250Y39830D02*
X97250Y38830D01*
Y38830D02*
Y38830D01*
X96250Y37830D02*
X97250Y38830D01*
X96250Y37830D02*
Y37830D01*
Y37830D02*
X97250Y36830D01*
X96250Y35830D02*
X97250Y36830D01*
X96250Y35830D02*
Y35830D01*
X96750Y34330D02*
X97250Y34830D01*
X96750Y33330D02*
Y34330D01*
X2650Y36628D02*
X2850Y36428D01*
Y36428D02*
Y36428D01*
Y36428D02*
X3250Y36028D01*
X2550Y36728D02*
X2650Y36628D01*
X2250Y37028D02*
X2550Y36728D01*
X2750Y30528D02*
Y31528D01*
X3250Y32028D01*
X2250Y33028D02*
X3250Y32028D01*
X2250Y33028D02*
Y33028D01*
X3250Y34028D01*
Y34028D01*
X2250Y35028D02*
X3250Y34028D01*
X2250Y35028D02*
X3250Y36028D01*
Y36028D01*
X2250Y37028D02*
X2750Y37528D01*
Y38528D01*
X5650Y42650D02*
X5850Y42850D01*
X5850D01*
X6250Y43250D01*
X5550Y42550D02*
X5650Y42650D01*
X5250Y42250D02*
X5550Y42550D01*
X10750Y42750D02*
X11750D01*
X10250Y43250D02*
X10750Y42750D01*
X9250Y42250D02*
X10250Y43250D01*
X9250Y42250D02*
X9250D01*
X8250Y43250D02*
X9250Y42250D01*
X8250Y43250D02*
X8250D01*
X7250Y42250D02*
X8250Y43250D01*
X6250D02*
X7250Y42250D01*
X6250Y43250D02*
X6250D01*
X4750Y42750D02*
X5250Y42250D01*
X3750Y42750D02*
X4750D01*
X49150Y17850D02*
X49350Y17650D01*
Y17650D02*
Y17650D01*
Y17650D02*
X49750Y17250D01*
X49050Y17950D02*
X49150Y17850D01*
X48750Y18250D02*
X49050Y17950D01*
X49250Y11750D02*
Y12750D01*
X49750Y13250D01*
X48750Y14250D02*
X49750Y13250D01*
X48750Y14250D02*
Y14250D01*
X49750Y15250D01*
Y15250D01*
X48750Y16250D02*
X49750Y15250D01*
X48750Y16250D02*
X49750Y17250D01*
Y17250D01*
X48750Y18250D02*
X49250Y18750D01*
Y19750D01*
X83650Y10930D02*
X83850Y10730D01*
X83650Y10930D02*
Y10930D01*
X83250Y11330D02*
X83650Y10930D01*
X83850Y10730D02*
X83950Y10630D01*
X84250Y10330D01*
X83750Y15830D02*
Y16830D01*
X83250Y15330D02*
X83750Y15830D01*
X83250Y15330D02*
X84250Y14330D01*
Y14330D02*
Y14330D01*
X83250Y13330D02*
X84250Y14330D01*
X83250Y13330D02*
Y13330D01*
Y13330D02*
X84250Y12330D01*
X83250Y11330D02*
X84250Y12330D01*
X83250Y11330D02*
Y11330D01*
X83750Y9830D02*
X84250Y10330D01*
X83750Y8830D02*
Y9830D01*
X78900Y15100D02*
X79100Y14900D01*
Y14900D02*
Y14900D01*
Y14900D02*
X79500Y14500D01*
X78800Y15200D02*
X78900Y15100D01*
X78500Y15500D02*
X78800Y15200D01*
X79000Y9000D02*
Y10000D01*
X79500Y10500D01*
X78500Y11500D02*
X79500Y10500D01*
X78500Y11500D02*
Y11500D01*
X79500Y12500D01*
Y12500D01*
X78500Y13500D02*
X79500Y12500D01*
X78500Y13500D02*
X79500Y14500D01*
Y14500D01*
X78500Y15500D02*
X79000Y16000D01*
Y17000D01*
X7400Y12350D02*
X7600Y12150D01*
X7400Y12350D02*
Y12350D01*
X7000Y12750D02*
X7400Y12350D01*
X7600Y12150D02*
X7700Y12050D01*
X8000Y11750D01*
X7500Y17250D02*
Y18250D01*
X7000Y16750D02*
X7500Y17250D01*
X7000Y16750D02*
X8000Y15750D01*
Y15750D02*
Y15750D01*
X7000Y14750D02*
X8000Y15750D01*
X7000Y14750D02*
Y14750D01*
Y14750D02*
X8000Y13750D01*
X7000Y12750D02*
X8000Y13750D01*
X7000Y12750D02*
Y12750D01*
X7500Y11250D02*
X8000Y11750D01*
X7500Y10250D02*
Y11250D01*
X3750Y60774D02*
Y59504D01*
X3496Y59250D01*
X2988D01*
X2734Y59504D01*
Y60774D01*
X2226Y59250D02*
X1719D01*
X1973D01*
Y60774D01*
X2226Y60520D01*
X89844Y69632D02*
Y71155D01*
X89082D01*
X88828Y70901D01*
Y70393D01*
X89082Y70139D01*
X89844D01*
X88320Y70901D02*
X88066Y71155D01*
X87559D01*
X87305Y70901D01*
Y70647D01*
X87559Y70393D01*
X87812D01*
X87559D01*
X87305Y70139D01*
Y69886D01*
X87559Y69632D01*
X88066D01*
X88320Y69886D01*
X12278Y55250D02*
X10754D01*
Y54488D01*
X11008Y54234D01*
X11516D01*
X11770Y54488D01*
Y55250D01*
Y54742D02*
X12278Y54234D01*
Y52711D02*
Y53726D01*
X11262Y52711D01*
X11008D01*
X10754Y52965D01*
Y53473D01*
X11008Y53726D01*
X98797Y57484D02*
Y59008D01*
X98035D01*
X97781Y58754D01*
Y58246D01*
X98035Y57992D01*
X98797D01*
X96512Y57484D02*
Y59008D01*
X97273Y58246D01*
X96258D01*
X9250Y49496D02*
Y47972D01*
X8488D01*
X8234Y48226D01*
Y49242D01*
X8488Y49496D01*
X9250D01*
X6711D02*
X7219Y49242D01*
X7726Y48734D01*
Y48226D01*
X7473Y47972D01*
X6965D01*
X6711Y48226D01*
Y48480D01*
X6965Y48734D01*
X7726D01*
X55230Y28984D02*
X54976Y29238D01*
Y29746D01*
X55230Y30000D01*
X56246D01*
X56500Y29746D01*
Y29238D01*
X56246Y28984D01*
Y28476D02*
X56500Y28223D01*
Y27715D01*
X56246Y27461D01*
X55230D01*
X54976Y27715D01*
Y28223D01*
X55230Y28476D01*
X55484D01*
X55738Y28223D01*
Y27461D01*
X92250Y45024D02*
Y43754D01*
X91996Y43500D01*
X91488D01*
X91234Y43754D01*
Y45024D01*
X89965Y43500D02*
Y45024D01*
X90726Y44262D01*
X89711D01*
X16250Y42024D02*
Y40754D01*
X15996Y40500D01*
X15488D01*
X15234Y40754D01*
Y42024D01*
X14726Y41770D02*
X14473Y42024D01*
X13965D01*
X13711Y41770D01*
Y41516D01*
X13965Y41262D01*
X14219D01*
X13965D01*
X13711Y41008D01*
Y40754D01*
X13965Y40500D01*
X14473D01*
X14726Y40754D01*
X30024Y44500D02*
X28754D01*
X28500Y44754D01*
Y45262D01*
X28754Y45516D01*
X30024D01*
X28500Y47039D02*
Y46024D01*
X29516Y47039D01*
X29770D01*
X30024Y46785D01*
Y46277D01*
X29770Y46024D01*
X92000Y60222D02*
X90477D01*
Y59460D01*
X90730Y59206D01*
X91238D01*
X91492Y59460D01*
Y60222D01*
Y59714D02*
X92000Y59206D01*
Y58698D02*
Y58191D01*
Y58445D01*
X90477D01*
X90730Y58698D01*
Y57429D02*
X90477Y57175D01*
Y56667D01*
X90730Y56413D01*
X90984D01*
X91238Y56667D01*
X91492Y56413D01*
X91746D01*
X92000Y56667D01*
Y57175D01*
X91746Y57429D01*
X91492D01*
X91238Y57175D01*
X90984Y57429D01*
X90730D01*
X91238Y57175D02*
Y56667D01*
X10000Y43500D02*
Y45024D01*
X9238D01*
X8984Y44770D01*
Y44262D01*
X9238Y44008D01*
X10000D01*
X9492D02*
X8984Y43500D01*
X8476D02*
X7969D01*
X8223D01*
Y45024D01*
X8476Y44770D01*
X7207Y45024D02*
X6191D01*
Y44770D01*
X7207Y43754D01*
Y43500D01*
X6750Y20500D02*
X8274D01*
Y21262D01*
X8020Y21516D01*
X7512D01*
X7258Y21262D01*
Y20500D01*
Y21008D02*
X6750Y21516D01*
Y22024D02*
Y22531D01*
Y22277D01*
X8274D01*
X8020Y22024D01*
X8274Y24309D02*
Y23293D01*
X7512D01*
X7766Y23801D01*
Y24055D01*
X7512Y24309D01*
X7004D01*
X6750Y24055D01*
Y23547D01*
X7004Y23293D01*
X79948Y19644D02*
Y21167D01*
X79186D01*
X78932Y20913D01*
Y20405D01*
X79186Y20151D01*
X79948D01*
X79440D02*
X78932Y19644D01*
X78424D02*
X77917D01*
X78171D01*
Y21167D01*
X78424Y20913D01*
X76393Y19644D02*
Y21167D01*
X77155Y20405D01*
X76139D01*
X82250Y42750D02*
X83774D01*
Y43512D01*
X83520Y43766D01*
X83012D01*
X82758Y43512D01*
Y42750D01*
Y43258D02*
X82250Y43766D01*
Y44274D02*
Y44781D01*
Y44527D01*
X83774D01*
X83520Y44274D01*
X82250Y46559D02*
Y45543D01*
X83266Y46559D01*
X83520D01*
X83774Y46305D01*
Y45797D01*
X83520Y45543D01*
X97750Y35330D02*
X99274D01*
Y36092D01*
X99020Y36346D01*
X98512D01*
X98258Y36092D01*
Y35330D01*
Y35838D02*
X97750Y36346D01*
Y36854D02*
Y37361D01*
Y37107D01*
X99274D01*
X99020Y36854D01*
X97750Y38123D02*
Y38631D01*
Y38377D01*
X99274D01*
X99020Y38123D01*
X12750Y25000D02*
Y26524D01*
X11988D01*
X11734Y26270D01*
Y25762D01*
X11988Y25508D01*
X12750D01*
X12242D02*
X11734Y25000D01*
X11226Y25254D02*
X10973Y25000D01*
X10465D01*
X10211Y25254D01*
Y26270D01*
X10465Y26524D01*
X10973D01*
X11226Y26270D01*
Y26016D01*
X10973Y25762D01*
X10211D01*
X50185Y22400D02*
Y23924D01*
X49423D01*
X49169Y23670D01*
Y23162D01*
X49423Y22908D01*
X50185D01*
X49677D02*
X49169Y22400D01*
X48661Y23670D02*
X48407Y23924D01*
X47899D01*
X47645Y23670D01*
Y23416D01*
X47899Y23162D01*
X47645Y22908D01*
Y22654D01*
X47899Y22400D01*
X48407D01*
X48661Y22654D01*
Y22908D01*
X48407Y23162D01*
X48661Y23416D01*
Y23670D01*
X48407Y23162D02*
X47899D01*
X1750Y34528D02*
X226D01*
Y33766D01*
X480Y33512D01*
X988D01*
X1242Y33766D01*
Y34528D01*
Y34020D02*
X1750Y33512D01*
X226Y33004D02*
Y31989D01*
X480D01*
X1496Y33004D01*
X1750D01*
X80750Y45250D02*
X79226D01*
Y44488D01*
X79480Y44234D01*
X79988D01*
X80242Y44488D01*
Y45250D01*
Y44742D02*
X80750Y44234D01*
X79226Y42711D02*
X79480Y43219D01*
X79988Y43726D01*
X80496D01*
X80750Y43473D01*
Y42965D01*
X80496Y42711D01*
X80242D01*
X79988Y42965D01*
Y43726D01*
X52000Y44722D02*
Y46246D01*
X51238D01*
X50984Y45992D01*
Y45484D01*
X51238Y45230D01*
X52000D01*
X51492D02*
X50984Y44722D01*
X49715D02*
Y46246D01*
X50477Y45484D01*
X49461D01*
X51250Y55500D02*
Y57024D01*
X50488D01*
X50234Y56770D01*
Y56262D01*
X50488Y56008D01*
X51250D01*
X50742D02*
X50234Y55500D01*
X49726Y56770D02*
X49473Y57024D01*
X48965D01*
X48711Y56770D01*
Y56516D01*
X48965Y56262D01*
X49219D01*
X48965D01*
X48711Y56008D01*
Y55754D01*
X48965Y55500D01*
X49473D01*
X49726Y55754D01*
X84899Y19467D02*
Y20991D01*
X84137D01*
X83884Y20737D01*
Y20229D01*
X84137Y19975D01*
X84899D01*
X84391D02*
X83884Y19467D01*
X83376D02*
X82868D01*
X83122D01*
Y20991D01*
X83376Y20737D01*
X72926Y42531D02*
Y43547D01*
X73179Y43801D01*
X73687D01*
X73941Y43547D01*
Y42531D01*
X73687Y42277D01*
X73179D01*
X73433Y42785D02*
X72926Y42277D01*
X73179D02*
X72926Y42531D01*
X71402Y42277D02*
X72418D01*
X71402Y43293D01*
Y43547D01*
X71656Y43801D01*
X72164D01*
X72418Y43547D01*
X28484Y25794D02*
Y26810D01*
X28738Y27064D01*
X29246D01*
X29500Y26810D01*
Y25794D01*
X29246Y25540D01*
X28738D01*
X28992Y26048D02*
X28484Y25540D01*
X28738D02*
X28484Y25794D01*
X27976Y25540D02*
X27469D01*
X27723D01*
Y27064D01*
X27976Y26810D01*
X9250Y63500D02*
X7726D01*
Y62738D01*
X7980Y62484D01*
X8488D01*
X8742Y62738D01*
Y63500D01*
X9250Y60961D02*
Y61976D01*
X8234Y60961D01*
X7980D01*
X7726Y61215D01*
Y61723D01*
X7980Y61976D01*
X33500Y65250D02*
X31976D01*
Y64488D01*
X32230Y64234D01*
X32738D01*
X32992Y64488D01*
Y65250D01*
X33500Y63726D02*
Y63219D01*
Y63473D01*
X31976D01*
X32230Y63726D01*
X87000Y57524D02*
Y56000D01*
X86238D01*
X85984Y56254D01*
Y57270D01*
X86238Y57524D01*
X87000D01*
X84461D02*
X85476D01*
Y56762D01*
X84969Y57016D01*
X84715D01*
X84461Y56762D01*
Y56254D01*
X84715Y56000D01*
X85223D01*
X85476Y56254D01*
X78044Y44726D02*
Y43203D01*
X77282D01*
X77028Y43457D01*
Y44472D01*
X77282Y44726D01*
X78044D01*
X76520Y44472D02*
X76267Y44726D01*
X75759D01*
X75505Y44472D01*
Y44218D01*
X75759Y43964D01*
X76013D01*
X75759D01*
X75505Y43710D01*
Y43457D01*
X75759Y43203D01*
X76267D01*
X76520Y43457D01*
X22226Y35000D02*
X23750D01*
Y34238D01*
X23496Y33984D01*
X22480D01*
X22226Y34238D01*
Y35000D01*
X23750Y32461D02*
Y33476D01*
X22734Y32461D01*
X22480D01*
X22226Y32715D01*
Y33223D01*
X22480Y33476D01*
X69230Y50956D02*
X68977Y51210D01*
Y51718D01*
X69230Y51972D01*
X70246D01*
X70500Y51718D01*
Y51210D01*
X70246Y50956D01*
X69230Y50448D02*
X68977Y50195D01*
Y49687D01*
X69230Y49433D01*
X69484D01*
X69738Y49687D01*
X69992Y49433D01*
X70246D01*
X70500Y49687D01*
Y50195D01*
X70246Y50448D01*
X69992D01*
X69738Y50195D01*
X69484Y50448D01*
X69230D01*
X69738Y50195D02*
Y49687D01*
X76234Y58520D02*
X76488Y58774D01*
X76996D01*
X77250Y58520D01*
Y57504D01*
X76996Y57250D01*
X76488D01*
X76234Y57504D01*
X75726Y58774D02*
X74711D01*
Y58520D01*
X75726Y57504D01*
Y57250D01*
X89713Y28067D02*
X89459Y27813D01*
X88951D01*
X88697Y28067D01*
Y29083D01*
X88951Y29337D01*
X89459D01*
X89713Y29083D01*
X91236Y27813D02*
X90728Y28067D01*
X90221Y28575D01*
Y29083D01*
X90474Y29337D01*
X90982D01*
X91236Y29083D01*
Y28829D01*
X90982Y28575D01*
X90221D01*
X18520Y29766D02*
X18774Y29512D01*
Y29004D01*
X18520Y28750D01*
X17504D01*
X17250Y29004D01*
Y29512D01*
X17504Y29766D01*
X18774Y31289D02*
Y30274D01*
X18012D01*
X18266Y30781D01*
Y31035D01*
X18012Y31289D01*
X17504D01*
X17250Y31035D01*
Y30527D01*
X17504Y30274D01*
X28456Y12197D02*
X28709Y12451D01*
X29217D01*
X29471Y12197D01*
Y11181D01*
X29217Y10927D01*
X28709D01*
X28456Y11181D01*
X27186Y10927D02*
Y12451D01*
X27948Y11689D01*
X26932D01*
X17766Y58730D02*
X17512Y58476D01*
X17004D01*
X16750Y58730D01*
Y59746D01*
X17004Y60000D01*
X17512D01*
X17766Y59746D01*
X18274Y58730D02*
X18527Y58476D01*
X19035D01*
X19289Y58730D01*
Y58984D01*
X19035Y59238D01*
X18781D01*
X19035D01*
X19289Y59492D01*
Y59746D01*
X19035Y60000D01*
X18527D01*
X18274Y59746D01*
X30508Y37718D02*
X30254Y37972D01*
Y38480D01*
X30508Y38734D01*
X31524D01*
X31778Y38480D01*
Y37972D01*
X31524Y37718D01*
X31778Y36195D02*
Y37210D01*
X30762Y36195D01*
X30508D01*
X30254Y36449D01*
Y36957D01*
X30508Y37210D01*
X27774Y59770D02*
X28028Y60024D01*
X28536D01*
X28790Y59770D01*
Y58754D01*
X28536Y58500D01*
X28028D01*
X27774Y58754D01*
X27266Y58500D02*
X26759D01*
X27013D01*
Y60024D01*
X27266Y59770D01*
D12*
X22980Y24099D02*
G03*
X22980Y28441I1520J2171D01*
G01*
X860Y57850D02*
X11560D01*
X860Y58350D02*
X11560D01*
X860Y53650D02*
X11560D01*
Y58350D01*
X860Y53650D02*
Y58350D01*
X17259Y63150D02*
Y66350D01*
X15659Y64750D02*
X18841D01*
X10659D02*
X13841D01*
X12259Y63150D02*
Y66350D01*
X14759Y60750D02*
Y68450D01*
X19759Y60750D02*
Y68450D01*
X9759Y60750D02*
X19759D01*
X9759D02*
Y68450D01*
X19759D01*
X29009Y63150D02*
Y66350D01*
X27409Y64750D02*
X30591D01*
X22409D02*
X25591D01*
X24009Y63150D02*
Y66350D01*
X26509Y60750D02*
Y68450D01*
X31509Y60750D02*
Y68450D01*
X21509Y60750D02*
X31509D01*
X21509D02*
Y68450D01*
X31509D01*
X84730Y53282D02*
X87270D01*
Y47948D02*
Y54552D01*
X84730D02*
X87270D01*
X84730Y47948D02*
Y54552D01*
Y47948D02*
X87270D01*
X22950Y24170D02*
Y28370D01*
X75909Y64778D02*
X79091D01*
X77491Y63178D02*
Y66378D01*
X75000Y61078D02*
Y68778D01*
Y61078D02*
X80000D01*
X90000D01*
X80000D02*
Y68778D01*
X82500Y63178D02*
Y66378D01*
X80919Y64778D02*
X84100D01*
X85919D02*
X89100D01*
X87500Y63178D02*
Y66378D01*
X85000Y61078D02*
Y68778D01*
X80000D02*
X90000D01*
Y61078D02*
Y68778D01*
X75000D02*
X80000D01*
X69900Y30718D02*
Y41418D01*
X69400Y30718D02*
Y41418D01*
X74100Y30718D02*
Y41418D01*
X69400D02*
X74100D01*
X69400Y30718D02*
X74100D01*
X98950Y46019D02*
Y56019D01*
X91250D02*
X98950D01*
X91250Y46019D02*
Y56019D01*
Y46019D02*
X98950D01*
X91250Y51019D02*
X98950D01*
X93650Y53519D02*
X96850D01*
X95250Y51937D02*
Y55119D01*
Y46937D02*
Y50119D01*
X93650Y48519D02*
X96850D01*
D62*
X11035Y54300D02*
G03*
X11035Y54300I-125J0D01*
G01*
X73575Y40768D02*
G03*
X73575Y40768I-125J0D01*
G01*
D63*
X21494Y35690D02*
G03*
X21240Y35944I-254J0D01*
G01*
Y31372D02*
G03*
X21494Y31626I0J254D01*
G01*
X19462D02*
G03*
X19716Y31372I254J0D01*
G01*
Y35944D02*
G03*
X19462Y35690I0J-254D01*
G01*
X9912Y45634D02*
G03*
X10166Y45888I0J254D01*
G01*
X5594D02*
G03*
X5848Y45634I254J0D01*
G01*
Y47666D02*
G03*
X5594Y47412I0J-254D01*
G01*
X10166D02*
G03*
X9912Y47666I-254J0D01*
G01*
X76238Y38234D02*
G03*
X75984Y37980I0J-254D01*
G01*
Y33916D02*
G03*
X76238Y33662I254J0D01*
G01*
X77762D02*
G03*
X78016Y33916I0J254D01*
G01*
Y37980D02*
G03*
X77762Y38234I-254J0D01*
G01*
X20478Y33023D02*
Y33658D01*
X19843Y34674D02*
X21113D01*
X19843D02*
X20478Y33658D01*
Y35182D01*
Y33658D02*
X21113Y34674D01*
X20478Y33658D02*
X21113D01*
X19843D02*
X20478D01*
X19716Y35944D02*
X21240D01*
X19716Y31372D02*
X21240D01*
X21494Y31626D02*
Y35690D01*
X19462Y31626D02*
Y35690D01*
X7245Y46650D02*
X7880D01*
X8896Y46015D02*
Y47285D01*
X7880Y46650D02*
X8896Y47285D01*
X7880Y46650D02*
X9404D01*
X7880D02*
X8896Y46015D01*
X7880D02*
Y46650D01*
Y47285D01*
X10166Y45888D02*
Y47412D01*
X5594Y45888D02*
Y47412D01*
X5848Y45634D02*
X9912D01*
X5848Y47666D02*
X9912D01*
X75984Y33916D02*
Y37980D01*
X78016Y33916D02*
Y37980D01*
X76238Y33662D02*
X77762D01*
X76238Y38234D02*
X77762D01*
X76365Y35948D02*
X77000D01*
X77635D01*
X77000D02*
X77635Y36964D01*
X77000Y35948D02*
Y37472D01*
X76365Y36964D02*
X77000Y35948D01*
X76365Y36964D02*
X77635D01*
X77000Y35313D02*
Y35948D01*
D64*
X93890Y43593D02*
G03*
X93890Y43593I-200J0D01*
G01*
X28805Y42088D02*
G03*
X28805Y42088I-200J0D01*
G01*
X4453Y39278D02*
G03*
X4453Y39278I-200J0D01*
G01*
D65*
X34250Y34778D02*
Y66778D01*
X66250D01*
X34250Y34778D02*
X66250D01*
X66250D02*
Y66778D01*
M02*
