G04*
G04 #@! TF.GenerationSoftware,Altium Limited,Altium Designer,18.0.7 (293)*
G04*
G04 Layer_Physical_Order=2*
G04 Layer_Color=16711680*
%FSLAX43Y43*%
%MOMM*%
G71*
G01*
G75*
%ADD38C,3.000*%
%ADD39C,0.500*%
%ADD40C,1.000*%
%ADD41R,2.000X2.000*%
%ADD42C,2.000*%
%ADD43O,1.321X2.642*%
%ADD44C,1.524*%
%ADD45C,1.400*%
%ADD46O,2.642X1.321*%
%ADD47C,6.100*%
%ADD48C,1.500*%
%ADD49C,4.000*%
%ADD50O,2.000X1.000*%
%ADD51O,2.000X1.000*%
%ADD52R,2.000X2.000*%
%ADD53C,1.200*%
%ADD54R,1.500X1.500*%
%ADD55R,1.500X1.500*%
%ADD56C,2.286*%
%ADD57R,1.600X1.600*%
%ADD58C,1.600*%
%ADD59R,1.200X1.200*%
%ADD60C,1.270*%
%ADD61C,3.000*%
G36*
X11888Y60339D02*
X12021Y60000D01*
X11950Y59868D01*
X11870Y59604D01*
X11843Y59330D01*
X11439Y58882D01*
X9908D01*
X9878Y58905D01*
X9696Y58981D01*
X9500Y59006D01*
X5000D01*
X4804Y58981D01*
X4622Y58905D01*
X4465Y58785D01*
X4465Y58785D01*
X3135Y57455D01*
X3015Y57298D01*
X2939Y57116D01*
X2928Y57031D01*
X2721Y56920D01*
X2462Y56708D01*
X2250Y56449D01*
X2092Y56154D01*
X1995Y55833D01*
X1962Y55500D01*
X1995Y55167D01*
X2092Y54846D01*
X2250Y54551D01*
X2462Y54292D01*
X2721Y54080D01*
X3016Y53922D01*
X3337Y53825D01*
X3670Y53792D01*
X4003Y53825D01*
X4324Y53922D01*
X4619Y54080D01*
X4878Y54292D01*
X4905Y54325D01*
X4956Y54360D01*
X5510Y54452D01*
X5728Y54336D01*
X5964Y54264D01*
X6083Y54252D01*
Y55500D01*
X6337D01*
Y54252D01*
X6456Y54264D01*
X6550Y54293D01*
X6914Y54103D01*
X7050Y53960D01*
Y53800D01*
X10450D01*
Y57200D01*
X10880Y57370D01*
X26311D01*
X27034Y56647D01*
X27000Y56324D01*
X26905Y56068D01*
X26724Y55971D01*
X26501Y55789D01*
X26319Y55566D01*
X26296Y55524D01*
X25752Y55465D01*
X25725Y55475D01*
X25512Y55637D01*
X25265Y55740D01*
X25127Y55758D01*
Y54750D01*
Y53742D01*
X25265Y53760D01*
X25512Y53863D01*
X25725Y54025D01*
X25752Y54035D01*
X26296Y53976D01*
X26319Y53934D01*
X26501Y53711D01*
X26724Y53529D01*
X26978Y53393D01*
X27253Y53309D01*
X27540Y53281D01*
X27827Y53309D01*
X28102Y53393D01*
X28356Y53529D01*
X28579Y53711D01*
X28761Y53934D01*
X28858Y54115D01*
X29114Y54210D01*
X29368Y54236D01*
X29744Y53884D01*
Y51563D01*
X28965Y50785D01*
X28965Y50785D01*
X28845Y50628D01*
X28825Y50581D01*
X28723Y50448D01*
X28644Y50255D01*
X28568Y50229D01*
X28172Y50207D01*
X28128Y50221D01*
X28001Y50457D01*
X27820Y50678D01*
X27599Y50859D01*
X27348Y50994D01*
X27074Y51077D01*
X26790Y51105D01*
X26506Y51077D01*
X26232Y50994D01*
X25981Y50859D01*
X25840Y50744D01*
X25753Y50678D01*
X25287D01*
X25200Y50744D01*
X25059Y50859D01*
X24808Y50994D01*
X24534Y51077D01*
X24250Y51105D01*
X23966Y51077D01*
X23692Y50994D01*
X23441Y50859D01*
X23300Y50744D01*
X23213Y50678D01*
X22747D01*
X22660Y50744D01*
X22519Y50859D01*
X22268Y50994D01*
X21994Y51077D01*
X21710Y51105D01*
X21426Y51077D01*
X21152Y50994D01*
X20901Y50859D01*
X20760Y50744D01*
X20673Y50678D01*
X20207D01*
X20120Y50744D01*
X19979Y50859D01*
X19728Y50994D01*
X19454Y51077D01*
X19170Y51105D01*
X18886Y51077D01*
X18612Y50994D01*
X18361Y50859D01*
X18140Y50678D01*
X17959Y50457D01*
X17824Y50206D01*
X17741Y49932D01*
X17713Y49648D01*
X17741Y49364D01*
X17824Y49090D01*
X17959Y48839D01*
X18140Y48618D01*
X18361Y48437D01*
X18612Y48302D01*
X18886Y48219D01*
X19170Y48191D01*
X19454Y48219D01*
X19728Y48302D01*
X19979Y48437D01*
X20120Y48552D01*
X20207Y48618D01*
X20673D01*
X20760Y48552D01*
X20901Y48437D01*
X21152Y48302D01*
X21426Y48219D01*
X21710Y48191D01*
X21994Y48219D01*
X22268Y48302D01*
X22519Y48437D01*
X22660Y48552D01*
X22747Y48618D01*
X23213D01*
X23300Y48552D01*
X23441Y48437D01*
X23692Y48302D01*
X23966Y48219D01*
X24250Y48191D01*
X24534Y48219D01*
X24808Y48302D01*
X25059Y48437D01*
X25200Y48552D01*
X25287Y48618D01*
X25753D01*
X25840Y48552D01*
X25981Y48437D01*
X26232Y48302D01*
X26506Y48219D01*
X26790Y48191D01*
X27074Y48219D01*
X27348Y48302D01*
X27599Y48437D01*
X27820Y48618D01*
X28001Y48839D01*
X28136Y49090D01*
X28219Y49364D01*
X28227Y49444D01*
X28663Y49539D01*
X28738Y49533D01*
X28866Y49366D01*
X29052Y49223D01*
X29268Y49134D01*
X29500Y49103D01*
X29732Y49134D01*
X29948Y49223D01*
X30134Y49366D01*
X30277Y49552D01*
X30366Y49768D01*
X30490Y49845D01*
X30990Y49568D01*
Y47284D01*
X30985Y47276D01*
X30850Y46949D01*
X30767Y46604D01*
X30749Y46377D01*
X33000D01*
Y46250D01*
X33127D01*
Y43999D01*
X33354Y44017D01*
X33699Y44100D01*
X34026Y44235D01*
X34329Y44421D01*
X34599Y44651D01*
X34829Y44921D01*
X35015Y45224D01*
X35150Y45551D01*
X35233Y45896D01*
X35250Y46111D01*
X35750Y46091D01*
Y29000D01*
X31006D01*
Y33561D01*
X31506Y33586D01*
X31521Y33434D01*
X31622Y33104D01*
X31785Y32799D01*
X32004Y32532D01*
X32271Y32313D01*
X32576Y32150D01*
X32906Y32049D01*
X33250Y32016D01*
X33594Y32049D01*
X33924Y32150D01*
X34229Y32313D01*
X34496Y32532D01*
X34715Y32799D01*
X34878Y33104D01*
X34979Y33434D01*
X35012Y33778D01*
X34979Y34122D01*
X34878Y34452D01*
X34715Y34757D01*
X34496Y35024D01*
X34229Y35243D01*
X33924Y35406D01*
X33594Y35507D01*
X33250Y35540D01*
X32906Y35507D01*
X32576Y35406D01*
X32271Y35243D01*
X32004Y35024D01*
X31785Y34757D01*
X31622Y34452D01*
X31521Y34122D01*
X31506Y33970D01*
X31006Y33995D01*
Y43000D01*
X31006Y43000D01*
X30981Y43196D01*
X30905Y43378D01*
X30785Y43535D01*
X30785Y43535D01*
X29035Y45285D01*
X28878Y45405D01*
X28696Y45481D01*
X28500Y45506D01*
X14830D01*
X14634Y45481D01*
X14452Y45405D01*
X14295Y45285D01*
X13132Y44121D01*
X13104Y44130D01*
X12830Y44157D01*
X12556Y44130D01*
X12292Y44050D01*
X12048Y43920D01*
X11835Y43745D01*
X11660Y43532D01*
X11530Y43288D01*
X11450Y43024D01*
X11423Y42750D01*
X11450Y42476D01*
X11530Y42212D01*
X11660Y41968D01*
X11835Y41755D01*
X12048Y41580D01*
X12292Y41450D01*
X12556Y41370D01*
X12830Y41343D01*
X13104Y41370D01*
X13368Y41450D01*
X13612Y41580D01*
X13825Y41755D01*
X14000Y41968D01*
X14130Y42212D01*
X14210Y42476D01*
X14237Y42750D01*
X14210Y43024D01*
X14201Y43052D01*
X15143Y43994D01*
X27667D01*
X27678Y43978D01*
X27411Y43478D01*
X25340D01*
X25340Y43478D01*
X24840Y43357D01*
X24808Y43374D01*
X24534Y43457D01*
X24250Y43485D01*
X23966Y43457D01*
X23692Y43374D01*
X23441Y43239D01*
X23220Y43058D01*
X23039Y42837D01*
X23003Y42771D01*
X22999Y42769D01*
X22500Y42715D01*
X22431Y42738D01*
X22426Y42744D01*
X22216Y42905D01*
X21972Y43006D01*
X21837Y43024D01*
Y42028D01*
Y41032D01*
X21972Y41050D01*
X22216Y41151D01*
X22426Y41312D01*
X22431Y41318D01*
X22500Y41341D01*
X22999Y41287D01*
X23003Y41285D01*
X23039Y41219D01*
X23220Y40998D01*
X23441Y40817D01*
X23692Y40682D01*
X23966Y40599D01*
X24250Y40571D01*
X24534Y40599D01*
X24808Y40682D01*
X24840Y40699D01*
X25340Y40578D01*
Y40578D01*
X28240D01*
Y43233D01*
X28740Y43440D01*
X29494Y42687D01*
Y29000D01*
X28312D01*
X28285Y29035D01*
X28285Y29035D01*
X26256Y31063D01*
Y34290D01*
X26534Y34507D01*
X26756Y34606D01*
X26963Y34543D01*
X27250Y34515D01*
X27537Y34543D01*
X27812Y34627D01*
X28066Y34763D01*
X28289Y34945D01*
X28471Y35168D01*
X28607Y35422D01*
X28691Y35697D01*
X28719Y35984D01*
X28691Y36271D01*
X28607Y36546D01*
X28471Y36800D01*
X28308Y37000D01*
X28471Y37200D01*
X28607Y37454D01*
X28691Y37729D01*
X28719Y38016D01*
X28691Y38303D01*
X28607Y38578D01*
X28471Y38832D01*
X28289Y39055D01*
X28066Y39237D01*
X27812Y39373D01*
X27537Y39457D01*
X27250Y39485D01*
X26963Y39457D01*
X26688Y39373D01*
X26434Y39237D01*
X26211Y39055D01*
X26029Y38832D01*
X25999Y38778D01*
X25500Y38652D01*
X25399Y38671D01*
X24797Y39273D01*
X24640Y39393D01*
X24458Y39469D01*
X24262Y39494D01*
X21835D01*
X21818Y39665D01*
X21740Y39922D01*
X21614Y40158D01*
X21444Y40365D01*
X21237Y40535D01*
X21001Y40661D01*
X20885Y41019D01*
X21204Y41151D01*
X21448Y41050D01*
X21583Y41032D01*
Y42028D01*
Y43024D01*
X21448Y43006D01*
X21204Y42905D01*
X20994Y42744D01*
X20989Y42738D01*
X20920Y42715D01*
X20421Y42769D01*
X20417Y42771D01*
X20381Y42837D01*
X20200Y43058D01*
X19979Y43239D01*
X19728Y43374D01*
X19454Y43457D01*
X19170Y43485D01*
X18886Y43457D01*
X18612Y43374D01*
X18361Y43239D01*
X18140Y43058D01*
X17959Y42837D01*
X17824Y42586D01*
X17741Y42312D01*
X17713Y42028D01*
X17741Y41744D01*
X17824Y41470D01*
X17959Y41219D01*
X18140Y40998D01*
X18361Y40817D01*
X18612Y40682D01*
X18886Y40599D01*
X19043Y40583D01*
X19242Y40299D01*
X19300Y40081D01*
X19215Y39922D01*
X19137Y39665D01*
X19111Y39398D01*
Y38078D01*
X19137Y37811D01*
X19215Y37554D01*
X19341Y37318D01*
X19511Y37111D01*
X19718Y36941D01*
X19954Y36815D01*
X20211Y36737D01*
X20478Y36711D01*
X20744Y36737D01*
X21001Y36815D01*
X21237Y36941D01*
X21444Y37111D01*
X21614Y37318D01*
X21740Y37554D01*
X21818Y37811D01*
X21825Y37884D01*
X22302Y37962D01*
X22499Y37482D01*
X22473Y37448D01*
X22384Y37232D01*
X22370Y37127D01*
X23250D01*
Y36873D01*
X22370D01*
X22384Y36768D01*
X22473Y36552D01*
X22494Y36526D01*
Y33474D01*
X22473Y33448D01*
X22384Y33232D01*
X22380Y33199D01*
X21715Y32535D01*
X21595Y32378D01*
X21519Y32196D01*
X21494Y32000D01*
Y30791D01*
X21001Y30501D01*
X20744Y30579D01*
X20478Y30605D01*
X20211Y30579D01*
X19954Y30501D01*
X19718Y30375D01*
X19511Y30205D01*
X19341Y29998D01*
X19215Y29762D01*
X19137Y29505D01*
X19111Y29238D01*
Y29000D01*
X17277D01*
X17257Y29066D01*
X17127Y29310D01*
X16952Y29523D01*
X16739Y29698D01*
X16496Y29828D01*
X16232Y29908D01*
X15958Y29935D01*
X15683Y29908D01*
X15419Y29828D01*
X15176Y29698D01*
X14963Y29523D01*
X14788Y29310D01*
X14658Y29066D01*
X14638Y29000D01*
X7117D01*
X7097Y29066D01*
X6967Y29310D01*
X6792Y29523D01*
X6579Y29698D01*
X6402Y29792D01*
X6379Y30021D01*
X6445Y30317D01*
X6625Y30372D01*
X6877Y30506D01*
X7017Y30622D01*
X7104Y30688D01*
X7570D01*
X7658Y30622D01*
X7798Y30506D01*
X8050Y30372D01*
X8323Y30289D01*
X8607Y30261D01*
X8892Y30289D01*
X9165Y30372D01*
X9417Y30506D01*
X9557Y30622D01*
X9644Y30688D01*
X10110D01*
X10198Y30622D01*
X10338Y30506D01*
X10590Y30372D01*
X10863Y30289D01*
X11147Y30261D01*
X11432Y30289D01*
X11705Y30372D01*
X11957Y30506D01*
X12097Y30622D01*
X12184Y30688D01*
X12650D01*
X12738Y30622D01*
X12878Y30506D01*
X13130Y30372D01*
X13403Y30289D01*
X13687Y30261D01*
X13972Y30289D01*
X14245Y30372D01*
X14497Y30506D01*
X14718Y30688D01*
X14899Y30908D01*
X15034Y31160D01*
X15116Y31434D01*
X15144Y31718D01*
X15116Y32002D01*
X15034Y32276D01*
X14899Y32527D01*
X14718Y32748D01*
X14497Y32929D01*
X14245Y33064D01*
X13972Y33147D01*
X13687Y33175D01*
X13403Y33147D01*
X13130Y33064D01*
X12878Y32929D01*
X12738Y32814D01*
X12650Y32748D01*
X12184D01*
X12097Y32814D01*
X11957Y32929D01*
X11705Y33064D01*
X11432Y33147D01*
X11147Y33175D01*
X10863Y33147D01*
X10590Y33064D01*
X10338Y32929D01*
X10198Y32814D01*
X10110Y32748D01*
X9644D01*
X9557Y32814D01*
X9417Y32929D01*
X9165Y33064D01*
X8892Y33147D01*
X8607Y33175D01*
X8323Y33147D01*
X8050Y33064D01*
X7798Y32929D01*
X7658Y32814D01*
X7570Y32748D01*
X7104D01*
X7017Y32814D01*
X6877Y32929D01*
X6625Y33064D01*
X6352Y33147D01*
X6067Y33175D01*
X5783Y33147D01*
X5510Y33064D01*
X5258Y32929D01*
X5037Y32748D01*
X5033Y32744D01*
X4413Y32657D01*
X3506Y33563D01*
Y38425D01*
X3532Y38438D01*
X3745Y38613D01*
X3920Y38826D01*
X4050Y39070D01*
X4130Y39334D01*
X4617Y39266D01*
Y37888D01*
X7517D01*
X7517Y37888D01*
X8017Y38009D01*
X8050Y37992D01*
X8323Y37909D01*
X8607Y37881D01*
X8892Y37909D01*
X9165Y37992D01*
X9417Y38126D01*
X9557Y38242D01*
X9644Y38308D01*
X10110D01*
X10198Y38242D01*
X10338Y38126D01*
X10590Y37992D01*
X10863Y37909D01*
X11147Y37881D01*
X11432Y37909D01*
X11705Y37992D01*
X11957Y38126D01*
X12097Y38242D01*
X12184Y38308D01*
X12650D01*
X12738Y38242D01*
X12878Y38126D01*
X13130Y37992D01*
X13403Y37909D01*
X13687Y37881D01*
X13972Y37909D01*
X14245Y37992D01*
X14497Y38126D01*
X14718Y38308D01*
X14899Y38528D01*
X15034Y38780D01*
X15116Y39054D01*
X15144Y39338D01*
X15116Y39622D01*
X15034Y39896D01*
X14899Y40147D01*
X14718Y40368D01*
X14497Y40549D01*
X14245Y40684D01*
X13972Y40767D01*
X13687Y40795D01*
X13403Y40767D01*
X13130Y40684D01*
X12878Y40549D01*
X12738Y40434D01*
X12650Y40368D01*
X12184D01*
X12097Y40434D01*
X11957Y40549D01*
X11705Y40684D01*
X11432Y40767D01*
X11147Y40795D01*
X10863Y40767D01*
X10590Y40684D01*
X10338Y40549D01*
X10198Y40434D01*
X10110Y40368D01*
X9644D01*
X9557Y40434D01*
X9417Y40549D01*
X9165Y40684D01*
X8892Y40767D01*
X8607Y40795D01*
X8323Y40767D01*
X8050Y40684D01*
X8017Y40667D01*
X7517Y40788D01*
Y40788D01*
X5653D01*
X5462Y41250D01*
X5535Y41323D01*
X5655Y41480D01*
X5731Y41662D01*
X5756Y41858D01*
Y44500D01*
X5756Y44500D01*
X5731Y44696D01*
X5655Y44878D01*
X5535Y45035D01*
X5535Y45035D01*
X4626Y45944D01*
X4723Y46127D01*
X4801Y46383D01*
X4827Y46650D01*
X4801Y46917D01*
X4723Y47173D01*
X4597Y47409D01*
X4427Y47617D01*
X4220Y47787D01*
X3984Y47913D01*
X3727Y47991D01*
X3460Y48017D01*
X2140D01*
X1873Y47991D01*
X1616Y47913D01*
X1500Y47851D01*
X1146Y47993D01*
X1000Y48121D01*
Y60500D01*
X11752D01*
X11888Y60339D01*
D02*
G37*
G36*
X35750Y56659D02*
X35250Y56639D01*
X35233Y56854D01*
X35150Y57199D01*
X35015Y57526D01*
X35010Y57534D01*
Y60759D01*
X34971Y61152D01*
X34857Y61528D01*
X34671Y61876D01*
X34421Y62180D01*
X31063Y65538D01*
X31255Y66000D01*
X35750D01*
Y56659D01*
D02*
G37*
G36*
X30990Y59927D02*
Y57534D01*
X30985Y57526D01*
X30850Y57199D01*
X30767Y56854D01*
X30749Y56627D01*
X33000D01*
Y56373D01*
X30749D01*
X30767Y56146D01*
X30850Y55801D01*
X30937Y55589D01*
X30514Y55306D01*
X27159Y58661D01*
X27002Y58781D01*
X26820Y58857D01*
X26624Y58882D01*
X19856D01*
X19664Y59344D01*
X20820Y60500D01*
X27750D01*
X28000Y60750D01*
Y62264D01*
X28462Y62455D01*
X30990Y59927D01*
D02*
G37*
G36*
X35750Y56341D02*
Y46409D01*
X35250Y46389D01*
X35233Y46604D01*
X35150Y46949D01*
X35015Y47276D01*
X35010Y47284D01*
Y55466D01*
X35015Y55474D01*
X35150Y55801D01*
X35233Y56146D01*
X35250Y56361D01*
X35750Y56341D01*
D02*
G37*
G36*
X1616Y45387D02*
X1873Y45309D01*
X2140Y45283D01*
X3147D01*
X4172Y44258D01*
X4127Y43969D01*
X3854Y43836D01*
X3607Y43792D01*
X3452Y43920D01*
X3208Y44050D01*
X2944Y44130D01*
X2670Y44157D01*
X2396Y44130D01*
X2132Y44050D01*
X1888Y43920D01*
X1675Y43745D01*
X1500Y43532D01*
X1500Y43531D01*
X1000Y43656D01*
Y45179D01*
X1146Y45307D01*
X1500Y45449D01*
X1616Y45387D01*
D02*
G37*
G36*
X1580Y38826D02*
X1755Y38613D01*
X1968Y38438D01*
X1994Y38425D01*
Y33250D01*
X2019Y33054D01*
X2095Y32872D01*
X2215Y32715D01*
X3321Y31610D01*
X3296Y31193D01*
X2859Y30844D01*
X2750Y30855D01*
X2476Y30828D01*
X2212Y30748D01*
X1968Y30618D01*
X1755Y30443D01*
X1580Y30230D01*
X1500Y30079D01*
X1128Y30115D01*
X1000Y30166D01*
Y38890D01*
X1128Y38941D01*
X1500Y38977D01*
X1580Y38826D01*
D02*
G37*
G36*
X24744Y36862D02*
Y30750D01*
X24769Y30554D01*
X24845Y30372D01*
X24965Y30215D01*
X25718Y29462D01*
X25527Y29000D01*
X23006D01*
Y31687D01*
X23449Y32130D01*
X23482Y32134D01*
X23698Y32223D01*
X23884Y32366D01*
X24027Y32552D01*
X24116Y32768D01*
X24130Y32873D01*
X23250D01*
Y33127D01*
X24130D01*
X24116Y33232D01*
X24027Y33448D01*
X24006Y33474D01*
Y36526D01*
X24027Y36552D01*
X24076Y36670D01*
X24383Y36846D01*
X24641Y36922D01*
X24744Y36862D01*
D02*
G37*
%LPC*%
G36*
X19667Y55758D02*
Y54877D01*
X20548D01*
X20530Y55015D01*
X20427Y55262D01*
X20265Y55475D01*
X20052Y55637D01*
X19805Y55740D01*
X19667Y55758D01*
D02*
G37*
G36*
X24873D02*
X24735Y55740D01*
X24488Y55637D01*
X24275Y55475D01*
X24113Y55262D01*
X24010Y55015D01*
X23992Y54877D01*
X24873D01*
Y55758D01*
D02*
G37*
G36*
X20548Y54623D02*
X19667D01*
Y53742D01*
X19805Y53760D01*
X20052Y53863D01*
X20265Y54025D01*
X20427Y54238D01*
X20530Y54485D01*
X20548Y54623D01*
D02*
G37*
G36*
X24873D02*
X23992D01*
X24010Y54485D01*
X24113Y54238D01*
X24275Y54025D01*
X24488Y53863D01*
X24735Y53760D01*
X24873Y53742D01*
Y54623D01*
D02*
G37*
G36*
X17000Y56219D02*
X16713Y56191D01*
X16438Y56107D01*
X16184Y55971D01*
X15961Y55789D01*
X15779Y55566D01*
X15643Y55312D01*
X15559Y55037D01*
X15531Y54750D01*
X15559Y54463D01*
X15643Y54188D01*
X15779Y53934D01*
X15961Y53711D01*
X16184Y53529D01*
X16438Y53393D01*
X16713Y53309D01*
X17000Y53281D01*
X17287Y53309D01*
X17562Y53393D01*
X17816Y53529D01*
X18039Y53711D01*
X18221Y53934D01*
X18244Y53976D01*
X18788Y54035D01*
X18815Y54025D01*
X19028Y53863D01*
X19275Y53760D01*
X19413Y53742D01*
Y54750D01*
Y55758D01*
X19275Y55740D01*
X19028Y55637D01*
X18815Y55475D01*
X18788Y55465D01*
X18244Y55524D01*
X18221Y55566D01*
X18039Y55789D01*
X17816Y55971D01*
X17562Y56107D01*
X17287Y56191D01*
X17000Y56219D01*
D02*
G37*
G36*
X13250Y50577D02*
X12976Y50550D01*
X12712Y50470D01*
X12468Y50340D01*
X12255Y50165D01*
X12080Y49952D01*
X11950Y49708D01*
X11870Y49444D01*
X11843Y49170D01*
X11870Y48896D01*
X11950Y48632D01*
X12080Y48388D01*
X12255Y48175D01*
X12381Y48072D01*
X12327Y47741D01*
X12230Y47563D01*
X12061Y47541D01*
X11838Y47449D01*
X11647Y47302D01*
X11501Y47111D01*
X11409Y46889D01*
X11394Y46777D01*
X14526D01*
X14511Y46889D01*
X14419Y47111D01*
X14273Y47302D01*
X14082Y47449D01*
X14070Y47454D01*
X14032Y48000D01*
X14245Y48175D01*
X14420Y48388D01*
X14550Y48632D01*
X14630Y48896D01*
X14657Y49170D01*
X14630Y49444D01*
X14550Y49708D01*
X14420Y49952D01*
X14245Y50165D01*
X14032Y50340D01*
X13788Y50470D01*
X13524Y50550D01*
X13250Y50577D01*
D02*
G37*
G36*
X14526Y46523D02*
X13087D01*
Y45728D01*
X13620D01*
X13859Y45759D01*
X14082Y45851D01*
X14273Y45998D01*
X14419Y46189D01*
X14511Y46411D01*
X14526Y46523D01*
D02*
G37*
G36*
X12833D02*
X11394D01*
X11409Y46411D01*
X11501Y46189D01*
X11647Y45998D01*
X11838Y45851D01*
X12061Y45759D01*
X12300Y45728D01*
X12833D01*
Y46523D01*
D02*
G37*
G36*
X32873Y46123D02*
X30749D01*
X30767Y45896D01*
X30850Y45551D01*
X30985Y45224D01*
X31171Y44921D01*
X31401Y44651D01*
X31671Y44421D01*
X31974Y44235D01*
X32301Y44100D01*
X32646Y44017D01*
X32873Y43999D01*
Y46123D01*
D02*
G37*
G36*
X16878Y39374D02*
X16623Y39349D01*
X16378Y39275D01*
X16152Y39154D01*
X15954Y38992D01*
X15791Y38794D01*
X15671Y38568D01*
X15596Y38323D01*
X15571Y38068D01*
X15596Y37813D01*
X15671Y37568D01*
X15791Y37342D01*
X15954Y37144D01*
X16152Y36982D01*
X16378Y36861D01*
X16623Y36787D01*
X16878Y36762D01*
X17132Y36787D01*
X17377Y36861D01*
X17603Y36982D01*
X17801Y37144D01*
X17964Y37342D01*
X18084Y37568D01*
X18159Y37813D01*
X18184Y38068D01*
X18159Y38323D01*
X18084Y38568D01*
X17964Y38794D01*
X17801Y38992D01*
X17603Y39154D01*
X17377Y39275D01*
X17132Y39349D01*
X16878Y39374D01*
D02*
G37*
G36*
Y34294D02*
X16623Y34269D01*
X16378Y34195D01*
X16152Y34074D01*
X15954Y33912D01*
X15791Y33714D01*
X15671Y33488D01*
X15596Y33243D01*
X15571Y32988D01*
X15596Y32733D01*
X15671Y32488D01*
X15791Y32262D01*
X15954Y32064D01*
X16152Y31902D01*
X16378Y31781D01*
X16623Y31707D01*
X16878Y31682D01*
X17132Y31707D01*
X17377Y31781D01*
X17603Y31902D01*
X17801Y32064D01*
X17964Y32262D01*
X18084Y32488D01*
X18159Y32733D01*
X18184Y32988D01*
X18159Y33243D01*
X18084Y33488D01*
X17964Y33714D01*
X17801Y33912D01*
X17603Y34074D01*
X17377Y34195D01*
X17132Y34269D01*
X16878Y34294D01*
D02*
G37*
%LPD*%
D38*
X76713Y64000D02*
X77491Y64778D01*
X62750Y64000D02*
X76713D01*
X58500Y68250D02*
X62750Y64000D01*
X27500Y68250D02*
X58500D01*
X24000Y64750D02*
X27500Y68250D01*
X87509Y56259D02*
Y57571D01*
X86000Y54750D02*
X87509Y56259D01*
Y57571D02*
X89000Y56080D01*
X87509Y57571D02*
Y64778D01*
X89000Y56080D02*
X91552Y53528D01*
X95250D01*
X92651Y45920D02*
X95250Y48519D01*
X89000Y45920D02*
X92651D01*
X71710Y48460D02*
X72250D01*
X69500Y46250D02*
X71710Y48460D01*
X68930Y46250D02*
X69500D01*
X87830Y45920D02*
X89000D01*
X86000Y47750D02*
X87830Y45920D01*
X84830Y48920D02*
X86000Y47750D01*
X79000Y48920D02*
X84830D01*
X78540Y48460D02*
X79000Y48920D01*
X72250Y48460D02*
X78540D01*
X68930Y46250D02*
Y56500D01*
X33000Y46250D02*
Y56500D01*
Y60759D01*
X29009Y64750D02*
X33000Y60759D01*
D39*
X20500Y2500D02*
Y6250D01*
X7500Y19250D02*
X20500Y6250D01*
X22250Y32000D02*
X23250Y33000D01*
X22250Y25500D02*
Y32000D01*
X19000Y22250D02*
X22250Y25500D01*
X10420Y22250D02*
X19000D01*
X7500Y19330D02*
X10420Y22250D01*
X7500Y19250D02*
Y19330D01*
X20500Y2500D02*
X21750Y1250D01*
X29750D01*
X30750Y2250D01*
Y4000D01*
X26750Y8000D02*
X30750Y4000D01*
X26750Y8000D02*
Y11250D01*
X28250Y12750D01*
X37250D01*
X38500Y14000D01*
X61250D01*
X62750Y12500D01*
X69500D01*
X75000Y7000D01*
X24750Y13000D02*
X30250Y18500D01*
X24750Y7710D02*
Y13000D01*
Y7710D02*
X28500Y3960D01*
X75000Y7250D02*
Y7500D01*
Y7000D02*
Y7250D01*
X96750Y16000D02*
Y32250D01*
X83750Y3000D02*
X96750Y16000D01*
X77816Y3000D02*
X83750D01*
X98750Y15750D02*
Y45019D01*
X84500Y1500D02*
X98750Y15750D01*
X71000Y1500D02*
X84500D01*
X83750Y15750D02*
Y17830D01*
X81000Y13000D02*
X83750Y15750D01*
X29500Y50250D02*
X29500D01*
X83750Y7750D02*
Y12500D01*
Y7670D02*
Y7750D01*
Y12500D02*
X85750Y14500D01*
X63000Y58500D02*
X65250Y60750D01*
X63000Y41750D02*
Y58500D01*
Y41750D02*
X71222Y33528D01*
X79250Y60750D02*
X82500Y64000D01*
X65250Y60750D02*
X79250D01*
X57500Y33250D02*
Y40250D01*
Y33250D02*
X65000Y25750D01*
X79750D01*
X85750Y19750D01*
Y14500D02*
Y19750D01*
X35000Y17750D02*
X62750D01*
X32500Y20250D02*
X35000Y17750D01*
X32500Y20250D02*
Y22750D01*
X30250Y18500D02*
Y43000D01*
X27750Y23000D02*
Y28500D01*
X25500Y30750D02*
X27750Y28500D01*
X25500Y30750D02*
Y37500D01*
X24262Y38738D02*
X25500Y37500D01*
X20478Y38738D02*
X24262D01*
X62750Y17750D02*
X65500Y20500D01*
X81250D01*
X73750Y18500D02*
X75000Y17250D01*
X70750Y18500D02*
X73750D01*
X68750Y16500D02*
X70750Y18500D01*
X68750Y13500D02*
Y16500D01*
Y13500D02*
X75000Y7250D01*
Y16000D02*
Y17250D01*
X74500Y13000D02*
X81000D01*
X72460Y15040D02*
X74500Y13000D01*
X72460Y15040D02*
Y16000D01*
X74250Y4500D02*
X78250D01*
X72460Y6290D02*
X74250Y4500D01*
X72460Y6290D02*
Y7000D01*
X78250Y4500D02*
X79000Y5250D01*
X77812Y2996D02*
X77816Y3000D01*
X72004Y2996D02*
X77812D01*
X66000Y9000D02*
X72004Y2996D01*
X43920Y9000D02*
X66000D01*
X38920Y4000D02*
X43920Y9000D01*
X57920Y7000D02*
X65500D01*
X23250Y33000D02*
Y37000D01*
X2750Y33250D02*
Y39608D01*
Y33250D02*
X4250Y31750D01*
Y28250D02*
Y31750D01*
X3000Y27000D02*
X4250Y28250D01*
X3000Y19540D02*
Y27000D01*
X30500Y51250D02*
Y54250D01*
X26624Y58126D02*
X30500Y54250D01*
X9624Y58126D02*
X26624D01*
X29500Y50000D02*
Y50250D01*
X29500D02*
X30500Y51250D01*
X9500Y58250D02*
X9624Y58126D01*
X5000Y58250D02*
X9500D01*
X3670Y56920D02*
X5000Y58250D01*
X3670Y55500D02*
Y56920D01*
X28500Y44750D02*
X30250Y43000D01*
X14830Y44750D02*
X28500D01*
X12830Y42750D02*
X14830Y44750D01*
X1000Y2500D02*
Y27000D01*
Y2500D02*
X2750Y750D01*
X14750D01*
X18000Y4000D01*
X2800Y46650D02*
X2850D01*
X5000Y44500D01*
Y41858D02*
Y44500D01*
X2750Y39608D02*
X5000Y41858D01*
X95250Y48519D02*
X98750Y45019D01*
X65500Y7000D02*
X71000Y1500D01*
X54920Y4000D02*
X57920Y7000D01*
X28500Y9040D02*
X33880D01*
X38920Y4000D01*
X60750Y33250D02*
Y38500D01*
X82500Y64000D02*
Y64778D01*
X71222Y33528D02*
X72250D01*
X8500Y31611D02*
X8607Y31718D01*
X3000Y17000D02*
Y19540D01*
X60000Y4000D02*
X65080D01*
X57250Y1250D02*
X60000Y4000D01*
X36590Y1250D02*
X57250D01*
X33840Y4000D02*
X36590Y1250D01*
X79000Y5250D02*
Y7920D01*
X18580Y59330D02*
X24000Y64750D01*
X13250Y59330D02*
X18580D01*
D40*
X79500Y54750D02*
X86000D01*
X79000Y54250D02*
X79500Y54750D01*
X79000Y54000D02*
Y54250D01*
D41*
X8750Y55500D02*
D03*
D42*
X6210D02*
D03*
X3670D02*
D03*
X17259Y64750D02*
D03*
X12250D02*
D03*
X29009D02*
D03*
X24000D02*
D03*
X77491Y64778D02*
D03*
X82500D02*
D03*
X87509D02*
D03*
X72250Y36068D02*
D03*
Y33528D02*
D03*
X95250Y53528D02*
D03*
Y48519D02*
D03*
D43*
X20478Y28578D02*
D03*
Y38738D02*
D03*
X77000Y41028D02*
D03*
Y30868D02*
D03*
D44*
X27250Y38016D02*
D03*
Y35984D02*
D03*
X25000Y54750D02*
D03*
X27540D02*
D03*
X79000Y48920D02*
D03*
Y54000D02*
D03*
X17000Y54750D02*
D03*
X19540D02*
D03*
X49000Y31330D02*
D03*
Y26250D02*
D03*
D45*
X13250Y59330D02*
D03*
Y49170D02*
D03*
X89000Y45920D02*
D03*
Y56080D02*
D03*
X15958Y28528D02*
D03*
X5798D02*
D03*
X80000Y30948D02*
D03*
Y41108D02*
D03*
X83000Y31028D02*
D03*
Y41188D02*
D03*
X96750Y42410D02*
D03*
Y32250D02*
D03*
X2750Y29448D02*
D03*
Y39608D02*
D03*
X12830Y42750D02*
D03*
X2670D02*
D03*
X49250Y10670D02*
D03*
Y20830D02*
D03*
X83750Y17910D02*
D03*
Y7750D02*
D03*
X79000Y7920D02*
D03*
Y18080D02*
D03*
X7500Y19330D02*
D03*
Y9170D02*
D03*
D46*
X2800Y46650D02*
D03*
X12960D02*
D03*
D47*
X4750Y65028D02*
D03*
X5000Y5000D02*
D03*
X94750Y65028D02*
D03*
X95000Y5000D02*
D03*
D48*
X86000Y54750D02*
D03*
Y47750D02*
D03*
X86130Y34158D02*
D03*
Y36698D02*
D03*
Y39238D02*
D03*
Y41778D02*
D03*
X93750Y34158D02*
D03*
Y36698D02*
D03*
Y39238D02*
D03*
X24250Y42028D02*
D03*
X21710D02*
D03*
X19170D02*
D03*
X26790Y49648D02*
D03*
X24250D02*
D03*
X21710D02*
D03*
X19170D02*
D03*
X13687Y31718D02*
D03*
X11147D02*
D03*
X8607D02*
D03*
X6067D02*
D03*
X13687Y39338D02*
D03*
X11147D02*
D03*
X8607D02*
D03*
D49*
X33000Y56500D02*
D03*
X68930D02*
D03*
X33000Y46250D02*
D03*
X68930D02*
D03*
D50*
X24500Y25000D02*
D03*
Y26270D02*
D03*
D51*
Y27540D02*
D03*
D52*
X72250Y38608D02*
D03*
D53*
X72250Y48460D02*
D03*
Y53540D02*
D03*
X92540Y31028D02*
D03*
X87460D02*
D03*
X16878Y32988D02*
D03*
Y38068D02*
D03*
X28500Y9040D02*
D03*
Y3960D02*
D03*
X3000Y19540D02*
D03*
Y17000D02*
D03*
D54*
X93750Y41778D02*
D03*
D55*
X26790Y42028D02*
D03*
X6067Y39338D02*
D03*
D56*
X12920Y4000D02*
D03*
X18000D02*
D03*
X23080D02*
D03*
X44000D02*
D03*
X38920D02*
D03*
X33840D02*
D03*
X54920D02*
D03*
X60000D02*
D03*
X65080D02*
D03*
D57*
X75000Y16000D02*
D03*
Y7000D02*
D03*
D58*
X72460Y16000D02*
D03*
Y7000D02*
D03*
D59*
X3000Y14460D02*
D03*
D60*
X32500Y22750D02*
D03*
X27750D02*
D03*
X81250Y20500D02*
D03*
X23250Y33000D02*
D03*
X29500Y50000D02*
D03*
X1000Y27000D02*
D03*
X23250Y37000D02*
D03*
X57500Y40250D02*
D03*
X60750Y38500D02*
D03*
Y33250D02*
D03*
D61*
X33250Y33778D02*
D03*
X67250Y67778D02*
D03*
M02*
